<mxfile host="localhost" modified="2020-05-11T19:40:10.693Z" agent="5.0 (Windows NT 10.0; Win64; x64) AppleWebKit/537.36 (KHTML, like Gecko) Code/1.45.0 Chrome/78.0.3904.130 Electron/7.2.4 Safari/537.36" etag="gkLmLd5BTKQvElpBCemA" version="13.0.9">
    <diagram id="mCJGcP_8hqmCXcMLYqK4" name="Page-1">
        <mxGraphModel dx="1530" dy="1931" grid="0" gridSize="10" guides="1" tooltips="1" connect="1" arrows="1" fold="1" page="0" pageScale="1" pageWidth="850" pageHeight="1100" math="0" shadow="0">
            <root>
                <mxCell id="0"/>
                <mxCell id="1" parent="0"/>
                <mxCell id="y5mTM7t5K1WfnvU4cUye-74" value="" style="rounded=0;whiteSpace=wrap;html=1;" parent="1" vertex="1">
                    <mxGeometry x="270" y="1495" width="900" height="835" as="geometry"/>
                </mxCell>
                <mxCell id="sLWAIpHt156A45maYdf0-55" value="" style="rounded=0;whiteSpace=wrap;html=1;" parent="1" vertex="1">
                    <mxGeometry x="190" y="-580" width="340" height="330" as="geometry"/>
                </mxCell>
                <mxCell id="sLWAIpHt156A45maYdf0-56" value="NV REG EMULATION" style="text;html=1;strokeColor=none;fillColor=none;align=center;verticalAlign=middle;whiteSpace=wrap;rounded=0;" parent="1" vertex="1">
                    <mxGeometry x="290" y="-570" width="140" height="20" as="geometry"/>
                </mxCell>
                <mxCell id="sLWAIpHt156A45maYdf0-77" style="edgeStyle=orthogonalEdgeStyle;rounded=0;orthogonalLoop=1;jettySize=auto;html=1;exitX=1;exitY=0.5;exitDx=0;exitDy=0;entryX=0;entryY=0.5;entryDx=0;entryDy=0;strokeWidth=2;" parent="1" source="sLWAIpHt156A45maYdf0-57" target="sLWAIpHt156A45maYdf0-66" edge="1">
                    <mxGeometry relative="1" as="geometry"/>
                </mxCell>
                <mxCell id="sLWAIpHt156A45maYdf0-80" style="edgeStyle=orthogonalEdgeStyle;rounded=0;orthogonalLoop=1;jettySize=auto;html=1;exitX=0;exitY=0.5;exitDx=0;exitDy=0;endArrow=none;endFill=0;strokeWidth=2;" parent="1" source="sLWAIpHt156A45maYdf0-57" edge="1">
                    <mxGeometry relative="1" as="geometry">
                        <mxPoint x="190" y="-525" as="targetPoint"/>
                    </mxGeometry>
                </mxCell>
                <mxCell id="sLWAIpHt156A45maYdf0-57" value="" style="rounded=0;whiteSpace=wrap;html=1;" parent="1" vertex="1">
                    <mxGeometry x="210" y="-540" width="20" height="30" as="geometry"/>
                </mxCell>
                <mxCell id="sLWAIpHt156A45maYdf0-74" style="edgeStyle=orthogonalEdgeStyle;rounded=0;orthogonalLoop=1;jettySize=auto;html=1;exitX=1;exitY=0.5;exitDx=0;exitDy=0;entryX=0;entryY=0.5;entryDx=0;entryDy=0;strokeWidth=2;" parent="1" source="sLWAIpHt156A45maYdf0-66" target="sLWAIpHt156A45maYdf0-73" edge="1">
                    <mxGeometry relative="1" as="geometry"/>
                </mxCell>
                <mxCell id="sLWAIpHt156A45maYdf0-66" value="" style="rounded=0;whiteSpace=wrap;html=1;" parent="1" vertex="1">
                    <mxGeometry x="250" y="-540" width="20" height="30" as="geometry"/>
                </mxCell>
                <mxCell id="sLWAIpHt156A45maYdf0-82" value="" style="rounded=0;whiteSpace=wrap;html=1;" parent="1" vertex="1">
                    <mxGeometry x="350" y="-540" width="20" height="30" as="geometry"/>
                </mxCell>
                <mxCell id="sLWAIpHt156A45maYdf0-79" style="edgeStyle=orthogonalEdgeStyle;rounded=0;orthogonalLoop=1;jettySize=auto;html=1;exitX=1;exitY=0.5;exitDx=0;exitDy=0;strokeWidth=2;endArrow=none;endFill=0;entryX=0.007;entryY=0.209;entryDx=0;entryDy=0;entryPerimeter=0;" parent="1" source="sLWAIpHt156A45maYdf0-72" target="sLWAIpHt156A45maYdf0-150" edge="1">
                    <mxGeometry relative="1" as="geometry">
                        <mxPoint x="530" y="-525" as="targetPoint"/>
                    </mxGeometry>
                </mxCell>
                <mxCell id="sLWAIpHt156A45maYdf0-72" value="" style="rounded=0;whiteSpace=wrap;html=1;" parent="1" vertex="1">
                    <mxGeometry x="490" y="-540" width="20" height="30" as="geometry"/>
                </mxCell>
                <mxCell id="sLWAIpHt156A45maYdf0-78" style="edgeStyle=orthogonalEdgeStyle;rounded=0;orthogonalLoop=1;jettySize=auto;html=1;exitX=1;exitY=0.5;exitDx=0;exitDy=0;entryX=0;entryY=0.5;entryDx=0;entryDy=0;strokeWidth=2;" parent="1" source="sLWAIpHt156A45maYdf0-73" target="sLWAIpHt156A45maYdf0-72" edge="1">
                    <mxGeometry relative="1" as="geometry"/>
                </mxCell>
                <mxCell id="sLWAIpHt156A45maYdf0-73" value="" style="rounded=0;whiteSpace=wrap;html=1;" parent="1" vertex="1">
                    <mxGeometry x="450" y="-540" width="20" height="30" as="geometry"/>
                </mxCell>
                <mxCell id="sLWAIpHt156A45maYdf0-75" value="[DELAY]" style="rounded=0;whiteSpace=wrap;html=1;" parent="1" vertex="1">
                    <mxGeometry x="315" y="-545" width="90" height="40" as="geometry"/>
                </mxCell>
                <mxCell id="sLWAIpHt156A45maYdf0-81" style="edgeStyle=orthogonalEdgeStyle;rounded=0;orthogonalLoop=1;jettySize=auto;html=1;exitX=1;exitY=0.5;exitDx=0;exitDy=0;entryX=0;entryY=0.5;entryDx=0;entryDy=0;strokeWidth=2;" parent="1" edge="1">
                    <mxGeometry relative="1" as="geometry">
                        <mxPoint x="230" y="-525.1700000000001" as="sourcePoint"/>
                        <mxPoint x="250" y="-525.1700000000001" as="targetPoint"/>
                    </mxGeometry>
                </mxCell>
                <mxCell id="sLWAIpHt156A45maYdf0-84" style="edgeStyle=orthogonalEdgeStyle;rounded=0;orthogonalLoop=1;jettySize=auto;html=1;exitX=1;exitY=0.5;exitDx=0;exitDy=0;entryX=0;entryY=0.5;entryDx=0;entryDy=0;strokeWidth=2;" parent="1" edge="1">
                    <mxGeometry relative="1" as="geometry">
                        <mxPoint x="230" y="-525.1000000000001" as="sourcePoint"/>
                        <mxPoint x="250" y="-525.1000000000001" as="targetPoint"/>
                    </mxGeometry>
                </mxCell>
                <mxCell id="sLWAIpHt156A45maYdf0-85" style="edgeStyle=orthogonalEdgeStyle;rounded=0;orthogonalLoop=1;jettySize=auto;html=1;exitX=1;exitY=0.5;exitDx=0;exitDy=0;entryX=0;entryY=0.5;entryDx=0;entryDy=0;strokeWidth=2;" parent="1" source="sLWAIpHt156A45maYdf0-87" target="sLWAIpHt156A45maYdf0-89" edge="1">
                    <mxGeometry relative="1" as="geometry"/>
                </mxCell>
                <mxCell id="sLWAIpHt156A45maYdf0-86" style="edgeStyle=orthogonalEdgeStyle;rounded=0;orthogonalLoop=1;jettySize=auto;html=1;exitX=0;exitY=0.5;exitDx=0;exitDy=0;entryX=0;entryY=0.145;entryDx=0;entryDy=0;entryPerimeter=0;endArrow=none;endFill=0;strokeWidth=2;" parent="1" source="sLWAIpHt156A45maYdf0-87" edge="1">
                    <mxGeometry relative="1" as="geometry">
                        <mxPoint x="190" y="-469.89999999999986" as="targetPoint"/>
                    </mxGeometry>
                </mxCell>
                <mxCell id="sLWAIpHt156A45maYdf0-87" value="" style="rounded=0;whiteSpace=wrap;html=1;" parent="1" vertex="1">
                    <mxGeometry x="210" y="-485" width="20" height="30" as="geometry"/>
                </mxCell>
                <mxCell id="sLWAIpHt156A45maYdf0-88" style="edgeStyle=orthogonalEdgeStyle;rounded=0;orthogonalLoop=1;jettySize=auto;html=1;exitX=1;exitY=0.5;exitDx=0;exitDy=0;entryX=0;entryY=0.5;entryDx=0;entryDy=0;strokeWidth=2;" parent="1" source="sLWAIpHt156A45maYdf0-89" target="sLWAIpHt156A45maYdf0-94" edge="1">
                    <mxGeometry relative="1" as="geometry"/>
                </mxCell>
                <mxCell id="sLWAIpHt156A45maYdf0-89" value="" style="rounded=0;whiteSpace=wrap;html=1;" parent="1" vertex="1">
                    <mxGeometry x="250" y="-485" width="20" height="30" as="geometry"/>
                </mxCell>
                <mxCell id="sLWAIpHt156A45maYdf0-90" value="" style="rounded=0;whiteSpace=wrap;html=1;" parent="1" vertex="1">
                    <mxGeometry x="350" y="-485" width="20" height="30" as="geometry"/>
                </mxCell>
                <mxCell id="sLWAIpHt156A45maYdf0-91" style="edgeStyle=orthogonalEdgeStyle;rounded=0;orthogonalLoop=1;jettySize=auto;html=1;exitX=1;exitY=0.5;exitDx=0;exitDy=0;entryX=0;entryY=0.3;entryDx=0;entryDy=0;entryPerimeter=0;strokeWidth=2;endArrow=none;endFill=0;" parent="1" source="sLWAIpHt156A45maYdf0-92" target="sLWAIpHt156A45maYdf0-150" edge="1">
                    <mxGeometry relative="1" as="geometry">
                        <mxPoint x="530" y="-469.89999999999986" as="targetPoint"/>
                    </mxGeometry>
                </mxCell>
                <mxCell id="sLWAIpHt156A45maYdf0-92" value="" style="rounded=0;whiteSpace=wrap;html=1;" parent="1" vertex="1">
                    <mxGeometry x="490" y="-485" width="20" height="30" as="geometry"/>
                </mxCell>
                <mxCell id="sLWAIpHt156A45maYdf0-93" style="edgeStyle=orthogonalEdgeStyle;rounded=0;orthogonalLoop=1;jettySize=auto;html=1;exitX=1;exitY=0.5;exitDx=0;exitDy=0;entryX=0;entryY=0.5;entryDx=0;entryDy=0;strokeWidth=2;" parent="1" source="sLWAIpHt156A45maYdf0-94" target="sLWAIpHt156A45maYdf0-92" edge="1">
                    <mxGeometry relative="1" as="geometry"/>
                </mxCell>
                <mxCell id="sLWAIpHt156A45maYdf0-94" value="" style="rounded=0;whiteSpace=wrap;html=1;" parent="1" vertex="1">
                    <mxGeometry x="450" y="-485" width="20" height="30" as="geometry"/>
                </mxCell>
                <mxCell id="sLWAIpHt156A45maYdf0-95" value="[DELAY]" style="rounded=0;whiteSpace=wrap;html=1;" parent="1" vertex="1">
                    <mxGeometry x="315" y="-490" width="90" height="40" as="geometry"/>
                </mxCell>
                <mxCell id="sLWAIpHt156A45maYdf0-96" style="edgeStyle=orthogonalEdgeStyle;rounded=0;orthogonalLoop=1;jettySize=auto;html=1;exitX=1;exitY=0.5;exitDx=0;exitDy=0;entryX=0;entryY=0.5;entryDx=0;entryDy=0;strokeWidth=2;" parent="1" edge="1">
                    <mxGeometry relative="1" as="geometry">
                        <mxPoint x="230" y="-470.1700000000001" as="sourcePoint"/>
                        <mxPoint x="250" y="-470.1700000000001" as="targetPoint"/>
                    </mxGeometry>
                </mxCell>
                <mxCell id="sLWAIpHt156A45maYdf0-97" style="edgeStyle=orthogonalEdgeStyle;rounded=0;orthogonalLoop=1;jettySize=auto;html=1;exitX=1;exitY=0.5;exitDx=0;exitDy=0;entryX=0;entryY=0.5;entryDx=0;entryDy=0;strokeWidth=2;" parent="1" edge="1">
                    <mxGeometry relative="1" as="geometry">
                        <mxPoint x="230" y="-470.10000000000014" as="sourcePoint"/>
                        <mxPoint x="250" y="-470.10000000000014" as="targetPoint"/>
                    </mxGeometry>
                </mxCell>
                <mxCell id="sLWAIpHt156A45maYdf0-104" style="edgeStyle=orthogonalEdgeStyle;rounded=0;orthogonalLoop=1;jettySize=auto;html=1;exitX=1;exitY=0.5;exitDx=0;exitDy=0;entryX=0;entryY=0.5;entryDx=0;entryDy=0;strokeWidth=2;" parent="1" source="sLWAIpHt156A45maYdf0-106" target="sLWAIpHt156A45maYdf0-108" edge="1">
                    <mxGeometry relative="1" as="geometry"/>
                </mxCell>
                <mxCell id="sLWAIpHt156A45maYdf0-105" style="edgeStyle=orthogonalEdgeStyle;rounded=0;orthogonalLoop=1;jettySize=auto;html=1;exitX=0;exitY=0.5;exitDx=0;exitDy=0;entryX=0;entryY=0.145;entryDx=0;entryDy=0;entryPerimeter=0;endArrow=none;endFill=0;strokeWidth=2;" parent="1" source="sLWAIpHt156A45maYdf0-106" edge="1">
                    <mxGeometry relative="1" as="geometry">
                        <mxPoint x="190" y="-409.89999999999986" as="targetPoint"/>
                    </mxGeometry>
                </mxCell>
                <mxCell id="sLWAIpHt156A45maYdf0-106" value="" style="rounded=0;whiteSpace=wrap;html=1;" parent="1" vertex="1">
                    <mxGeometry x="210" y="-425" width="20" height="30" as="geometry"/>
                </mxCell>
                <mxCell id="sLWAIpHt156A45maYdf0-107" style="edgeStyle=orthogonalEdgeStyle;rounded=0;orthogonalLoop=1;jettySize=auto;html=1;exitX=1;exitY=0.5;exitDx=0;exitDy=0;entryX=0;entryY=0.5;entryDx=0;entryDy=0;strokeWidth=2;" parent="1" source="sLWAIpHt156A45maYdf0-108" target="sLWAIpHt156A45maYdf0-113" edge="1">
                    <mxGeometry relative="1" as="geometry"/>
                </mxCell>
                <mxCell id="sLWAIpHt156A45maYdf0-108" value="" style="rounded=0;whiteSpace=wrap;html=1;" parent="1" vertex="1">
                    <mxGeometry x="250" y="-425" width="20" height="30" as="geometry"/>
                </mxCell>
                <mxCell id="sLWAIpHt156A45maYdf0-109" value="" style="rounded=0;whiteSpace=wrap;html=1;" parent="1" vertex="1">
                    <mxGeometry x="350" y="-425" width="20" height="30" as="geometry"/>
                </mxCell>
                <mxCell id="sLWAIpHt156A45maYdf0-110" style="edgeStyle=orthogonalEdgeStyle;rounded=0;orthogonalLoop=1;jettySize=auto;html=1;exitX=1;exitY=0.5;exitDx=0;exitDy=0;entryX=0;entryY=0.4;entryDx=0;entryDy=0;entryPerimeter=0;strokeWidth=2;endArrow=none;endFill=0;" parent="1" source="sLWAIpHt156A45maYdf0-111" target="sLWAIpHt156A45maYdf0-150" edge="1">
                    <mxGeometry relative="1" as="geometry">
                        <mxPoint x="530" y="-409.89999999999986" as="targetPoint"/>
                    </mxGeometry>
                </mxCell>
                <mxCell id="sLWAIpHt156A45maYdf0-111" value="" style="rounded=0;whiteSpace=wrap;html=1;" parent="1" vertex="1">
                    <mxGeometry x="490" y="-425" width="20" height="30" as="geometry"/>
                </mxCell>
                <mxCell id="sLWAIpHt156A45maYdf0-112" style="edgeStyle=orthogonalEdgeStyle;rounded=0;orthogonalLoop=1;jettySize=auto;html=1;exitX=1;exitY=0.5;exitDx=0;exitDy=0;entryX=0;entryY=0.5;entryDx=0;entryDy=0;strokeWidth=2;" parent="1" source="sLWAIpHt156A45maYdf0-113" target="sLWAIpHt156A45maYdf0-111" edge="1">
                    <mxGeometry relative="1" as="geometry"/>
                </mxCell>
                <mxCell id="sLWAIpHt156A45maYdf0-113" value="" style="rounded=0;whiteSpace=wrap;html=1;" parent="1" vertex="1">
                    <mxGeometry x="450" y="-425" width="20" height="30" as="geometry"/>
                </mxCell>
                <mxCell id="sLWAIpHt156A45maYdf0-114" value="[DELAY]" style="rounded=0;whiteSpace=wrap;html=1;" parent="1" vertex="1">
                    <mxGeometry x="315" y="-430" width="90" height="40" as="geometry"/>
                </mxCell>
                <mxCell id="sLWAIpHt156A45maYdf0-115" style="edgeStyle=orthogonalEdgeStyle;rounded=0;orthogonalLoop=1;jettySize=auto;html=1;exitX=1;exitY=0.5;exitDx=0;exitDy=0;entryX=0;entryY=0.5;entryDx=0;entryDy=0;strokeWidth=2;" parent="1" edge="1">
                    <mxGeometry relative="1" as="geometry">
                        <mxPoint x="230" y="-410.1700000000001" as="sourcePoint"/>
                        <mxPoint x="250" y="-410.1700000000001" as="targetPoint"/>
                    </mxGeometry>
                </mxCell>
                <mxCell id="sLWAIpHt156A45maYdf0-116" style="edgeStyle=orthogonalEdgeStyle;rounded=0;orthogonalLoop=1;jettySize=auto;html=1;exitX=1;exitY=0.5;exitDx=0;exitDy=0;entryX=0;entryY=0.5;entryDx=0;entryDy=0;strokeWidth=2;" parent="1" edge="1">
                    <mxGeometry relative="1" as="geometry">
                        <mxPoint x="230" y="-410.10000000000014" as="sourcePoint"/>
                        <mxPoint x="250" y="-410.10000000000014" as="targetPoint"/>
                    </mxGeometry>
                </mxCell>
                <mxCell id="sLWAIpHt156A45maYdf0-117" style="edgeStyle=orthogonalEdgeStyle;rounded=0;orthogonalLoop=1;jettySize=auto;html=1;exitX=1;exitY=0.5;exitDx=0;exitDy=0;entryX=0;entryY=0.5;entryDx=0;entryDy=0;strokeWidth=2;" parent="1" source="sLWAIpHt156A45maYdf0-119" target="sLWAIpHt156A45maYdf0-121" edge="1">
                    <mxGeometry relative="1" as="geometry"/>
                </mxCell>
                <mxCell id="sLWAIpHt156A45maYdf0-118" style="edgeStyle=orthogonalEdgeStyle;rounded=0;orthogonalLoop=1;jettySize=auto;html=1;exitX=0;exitY=0.5;exitDx=0;exitDy=0;entryX=0;entryY=0.145;entryDx=0;entryDy=0;entryPerimeter=0;endArrow=none;endFill=0;strokeWidth=2;" parent="1" source="sLWAIpHt156A45maYdf0-119" edge="1">
                    <mxGeometry relative="1" as="geometry">
                        <mxPoint x="190" y="-349.89999999999986" as="targetPoint"/>
                    </mxGeometry>
                </mxCell>
                <mxCell id="sLWAIpHt156A45maYdf0-119" value="" style="rounded=0;whiteSpace=wrap;html=1;" parent="1" vertex="1">
                    <mxGeometry x="210" y="-365" width="20" height="30" as="geometry"/>
                </mxCell>
                <mxCell id="sLWAIpHt156A45maYdf0-120" style="edgeStyle=orthogonalEdgeStyle;rounded=0;orthogonalLoop=1;jettySize=auto;html=1;exitX=1;exitY=0.5;exitDx=0;exitDy=0;entryX=0;entryY=0.5;entryDx=0;entryDy=0;strokeWidth=2;" parent="1" source="sLWAIpHt156A45maYdf0-121" target="sLWAIpHt156A45maYdf0-126" edge="1">
                    <mxGeometry relative="1" as="geometry"/>
                </mxCell>
                <mxCell id="sLWAIpHt156A45maYdf0-121" value="" style="rounded=0;whiteSpace=wrap;html=1;" parent="1" vertex="1">
                    <mxGeometry x="250" y="-365" width="20" height="30" as="geometry"/>
                </mxCell>
                <mxCell id="sLWAIpHt156A45maYdf0-122" value="" style="rounded=0;whiteSpace=wrap;html=1;" parent="1" vertex="1">
                    <mxGeometry x="350" y="-365" width="20" height="30" as="geometry"/>
                </mxCell>
                <mxCell id="sLWAIpHt156A45maYdf0-123" style="edgeStyle=orthogonalEdgeStyle;rounded=0;orthogonalLoop=1;jettySize=auto;html=1;exitX=1;exitY=0.5;exitDx=0;exitDy=0;strokeWidth=2;endArrow=none;endFill=0;" parent="1" source="sLWAIpHt156A45maYdf0-124" target="sLWAIpHt156A45maYdf0-150" edge="1">
                    <mxGeometry relative="1" as="geometry">
                        <mxPoint x="530" y="-349.89999999999986" as="targetPoint"/>
                    </mxGeometry>
                </mxCell>
                <mxCell id="sLWAIpHt156A45maYdf0-124" value="" style="rounded=0;whiteSpace=wrap;html=1;" parent="1" vertex="1">
                    <mxGeometry x="490" y="-365" width="20" height="30" as="geometry"/>
                </mxCell>
                <mxCell id="sLWAIpHt156A45maYdf0-125" style="edgeStyle=orthogonalEdgeStyle;rounded=0;orthogonalLoop=1;jettySize=auto;html=1;exitX=1;exitY=0.5;exitDx=0;exitDy=0;entryX=0;entryY=0.5;entryDx=0;entryDy=0;strokeWidth=2;" parent="1" source="sLWAIpHt156A45maYdf0-126" target="sLWAIpHt156A45maYdf0-124" edge="1">
                    <mxGeometry relative="1" as="geometry"/>
                </mxCell>
                <mxCell id="sLWAIpHt156A45maYdf0-126" value="" style="rounded=0;whiteSpace=wrap;html=1;" parent="1" vertex="1">
                    <mxGeometry x="450" y="-365" width="20" height="30" as="geometry"/>
                </mxCell>
                <mxCell id="sLWAIpHt156A45maYdf0-127" value="[DELAY]" style="rounded=0;whiteSpace=wrap;html=1;" parent="1" vertex="1">
                    <mxGeometry x="315" y="-370" width="90" height="40" as="geometry"/>
                </mxCell>
                <mxCell id="sLWAIpHt156A45maYdf0-128" style="edgeStyle=orthogonalEdgeStyle;rounded=0;orthogonalLoop=1;jettySize=auto;html=1;exitX=1;exitY=0.5;exitDx=0;exitDy=0;entryX=0;entryY=0.5;entryDx=0;entryDy=0;strokeWidth=2;" parent="1" edge="1">
                    <mxGeometry relative="1" as="geometry">
                        <mxPoint x="230" y="-350.1700000000001" as="sourcePoint"/>
                        <mxPoint x="250" y="-350.1700000000001" as="targetPoint"/>
                    </mxGeometry>
                </mxCell>
                <mxCell id="sLWAIpHt156A45maYdf0-129" style="edgeStyle=orthogonalEdgeStyle;rounded=0;orthogonalLoop=1;jettySize=auto;html=1;exitX=1;exitY=0.5;exitDx=0;exitDy=0;entryX=0;entryY=0.5;entryDx=0;entryDy=0;strokeWidth=2;" parent="1" edge="1">
                    <mxGeometry relative="1" as="geometry">
                        <mxPoint x="230" y="-350.10000000000014" as="sourcePoint"/>
                        <mxPoint x="250" y="-350.10000000000014" as="targetPoint"/>
                    </mxGeometry>
                </mxCell>
                <mxCell id="sLWAIpHt156A45maYdf0-144" style="edgeStyle=orthogonalEdgeStyle;rounded=0;orthogonalLoop=1;jettySize=auto;html=1;exitX=0;exitY=0.5;exitDx=0;exitDy=0;endArrow=none;endFill=0;strokeWidth=2;fillColor=#f8cecc;strokeColor=#b85450;" parent="1" source="sLWAIpHt156A45maYdf0-143" edge="1">
                    <mxGeometry relative="1" as="geometry">
                        <mxPoint x="90" y="-600" as="targetPoint"/>
                        <Array as="points">
                            <mxPoint x="218" y="-600"/>
                            <mxPoint x="130" y="-600"/>
                        </Array>
                    </mxGeometry>
                </mxCell>
                <mxCell id="sLWAIpHt156A45maYdf0-143" value="" style="triangle;whiteSpace=wrap;html=1;rotation=90;" parent="1" vertex="1">
                    <mxGeometry x="207.5" y="-582.5" width="20" height="25" as="geometry"/>
                </mxCell>
                <mxCell id="sLWAIpHt156A45maYdf0-146" value="ADDR" style="text;html=1;strokeColor=none;fillColor=none;align=center;verticalAlign=middle;whiteSpace=wrap;rounded=0;" parent="1" vertex="1">
                    <mxGeometry x="130" y="-490" width="60" height="40" as="geometry"/>
                </mxCell>
                <mxCell id="sLWAIpHt156A45maYdf0-147" value="DIN" style="text;html=1;strokeColor=none;fillColor=none;align=center;verticalAlign=middle;whiteSpace=wrap;rounded=0;" parent="1" vertex="1">
                    <mxGeometry x="130" y="-545" width="60" height="40" as="geometry"/>
                </mxCell>
                <mxCell id="sLWAIpHt156A45maYdf0-148" value="WR" style="text;html=1;strokeColor=none;fillColor=none;align=center;verticalAlign=middle;whiteSpace=wrap;rounded=0;" parent="1" vertex="1">
                    <mxGeometry x="130" y="-430" width="60" height="40" as="geometry"/>
                </mxCell>
                <mxCell id="sLWAIpHt156A45maYdf0-149" value="RST" style="text;html=1;strokeColor=none;fillColor=none;align=center;verticalAlign=middle;whiteSpace=wrap;rounded=0;" parent="1" vertex="1">
                    <mxGeometry x="130" y="-370" width="60" height="40" as="geometry"/>
                </mxCell>
                <mxCell id="sLWAIpHt156A45maYdf0-150" value="BRAM&lt;br&gt;SINGLE PORT" style="rounded=0;whiteSpace=wrap;html=1;" parent="1" vertex="1">
                    <mxGeometry x="722.5" y="-650" width="280" height="600" as="geometry"/>
                </mxCell>
                <mxCell id="sLWAIpHt156A45maYdf0-158" style="edgeStyle=orthogonalEdgeStyle;rounded=0;orthogonalLoop=1;jettySize=auto;html=1;exitX=0;exitY=0.5;exitDx=0;exitDy=0;entryX=1;entryY=0.5;entryDx=0;entryDy=0;endArrow=classic;endFill=1;strokeWidth=2;" parent="1" source="sLWAIpHt156A45maYdf0-152" target="sLWAIpHt156A45maYdf0-153" edge="1">
                    <mxGeometry relative="1" as="geometry"/>
                </mxCell>
                <mxCell id="sLWAIpHt156A45maYdf0-152" value="" style="rounded=0;whiteSpace=wrap;html=1;" parent="1" vertex="1">
                    <mxGeometry x="250" y="-305" width="20" height="30" as="geometry"/>
                </mxCell>
                <mxCell id="sLWAIpHt156A45maYdf0-159" style="edgeStyle=orthogonalEdgeStyle;rounded=0;orthogonalLoop=1;jettySize=auto;html=1;exitX=0;exitY=0.5;exitDx=0;exitDy=0;entryX=0;entryY=0.879;entryDx=0;entryDy=0;entryPerimeter=0;endArrow=none;endFill=0;strokeWidth=2;" parent="1" source="sLWAIpHt156A45maYdf0-153" target="sLWAIpHt156A45maYdf0-55" edge="1">
                    <mxGeometry relative="1" as="geometry"/>
                </mxCell>
                <mxCell id="sLWAIpHt156A45maYdf0-153" value="" style="rounded=0;whiteSpace=wrap;html=1;" parent="1" vertex="1">
                    <mxGeometry x="210" y="-305" width="20" height="30" as="geometry"/>
                </mxCell>
                <mxCell id="sLWAIpHt156A45maYdf0-157" style="edgeStyle=orthogonalEdgeStyle;rounded=0;orthogonalLoop=1;jettySize=auto;html=1;exitX=0;exitY=0.5;exitDx=0;exitDy=0;entryX=1;entryY=0.5;entryDx=0;entryDy=0;endArrow=classic;endFill=1;strokeWidth=2;" parent="1" source="sLWAIpHt156A45maYdf0-154" target="sLWAIpHt156A45maYdf0-152" edge="1">
                    <mxGeometry relative="1" as="geometry"/>
                </mxCell>
                <mxCell id="sLWAIpHt156A45maYdf0-154" value="" style="rounded=0;whiteSpace=wrap;html=1;" parent="1" vertex="1">
                    <mxGeometry x="450" y="-305" width="20" height="30" as="geometry"/>
                </mxCell>
                <mxCell id="sLWAIpHt156A45maYdf0-156" style="edgeStyle=orthogonalEdgeStyle;rounded=0;orthogonalLoop=1;jettySize=auto;html=1;exitX=0;exitY=0.5;exitDx=0;exitDy=0;entryX=1;entryY=0.5;entryDx=0;entryDy=0;endArrow=classic;endFill=1;strokeWidth=2;" parent="1" source="sLWAIpHt156A45maYdf0-155" target="sLWAIpHt156A45maYdf0-154" edge="1">
                    <mxGeometry relative="1" as="geometry"/>
                </mxCell>
                <mxCell id="sLWAIpHt156A45maYdf0-160" style="edgeStyle=orthogonalEdgeStyle;rounded=0;orthogonalLoop=1;jettySize=auto;html=1;exitX=1;exitY=0.5;exitDx=0;exitDy=0;entryX=0;entryY=0.6;entryDx=0;entryDy=0;entryPerimeter=0;endArrow=none;endFill=0;strokeWidth=2;" parent="1" source="sLWAIpHt156A45maYdf0-155" target="sLWAIpHt156A45maYdf0-150" edge="1">
                    <mxGeometry relative="1" as="geometry"/>
                </mxCell>
                <mxCell id="sLWAIpHt156A45maYdf0-155" value="" style="rounded=0;whiteSpace=wrap;html=1;" parent="1" vertex="1">
                    <mxGeometry x="490" y="-305" width="20" height="30" as="geometry"/>
                </mxCell>
                <mxCell id="sLWAIpHt156A45maYdf0-151" value="[DELAY]" style="rounded=0;whiteSpace=wrap;html=1;" parent="1" vertex="1">
                    <mxGeometry x="315" y="-310" width="90" height="40" as="geometry"/>
                </mxCell>
                <mxCell id="sLWAIpHt156A45maYdf0-161" value="DOUT" style="text;html=1;strokeColor=none;fillColor=none;align=center;verticalAlign=middle;whiteSpace=wrap;rounded=0;" parent="1" vertex="1">
                    <mxGeometry x="140" y="-300" width="40" height="20" as="geometry"/>
                </mxCell>
                <mxCell id="sLWAIpHt156A45maYdf0-162" value="QUALI DI QUESTI INPUT HANNO IL DELAY" style="text;html=1;strokeColor=none;fillColor=none;align=center;verticalAlign=middle;whiteSpace=wrap;rounded=0;" parent="1" vertex="1">
                    <mxGeometry x="80" y="-370" width="40" height="20" as="geometry"/>
                </mxCell>
                <mxCell id="y5mTM7t5K1WfnvU4cUye-13" value="&lt;table border=&quot;1&quot; width=&quot;100%&quot; style=&quot;width: 100% ; height: 100% ; border-collapse: collapse&quot;&gt;&lt;tbody&gt;&lt;tr&gt;&lt;td&gt;&lt;br&gt;&lt;/td&gt;&lt;td&gt;POWER APPROXIMATION&lt;/td&gt;&lt;td&gt;&lt;br&gt;&lt;/td&gt;&lt;/tr&gt;&lt;tr&gt;&lt;td&gt;Input&lt;/td&gt;&lt;td&gt;generic&lt;/td&gt;&lt;td&gt;Output&lt;/td&gt;&lt;/tr&gt;&lt;tr&gt;&lt;td&gt;PWR_STATES: STD_LOGIC_VECTOR ((NUM_PWR_STATES -1) DOWNTO 0);&lt;/td&gt;&lt;td&gt;NUM_PWR_STATES&amp;nbsp; : integer&lt;/td&gt;&lt;td&gt;PWR_APROX: INTEGER&lt;/td&gt;&lt;/tr&gt;&lt;tr&gt;&lt;td&gt;&lt;br&gt;&lt;/td&gt;&lt;td&gt;POWER_STAES_ARR is array ((NUM_POWER_STATES-1) DOWNTO 0) OF INTEGER&lt;/td&gt;&lt;td&gt;&lt;br&gt;&lt;/td&gt;&lt;/tr&gt;&lt;/tbody&gt;&lt;/table&gt;" style="text;html=1;strokeColor=#000000;fillColor=none;overflow=fill;align=center;strokeWidth=2;" parent="1" vertex="1">
                    <mxGeometry x="1370" y="460" width="1095" height="420" as="geometry"/>
                </mxCell>
                <mxCell id="y5mTM7t5K1WfnvU4cUye-72" value="" style="group;fillColor=#f5f5f5;strokeColor=#666666;fontColor=#333333;" parent="1" vertex="1" connectable="0">
                    <mxGeometry x="330" y="80" width="800" height="610" as="geometry"/>
                </mxCell>
                <mxCell id="y5mTM7t5K1WfnvU4cUye-68" value="" style="group;fillColor=#f5f5f5;strokeColor=#666666;fontColor=#333333;" parent="y5mTM7t5K1WfnvU4cUye-72" vertex="1" connectable="0">
                    <mxGeometry width="800" height="610" as="geometry"/>
                </mxCell>
                <mxCell id="y5mTM7t5K1WfnvU4cUye-33" value="" style="group" parent="y5mTM7t5K1WfnvU4cUye-68" vertex="1" connectable="0">
                    <mxGeometry width="800" height="610" as="geometry"/>
                </mxCell>
                <mxCell id="y5mTM7t5K1WfnvU4cUye-22" value="" style="group" parent="y5mTM7t5K1WfnvU4cUye-33" vertex="1" connectable="0">
                    <mxGeometry width="800" height="610" as="geometry"/>
                </mxCell>
                <mxCell id="y5mTM7t5K1WfnvU4cUye-18" value="" style="rounded=0;whiteSpace=wrap;html=1;" parent="y5mTM7t5K1WfnvU4cUye-22" vertex="1">
                    <mxGeometry width="800" height="610" as="geometry"/>
                </mxCell>
                <mxCell id="y5mTM7t5K1WfnvU4cUye-24" style="edgeStyle=orthogonalEdgeStyle;rounded=0;orthogonalLoop=1;jettySize=auto;html=1;exitX=0.5;exitY=0;exitDx=0;exitDy=0;entryX=0.146;entryY=0.997;entryDx=0;entryDy=0;strokeWidth=3;entryPerimeter=0;" parent="y5mTM7t5K1WfnvU4cUye-22" source="sLWAIpHt156A45maYdf0-163" target="y5mTM7t5K1WfnvU4cUye-23" edge="1">
                    <mxGeometry relative="1" as="geometry">
                        <Array as="points">
                            <mxPoint x="708" y="30"/>
                            <mxPoint x="310" y="30"/>
                            <mxPoint x="310" y="130"/>
                            <mxPoint x="340" y="130"/>
                        </Array>
                    </mxGeometry>
                </mxCell>
                <mxCell id="sLWAIpHt156A45maYdf0-163" value="P&lt;br&gt;W&lt;br&gt;R&lt;br&gt;&lt;br&gt;A&lt;br&gt;P&lt;br&gt;R&lt;br&gt;O&lt;br&gt;X&lt;br&gt;&lt;br&gt;R&lt;br&gt;E&lt;br&gt;G" style="rounded=0;whiteSpace=wrap;html=1;strokeWidth=2;fillColor=#008a00;strokeColor=#005700;fontColor=#ffffff;" parent="y5mTM7t5K1WfnvU4cUye-22" vertex="1">
                    <mxGeometry x="667.5" y="50" width="80" height="460" as="geometry"/>
                </mxCell>
                <mxCell id="y5mTM7t5K1WfnvU4cUye-69" style="edgeStyle=orthogonalEdgeStyle;rounded=0;orthogonalLoop=1;jettySize=auto;html=1;exitX=0.5;exitY=0;exitDx=0;exitDy=0;entryX=0.009;entryY=0.493;entryDx=0;entryDy=0;entryPerimeter=0;" parent="y5mTM7t5K1WfnvU4cUye-22" source="y5mTM7t5K1WfnvU4cUye-23" target="sLWAIpHt156A45maYdf0-163" edge="1">
                    <mxGeometry relative="1" as="geometry"/>
                </mxCell>
                <mxCell id="y5mTM7t5K1WfnvU4cUye-23" value="SUM" style="shape=trapezoid;perimeter=trapezoidPerimeter;whiteSpace=wrap;html=1;direction=south;" parent="y5mTM7t5K1WfnvU4cUye-22" vertex="1">
                    <mxGeometry x="490" y="70" width="60" height="410" as="geometry"/>
                </mxCell>
                <mxCell id="y5mTM7t5K1WfnvU4cUye-32" style="edgeStyle=orthogonalEdgeStyle;rounded=0;orthogonalLoop=1;jettySize=auto;html=1;exitX=1;exitY=0.5;exitDx=0;exitDy=0;exitPerimeter=0;entryX=0.25;entryY=1;entryDx=0;entryDy=0;" parent="y5mTM7t5K1WfnvU4cUye-22" source="sLWAIpHt156A45maYdf0-168" target="y5mTM7t5K1WfnvU4cUye-23" edge="1">
                    <mxGeometry relative="1" as="geometry"/>
                </mxCell>
                <mxCell id="sLWAIpHt156A45maYdf0-168" value="&lt;span style=&quot;font-family: monospace ; font-size: 0px&quot;&gt;%3CmxGraphModel%3E%3Croot%3E%3CmxCell%20id%3D%220%22%2F%3E%3CmxCell%20id%3D%221%22%20parent%3D%220%22%2F%3E%3CmxCell%20id%3D%222%22%20value%3D%22%22%20style%3D%22group%22%20vertex%3D%221%22%20connectable%3D%220%22%20parent%3D%221%22%3E%3CmxGeometry%20x%3D%22330%22%20y%3D%22780%22%20width%3D%22800%22%20height%3D%22610%22%20as%3D%22geometry%22%2F%3E%3C%2FmxCell%3E%3CmxCell%20id%3D%223%22%20value%3D%22%22%20style%3D%22group%22%20vertex%3D%221%22%20connectable%3D%220%22%20parent%3D%222%22%3E%3CmxGeometry%20width%3D%22800%22%20height%3D%22610%22%20as%3D%22geometry%22%2F%3E%3C%2FmxCell%3E%3CmxCell%20id%3D%224%22%20value%3D%22FF_val%20%2B%26amp%3Bnbsp%3B%26lt%3Bbr%26gt%3B(pwr_state(0)%20%26amp%3Bamp%3B%20power_state_arr(0))%20%2B%26lt%3Bbr%26gt%3B(pwr_state(1)%20%26amp%3Bamp%3B%20power_state_arr(1))%20%2B%26amp%3Bnbsp%3B%26lt%3Bbr%26gt%3B...%26lt%3Bbr%26gt%3B(pwr_state(%26lt%3Bspan%26gt%3BNUM_PWR_STATES%20-1)%20%26amp%3Bamp%3B%20power_state_arr(NUM_PWR_STATES-1))%26lt%3B%2Fspan%26gt%3B%22%20style%3D%22rounded%3D0%3BwhiteSpace%3Dwrap%3Bhtml%3D1%3B%22%20vertex%3D%221%22%20parent%3D%223%22%3E%3CmxGeometry%20width%3D%22800%22%20height%3D%22610%22%20as%3D%22geometry%22%2F%3E%3C%2FmxCell%3E%3CmxCell%20id%3D%225%22%20style%3D%22edgeStyle%3DorthogonalEdgeStyle%3Brounded%3D0%3BorthogonalLoop%3D1%3BjettySize%3Dauto%3Bhtml%3D1%3BexitX%3D0.5%3BexitY%3D0%3BexitDx%3D0%3BexitDy%3D0%3BentryX%3D0.25%3BentryY%3D1%3BentryDx%3D0%3BentryDy%3D0%3BstrokeWidth%3D3%3B%22%20edge%3D%221%22%20parent%3D%223%22%20source%3D%226%22%20target%3D%227%22%3E%3CmxGeometry%20relative%3D%221%22%20as%3D%22geometry%22%3E%3CArray%20as%3D%22points%22%3E%3CmxPoint%20x%3D%22708%22%20y%3D%2230%22%2F%3E%3CmxPoint%20x%3D%22350%22%20y%3D%2230%22%2F%3E%3CmxPoint%20x%3D%22350%22%20y%3D%22110%22%2F%3E%3C%2FArray%3E%3C%2FmxGeometry%3E%3C%2FmxCell%3E%3CmxCell%20id%3D%226%22%20value%3D%22P%26lt%3Bbr%26gt%3BW%26lt%3Bbr%26gt%3BR%26lt%3Bbr%26gt%3B%26lt%3Bbr%26gt%3BA%26lt%3Bbr%26gt%3BP%26lt%3Bbr%26gt%3BR%26lt%3Bbr%26gt%3BO%26lt%3Bbr%26gt%3BX%26lt%3Bbr%26gt%3B%26lt%3Bbr%26gt%3BR%26lt%3Bbr%26gt%3BE%26lt%3Bbr%26gt%3BG%22%20style%3D%22rounded%3D0%3BwhiteSpace%3Dwrap%3Bhtml%3D1%3BstrokeColor%3D%2382b366%3BstrokeWidth%3D2%3BfillColor%3D%23d5e8d4%3B%22%20vertex%3D%221%22%20parent%3D%223%22%3E%3CmxGeometry%20x%3D%22667.5%22%20y%3D%2250%22%20width%3D%2280%22%20height%3D%22460%22%20as%3D%22geometry%22%2F%3E%3C%2FmxCell%3E%3CmxCell%20id%3D%227%22%20value%3D%22SUM%22%20style%3D%22shape%3Dtrapezoid%3Bperimeter%3DtrapezoidPerimeter%3BwhiteSpace%3Dwrap%3Bhtml%3D1%3Bdirection%3Dsouth%3B%22%20vertex%3D%221%22%20parent%3D%223%22%3E%3CmxGeometry%20x%3D%22370%22%20y%3D%2270%22%20width%3D%2260%22%20height%3D%22160%22%20as%3D%22geometry%22%2F%3E%3C%2FmxCell%3E%3CmxCell%20id%3D%228%22%20style%3D%22edgeStyle%3DorthogonalEdgeStyle%3Brounded%3D0%3BorthogonalLoop%3D1%3BjettySize%3Dauto%3Bhtml%3D1%3BexitX%3D1%3BexitY%3D0.5%3BexitDx%3D0%3BexitDy%3D0%3BexitPerimeter%3D0%3BentryX%3D0.5%3BentryY%3D1%3BentryDx%3D0%3BentryDy%3D0%3B%22%20edge%3D%221%22%20parent%3D%223%22%20source%3D%229%22%20target%3D%227%22%3E%3CmxGeometry%20relative%3D%221%22%20as%3D%22geometry%22%2F%3E%3C%2FmxCell%3E%3CmxCell%20id%3D%229%22%20value%3D%22%22%20style%3D%22shape%3Dor%3BwhiteSpace%3Dwrap%3Bhtml%3D1%3BstrokeColor%3D%23000000%3BstrokeWidth%3D2%3B%22%20vertex%3D%221%22%20parent%3D%223%22%3E%3CmxGeometry%20x%3D%22170%22%20y%3D%22120%22%20width%3D%2260%22%20height%3D%2260%22%20as%3D%22geometry%22%2F%3E%3C%2FmxCell%3E%3CmxCell%20id%3D%2210%22%20value%3D%22%22%20style%3D%22endArrow%3Dnone%3Bhtml%3D1%3BentryX%3D0%3BentryY%3D0.25%3BentryDx%3D0%3BentryDy%3D0%3BentryPerimeter%3D0%3B%22%20edge%3D%221%22%20parent%3D%223%22%20target%3D%229%22%3E%3CmxGeometry%20width%3D%2250%22%20height%3D%2250%22%20relative%3D%221%22%20as%3D%22geometry%22%3E%3CmxPoint%20x%3D%22130%22%20y%3D%22135%22%20as%3D%22sourcePoint%22%2F%3E%3CmxPoint%20x%3D%22120%22%20y%3D%22100%22%20as%3D%22targetPoint%22%2F%3E%3C%2FmxGeometry%3E%3C%2FmxCell%3E%3CmxCell%20id%3D%2211%22%20value%3D%22%22%20style%3D%22endArrow%3Dnone%3Bhtml%3D1%3BentryX%3D0%3BentryY%3D0.75%3BentryDx%3D0%3BentryDy%3D0%3BentryPerimeter%3D0%3BexitX%3D0.163%3BexitY%3D0.27%3BexitDx%3D0%3BexitDy%3D0%3BexitPerimeter%3D0%3B%22%20edge%3D%221%22%20parent%3D%223%22%20source%3D%224%22%20target%3D%229%22%3E%3CmxGeometry%20width%3D%2250%22%20height%3D%2250%22%20relative%3D%221%22%20as%3D%22geometry%22%3E%3CmxPoint%20x%3D%22140%22%20y%3D%22143%22%20as%3D%22sourcePoint%22%2F%3E%3CmxPoint%20x%3D%22170%22%20y%3D%22140%22%20as%3D%22targetPoint%22%2F%3E%3C%2FmxGeometry%3E%3C%2FmxCell%3E%3CmxCell%20id%3D%2212%22%20value%3D%22pwr_state(0)%22%20style%3D%22text%3Bhtml%3D1%3BstrokeColor%3Dnone%3BfillColor%3Dnone%3Balign%3Dcenter%3BverticalAlign%3Dmiddle%3BwhiteSpace%3Dwrap%3Brounded%3D0%3B%22%20vertex%3D%221%22%20parent%3D%223%22%3E%3CmxGeometry%20x%3D%2270%22%20y%3D%22120%22%20width%3D%2240%22%20height%3D%2220%22%20as%3D%22geometry%22%2F%3E%3C%2FmxCell%3E%3CmxCell%20id%3D%2213%22%20value%3D%22%26lt%3Bmeta%20http-equiv%3D%26quot%3Bcontent-type%26quot%3B%20content%3D%26quot%3Btext%2Fhtml%3B%20charset%3Dutf-8%26quot%3B%26gt%3B%26lt%3Bspan%20style%3D%26quot%3Bfont-family%3A%20Helvetica%3B%20font-size%3A%2012px%3B%20font-style%3A%20normal%3B%20font-variant-ligatures%3A%20normal%3B%20font-variant-caps%3A%20normal%3B%20font-weight%3A%20400%3B%20letter-spacing%3A%20normal%3B%20orphans%3A%202%3B%20text-align%3A%20center%3B%20text-indent%3A%200px%3B%20text-transform%3A%20none%3B%20widows%3A%202%3B%20word-spacing%3A%200px%3B%20-webkit-text-stroke-width%3A%200px%3B%20text-decoration-style%3A%20initial%3B%20text-decoration-color%3A%20initial%3B%20float%3A%20none%3B%20display%3A%20inline%20!important%3B%26quot%3B%26gt%3Bpower_state_arr(0)%26lt%3B%2Fspan%26gt%3B%22%20style%3D%22text%3Bhtml%3D1%3BstrokeColor%3Dnone%3BfillColor%3Dnone%3Balign%3Dcenter%3BverticalAlign%3Dmiddle%3BwhiteSpace%3Dwrap%3Brounded%3D0%3B%22%20vertex%3D%221%22%20parent%3D%223%22%3E%3CmxGeometry%20x%3D%2250%22%20y%3D%22150%22%20width%3D%2240%22%20height%3D%2220%22%20as%3D%22geometry%22%2F%3E%3C%2FmxCell%3E%3CmxCell%20id%3D%2214%22%20style%3D%22edgeStyle%3DorthogonalEdgeStyle%3Brounded%3D0%3BorthogonalLoop%3D1%3BjettySize%3Dauto%3Bhtml%3D1%3BexitX%3D1%3BexitY%3D0.5%3BexitDx%3D0%3BexitDy%3D0%3BendArrow%3Dnone%3BendFill%3D0%3BstrokeWidth%3D4%3B%22%20edge%3D%221%22%20parent%3D%222%22%20source%3D%226%22%3E%3CmxGeometry%20relative%3D%221%22%20as%3D%22geometry%22%3E%3CmxPoint%20x%3D%22710%22%20y%3D%22289.94444444444434%22%20as%3D%22targetPoint%22%2F%3E%3C%2FmxGeometry%3E%3C%2FmxCell%3E%3C%2Froot%3E%3C%2FmxGraphModel%3E&lt;/span&gt;&lt;span style=&quot;font-family: monospace ; font-size: 0px&quot;&gt;%3CmxGraphModel%3E%3Croot%3E%3CmxCell%20id%3D%220%22%2F%3E%3CmxCell%20id%3D%221%22%20parent%3D%220%22%2F%3E%3CmxCell%20id%3D%222%22%20value%3D%22%22%20style%3D%22group%22%20vertex%3D%221%22%20connectable%3D%220%22%20parent%3D%221%22%3E%3CmxGeometry%20x%3D%22330%22%20y%3D%22780%22%20width%3D%22800%22%20height%3D%22610%22%20as%3D%22geometry%22%2F%3E%3C%2FmxCell%3E%3CmxCell%20id%3D%223%22%20value%3D%22%22%20style%3D%22group%22%20vertex%3D%221%22%20connectable%3D%220%22%20parent%3D%222%22%3E%3CmxGeometry%20width%3D%22800%22%20height%3D%22610%22%20as%3D%22geometry%22%2F%3E%3C%2FmxCell%3E%3CmxCell%20id%3D%224%22%20value%3D%22FF_val%20%2B%26amp%3Bnbsp%3B%26lt%3Bbr%26gt%3B(pwr_state(0)%20%26amp%3Bamp%3B%20power_state_arr(0))%20%2B%26lt%3Bbr%26gt%3B(pwr_state(1)%20%26amp%3Bamp%3B%20power_state_arr(1))%20%2B%26amp%3Bnbsp%3B%26lt%3Bbr%26gt%3B...%26lt%3Bbr%26gt%3B(pwr_state(%26lt%3Bspan%26gt%3BNUM_PWR_STATES%20-1)%20%26amp%3Bamp%3B%20power_state_arr(NUM_PWR_STATES-1))%26lt%3B%2Fspan%26gt%3B%22%20style%3D%22rounded%3D0%3BwhiteSpace%3Dwrap%3Bhtml%3D1%3B%22%20vertex%3D%221%22%20parent%3D%223%22%3E%3CmxGeometry%20width%3D%22800%22%20height%3D%22610%22%20as%3D%22geometry%22%2F%3E%3C%2FmxCell%3E%3CmxCell%20id%3D%225%22%20style%3D%22edgeStyle%3DorthogonalEdgeStyle%3Brounded%3D0%3BorthogonalLoop%3D1%3BjettySize%3Dauto%3Bhtml%3D1%3BexitX%3D0.5%3BexitY%3D0%3BexitDx%3D0%3BexitDy%3D0%3BentryX%3D0.25%3BentryY%3D1%3BentryDx%3D0%3BentryDy%3D0%3BstrokeWidth%3D3%3B%22%20edge%3D%221%22%20parent%3D%223%22%20source%3D%226%22%20target%3D%227%22%3E%3CmxGeometry%20relative%3D%221%22%20as%3D%22geometry%22%3E%3CArray%20as%3D%22points%22%3E%3CmxPoint%20x%3D%22708%22%20y%3D%2230%22%2F%3E%3CmxPoint%20x%3D%22350%22%20y%3D%2230%22%2F%3E%3CmxPoint%20x%3D%22350%22%20y%3D%22110%22%2F%3E%3C%2FArray%3E%3C%2FmxGeometry%3E%3C%2FmxCell%3E%3CmxCell%20id%3D%226%22%20value%3D%22P%26lt%3Bbr%26gt%3BW%26lt%3Bbr%26gt%3BR%26lt%3Bbr%26gt%3B%26lt%3Bbr%26gt%3BA%26lt%3Bbr%26gt%3BP%26lt%3Bbr%26gt%3BR%26lt%3Bbr%26gt%3BO%26lt%3Bbr%26gt%3BX%26lt%3Bbr%26gt%3B%26lt%3Bbr%26gt%3BR%26lt%3Bbr%26gt%3BE%26lt%3Bbr%26gt%3BG%22%20style%3D%22rounded%3D0%3BwhiteSpace%3Dwrap%3Bhtml%3D1%3BstrokeColor%3D%2382b366%3BstrokeWidth%3D2%3BfillColor%3D%23d5e8d4%3B%22%20vertex%3D%221%22%20parent%3D%223%22%3E%3CmxGeometry%20x%3D%22667.5%22%20y%3D%2250%22%20width%3D%2280%22%20height%3D%22460%22%20as%3D%22geometry%22%2F%3E%3C%2FmxCell%3E%3CmxCell%20id%3D%227%22%20value%3D%22SUM%22%20style%3D%22shape%3Dtrapezoid%3Bperimeter%3DtrapezoidPerimeter%3BwhiteSpace%3Dwrap%3Bhtml%3D1%3Bdirection%3Dsouth%3B%22%20vertex%3D%221%22%20parent%3D%223%22%3E%3CmxGeometry%20x%3D%22370%22%20y%3D%2270%22%20width%3D%2260%22%20height%3D%22160%22%20as%3D%22geometry%22%2F%3E%3C%2FmxCell%3E%3CmxCell%20id%3D%228%22%20style%3D%22edgeStyle%3DorthogonalEdgeStyle%3Brounded%3D0%3BorthogonalLoop%3D1%3BjettySize%3Dauto%3Bhtml%3D1%3BexitX%3D1%3BexitY%3D0.5%3BexitDx%3D0%3BexitDy%3D0%3BexitPerimeter%3D0%3BentryX%3D0.5%3BentryY%3D1%3BentryDx%3D0%3BentryDy%3D0%3B%22%20edge%3D%221%22%20parent%3D%223%22%20source%3D%229%22%20target%3D%227%22%3E%3CmxGeometry%20relative%3D%221%22%20as%3D%22geometry%22%2F%3E%3C%2FmxCell%3E%3CmxCell%20id%3D%229%22%20value%3D%22%22%20style%3D%22shape%3Dor%3BwhiteSpace%3Dwrap%3Bhtml%3D1%3BstrokeColor%3D%23000000%3BstrokeWidth%3D2%3B%22%20vertex%3D%221%22%20parent%3D%223%22%3E%3CmxGeometry%20x%3D%22170%22%20y%3D%22120%22%20width%3D%2260%22%20height%3D%2260%22%20as%3D%22geometry%22%2F%3E%3C%2FmxCell%3E%3CmxCell%20id%3D%2210%22%20value%3D%22%22%20style%3D%22endArrow%3Dnone%3Bhtml%3D1%3BentryX%3D0%3BentryY%3D0.25%3BentryDx%3D0%3BentryDy%3D0%3BentryPerimeter%3D0%3B%22%20edge%3D%221%22%20parent%3D%223%22%20target%3D%229%22%3E%3CmxGeometry%20width%3D%2250%22%20height%3D%2250%22%20relative%3D%221%22%20as%3D%22geometry%22%3E%3CmxPoint%20x%3D%22130%22%20y%3D%22135%22%20as%3D%22sourcePoint%22%2F%3E%3CmxPoint%20x%3D%22120%22%20y%3D%22100%22%20as%3D%22targetPoint%22%2F%3E%3C%2FmxGeometry%3E%3C%2FmxCell%3E%3CmxCell%20id%3D%2211%22%20value%3D%22%22%20style%3D%22endArrow%3Dnone%3Bhtml%3D1%3BentryX%3D0%3BentryY%3D0.75%3BentryDx%3D0%3BentryDy%3D0%3BentryPerimeter%3D0%3BexitX%3D0.163%3BexitY%3D0.27%3BexitDx%3D0%3BexitDy%3D0%3BexitPerimeter%3D0%3B%22%20edge%3D%221%22%20parent%3D%223%22%20source%3D%224%22%20target%3D%229%22%3E%3CmxGeometry%20width%3D%2250%22%20height%3D%2250%22%20relative%3D%221%22%20as%3D%22geometry%22%3E%3CmxPoint%20x%3D%22140%22%20y%3D%22143%22%20as%3D%22sourcePoint%22%2F%3E%3CmxPoint%20x%3D%22170%22%20y%3D%22140%22%20as%3D%22targetPoint%22%2F%3E%3C%2FmxGeometry%3E%3C%2FmxCell%3E%3CmxCell%20id%3D%2212%22%20value%3D%22pwr_state(0)%22%20style%3D%22text%3Bhtml%3D1%3BstrokeColor%3Dnone%3BfillColor%3Dnone%3Balign%3Dcenter%3BverticalAlign%3Dmiddle%3BwhiteSpace%3Dwrap%3Brounded%3D0%3B%22%20vertex%3D%221%22%20parent%3D%223%22%3E%3CmxGeometry%20x%3D%2270%22%20y%3D%22120%22%20width%3D%2240%22%20height%3D%2220%22%20as%3D%22geometry%22%2F%3E%3C%2FmxCell%3E%3CmxCell%20id%3D%2213%22%20value%3D%22%26lt%3Bmeta%20http-equiv%3D%26quot%3Bcontent-type%26quot%3B%20content%3D%26quot%3Btext%2Fhtml%3B%20charset%3Dutf-8%26quot%3B%26gt%3B%26lt%3Bspan%20style%3D%26quot%3Bfont-family%3A%20Helvetica%3B%20font-size%3A%2012px%3B%20font-style%3A%20normal%3B%20font-variant-ligatures%3A%20normal%3B%20font-variant-caps%3A%20normal%3B%20font-weight%3A%20400%3B%20letter-spacing%3A%20normal%3B%20orphans%3A%202%3B%20text-align%3A%20center%3B%20text-indent%3A%200px%3B%20text-transform%3A%20none%3B%20widows%3A%202%3B%20word-spacing%3A%200px%3B%20-webkit-text-stroke-width%3A%200px%3B%20text-decoration-style%3A%20initial%3B%20text-decoration-color%3A%20initial%3B%20float%3A%20none%3B%20display%3A%20inline%20!important%3B%26quot%3B%26gt%3Bpower_state_arr(0)%26lt%3B%2Fspan%26gt%3B%22%20style%3D%22text%3Bhtml%3D1%3BstrokeColor%3Dnone%3BfillColor%3Dnone%3Balign%3Dcenter%3BverticalAlign%3Dmiddle%3BwhiteSpace%3Dwrap%3Brounded%3D0%3B%22%20vertex%3D%221%22%20parent%3D%223%22%3E%3CmxGeometry%20x%3D%2250%22%20y%3D%22150%22%20width%3D%2240%22%20height%3D%2220%22%20as%3D%22geometry%22%2F%3E%3C%2FmxCell%3E%3CmxCell%20id%3D%2214%22%20style%3D%22edgeStyle%3DorthogonalEdgeStyle%3Brounded%3D0%3BorthogonalLoop%3D1%3BjettySize%3Dauto%3Bhtml%3D1%3BexitX%3D1%3BexitY%3D0.5%3BexitDx%3D0%3BexitDy%3D0%3BendArrow%3Dnone%3BendFill%3D0%3BstrokeWidth%3D4%3B%22%20edge%3D%221%22%20parent%3D%222%22%20source%3D%226%22%3E%3CmxGeometry%20relative%3D%221%22%20as%3D%22geometry%22%3E%3CmxPoint%20x%3D%22710%22%20y%3D%22289.94444444444434%22%20as%3D%22targetPoint%22%2F%3E%3C%2FmxGeometry%3E%3C%2FmxCell%3E%3C%2Froot%3E%3C%2FmxGraphModel%3E&lt;/span&gt;" style="shape=or;whiteSpace=wrap;html=1;strokeColor=#000000;strokeWidth=2;" parent="y5mTM7t5K1WfnvU4cUye-22" vertex="1">
                    <mxGeometry x="190" y="120" width="60" height="60" as="geometry"/>
                </mxCell>
                <mxCell id="y5mTM7t5K1WfnvU4cUye-28" value="" style="endArrow=none;html=1;entryX=0;entryY=0.25;entryDx=0;entryDy=0;entryPerimeter=0;" parent="y5mTM7t5K1WfnvU4cUye-22" target="sLWAIpHt156A45maYdf0-168" edge="1">
                    <mxGeometry width="50" height="50" relative="1" as="geometry">
                        <mxPoint x="130" y="135" as="sourcePoint"/>
                        <mxPoint x="120" y="100" as="targetPoint"/>
                    </mxGeometry>
                </mxCell>
                <mxCell id="y5mTM7t5K1WfnvU4cUye-29" value="" style="endArrow=none;html=1;entryX=0;entryY=0.75;entryDx=0;entryDy=0;entryPerimeter=0;exitX=0.163;exitY=0.27;exitDx=0;exitDy=0;exitPerimeter=0;" parent="y5mTM7t5K1WfnvU4cUye-22" source="y5mTM7t5K1WfnvU4cUye-18" target="sLWAIpHt156A45maYdf0-168" edge="1">
                    <mxGeometry width="50" height="50" relative="1" as="geometry">
                        <mxPoint x="140" y="143" as="sourcePoint"/>
                        <mxPoint x="170" y="140" as="targetPoint"/>
                    </mxGeometry>
                </mxCell>
                <mxCell id="y5mTM7t5K1WfnvU4cUye-30" value="pwr_state(0)" style="text;html=1;strokeColor=none;fillColor=none;align=center;verticalAlign=middle;whiteSpace=wrap;rounded=0;" parent="y5mTM7t5K1WfnvU4cUye-22" vertex="1">
                    <mxGeometry x="70" y="120" width="40" height="20" as="geometry"/>
                </mxCell>
                <mxCell id="y5mTM7t5K1WfnvU4cUye-31" value="&lt;meta http-equiv=&quot;content-type&quot; content=&quot;text/html; charset=utf-8&quot;&gt;&lt;span style=&quot;font-family: Helvetica; font-size: 12px; font-style: normal; font-variant-ligatures: normal; font-variant-caps: normal; font-weight: 400; letter-spacing: normal; orphans: 2; text-align: center; text-indent: 0px; text-transform: none; widows: 2; word-spacing: 0px; -webkit-text-stroke-width: 0px; text-decoration-style: initial; text-decoration-color: initial; float: none; display: inline !important;&quot;&gt;power_state_arr(0)&lt;/span&gt;" style="text;html=1;strokeColor=none;fillColor=none;align=center;verticalAlign=middle;whiteSpace=wrap;rounded=0;" parent="y5mTM7t5K1WfnvU4cUye-22" vertex="1">
                    <mxGeometry x="50" y="150" width="40" height="20" as="geometry"/>
                </mxCell>
                <mxCell id="y5mTM7t5K1WfnvU4cUye-52" style="edgeStyle=orthogonalEdgeStyle;rounded=0;orthogonalLoop=1;jettySize=auto;html=1;exitX=1;exitY=0.5;exitDx=0;exitDy=0;exitPerimeter=0;entryX=0.438;entryY=1.017;entryDx=0;entryDy=0;entryPerimeter=0;" parent="y5mTM7t5K1WfnvU4cUye-22" source="y5mTM7t5K1WfnvU4cUye-47" target="y5mTM7t5K1WfnvU4cUye-23" edge="1">
                    <mxGeometry relative="1" as="geometry"/>
                </mxCell>
                <mxCell id="y5mTM7t5K1WfnvU4cUye-47" value="&lt;span style=&quot;font-family: monospace ; font-size: 0px&quot;&gt;%3CmxGraphModel%3E%3Croot%3E%3CmxCell%20id%3D%220%22%2F%3E%3CmxCell%20id%3D%221%22%20parent%3D%220%22%2F%3E%3CmxCell%20id%3D%222%22%20value%3D%22%22%20style%3D%22group%22%20vertex%3D%221%22%20connectable%3D%220%22%20parent%3D%221%22%3E%3CmxGeometry%20x%3D%22330%22%20y%3D%22780%22%20width%3D%22800%22%20height%3D%22610%22%20as%3D%22geometry%22%2F%3E%3C%2FmxCell%3E%3CmxCell%20id%3D%223%22%20value%3D%22%22%20style%3D%22group%22%20vertex%3D%221%22%20connectable%3D%220%22%20parent%3D%222%22%3E%3CmxGeometry%20width%3D%22800%22%20height%3D%22610%22%20as%3D%22geometry%22%2F%3E%3C%2FmxCell%3E%3CmxCell%20id%3D%224%22%20value%3D%22FF_val%20%2B%26amp%3Bnbsp%3B%26lt%3Bbr%26gt%3B(pwr_state(0)%20%26amp%3Bamp%3B%20power_state_arr(0))%20%2B%26lt%3Bbr%26gt%3B(pwr_state(1)%20%26amp%3Bamp%3B%20power_state_arr(1))%20%2B%26amp%3Bnbsp%3B%26lt%3Bbr%26gt%3B...%26lt%3Bbr%26gt%3B(pwr_state(%26lt%3Bspan%26gt%3BNUM_PWR_STATES%20-1)%20%26amp%3Bamp%3B%20power_state_arr(NUM_PWR_STATES-1))%26lt%3B%2Fspan%26gt%3B%22%20style%3D%22rounded%3D0%3BwhiteSpace%3Dwrap%3Bhtml%3D1%3B%22%20vertex%3D%221%22%20parent%3D%223%22%3E%3CmxGeometry%20width%3D%22800%22%20height%3D%22610%22%20as%3D%22geometry%22%2F%3E%3C%2FmxCell%3E%3CmxCell%20id%3D%225%22%20style%3D%22edgeStyle%3DorthogonalEdgeStyle%3Brounded%3D0%3BorthogonalLoop%3D1%3BjettySize%3Dauto%3Bhtml%3D1%3BexitX%3D0.5%3BexitY%3D0%3BexitDx%3D0%3BexitDy%3D0%3BentryX%3D0.25%3BentryY%3D1%3BentryDx%3D0%3BentryDy%3D0%3BstrokeWidth%3D3%3B%22%20edge%3D%221%22%20parent%3D%223%22%20source%3D%226%22%20target%3D%227%22%3E%3CmxGeometry%20relative%3D%221%22%20as%3D%22geometry%22%3E%3CArray%20as%3D%22points%22%3E%3CmxPoint%20x%3D%22708%22%20y%3D%2230%22%2F%3E%3CmxPoint%20x%3D%22350%22%20y%3D%2230%22%2F%3E%3CmxPoint%20x%3D%22350%22%20y%3D%22110%22%2F%3E%3C%2FArray%3E%3C%2FmxGeometry%3E%3C%2FmxCell%3E%3CmxCell%20id%3D%226%22%20value%3D%22P%26lt%3Bbr%26gt%3BW%26lt%3Bbr%26gt%3BR%26lt%3Bbr%26gt%3B%26lt%3Bbr%26gt%3BA%26lt%3Bbr%26gt%3BP%26lt%3Bbr%26gt%3BR%26lt%3Bbr%26gt%3BO%26lt%3Bbr%26gt%3BX%26lt%3Bbr%26gt%3B%26lt%3Bbr%26gt%3BR%26lt%3Bbr%26gt%3BE%26lt%3Bbr%26gt%3BG%22%20style%3D%22rounded%3D0%3BwhiteSpace%3Dwrap%3Bhtml%3D1%3BstrokeColor%3D%2382b366%3BstrokeWidth%3D2%3BfillColor%3D%23d5e8d4%3B%22%20vertex%3D%221%22%20parent%3D%223%22%3E%3CmxGeometry%20x%3D%22667.5%22%20y%3D%2250%22%20width%3D%2280%22%20height%3D%22460%22%20as%3D%22geometry%22%2F%3E%3C%2FmxCell%3E%3CmxCell%20id%3D%227%22%20value%3D%22SUM%22%20style%3D%22shape%3Dtrapezoid%3Bperimeter%3DtrapezoidPerimeter%3BwhiteSpace%3Dwrap%3Bhtml%3D1%3Bdirection%3Dsouth%3B%22%20vertex%3D%221%22%20parent%3D%223%22%3E%3CmxGeometry%20x%3D%22370%22%20y%3D%2270%22%20width%3D%2260%22%20height%3D%22160%22%20as%3D%22geometry%22%2F%3E%3C%2FmxCell%3E%3CmxCell%20id%3D%228%22%20style%3D%22edgeStyle%3DorthogonalEdgeStyle%3Brounded%3D0%3BorthogonalLoop%3D1%3BjettySize%3Dauto%3Bhtml%3D1%3BexitX%3D1%3BexitY%3D0.5%3BexitDx%3D0%3BexitDy%3D0%3BexitPerimeter%3D0%3BentryX%3D0.5%3BentryY%3D1%3BentryDx%3D0%3BentryDy%3D0%3B%22%20edge%3D%221%22%20parent%3D%223%22%20source%3D%229%22%20target%3D%227%22%3E%3CmxGeometry%20relative%3D%221%22%20as%3D%22geometry%22%2F%3E%3C%2FmxCell%3E%3CmxCell%20id%3D%229%22%20value%3D%22%22%20style%3D%22shape%3Dor%3BwhiteSpace%3Dwrap%3Bhtml%3D1%3BstrokeColor%3D%23000000%3BstrokeWidth%3D2%3B%22%20vertex%3D%221%22%20parent%3D%223%22%3E%3CmxGeometry%20x%3D%22170%22%20y%3D%22120%22%20width%3D%2260%22%20height%3D%2260%22%20as%3D%22geometry%22%2F%3E%3C%2FmxCell%3E%3CmxCell%20id%3D%2210%22%20value%3D%22%22%20style%3D%22endArrow%3Dnone%3Bhtml%3D1%3BentryX%3D0%3BentryY%3D0.25%3BentryDx%3D0%3BentryDy%3D0%3BentryPerimeter%3D0%3B%22%20edge%3D%221%22%20parent%3D%223%22%20target%3D%229%22%3E%3CmxGeometry%20width%3D%2250%22%20height%3D%2250%22%20relative%3D%221%22%20as%3D%22geometry%22%3E%3CmxPoint%20x%3D%22130%22%20y%3D%22135%22%20as%3D%22sourcePoint%22%2F%3E%3CmxPoint%20x%3D%22120%22%20y%3D%22100%22%20as%3D%22targetPoint%22%2F%3E%3C%2FmxGeometry%3E%3C%2FmxCell%3E%3CmxCell%20id%3D%2211%22%20value%3D%22%22%20style%3D%22endArrow%3Dnone%3Bhtml%3D1%3BentryX%3D0%3BentryY%3D0.75%3BentryDx%3D0%3BentryDy%3D0%3BentryPerimeter%3D0%3BexitX%3D0.163%3BexitY%3D0.27%3BexitDx%3D0%3BexitDy%3D0%3BexitPerimeter%3D0%3B%22%20edge%3D%221%22%20parent%3D%223%22%20source%3D%224%22%20target%3D%229%22%3E%3CmxGeometry%20width%3D%2250%22%20height%3D%2250%22%20relative%3D%221%22%20as%3D%22geometry%22%3E%3CmxPoint%20x%3D%22140%22%20y%3D%22143%22%20as%3D%22sourcePoint%22%2F%3E%3CmxPoint%20x%3D%22170%22%20y%3D%22140%22%20as%3D%22targetPoint%22%2F%3E%3C%2FmxGeometry%3E%3C%2FmxCell%3E%3CmxCell%20id%3D%2212%22%20value%3D%22pwr_state(0)%22%20style%3D%22text%3Bhtml%3D1%3BstrokeColor%3Dnone%3BfillColor%3Dnone%3Balign%3Dcenter%3BverticalAlign%3Dmiddle%3BwhiteSpace%3Dwrap%3Brounded%3D0%3B%22%20vertex%3D%221%22%20parent%3D%223%22%3E%3CmxGeometry%20x%3D%2270%22%20y%3D%22120%22%20width%3D%2240%22%20height%3D%2220%22%20as%3D%22geometry%22%2F%3E%3C%2FmxCell%3E%3CmxCell%20id%3D%2213%22%20value%3D%22%26lt%3Bmeta%20http-equiv%3D%26quot%3Bcontent-type%26quot%3B%20content%3D%26quot%3Btext%2Fhtml%3B%20charset%3Dutf-8%26quot%3B%26gt%3B%26lt%3Bspan%20style%3D%26quot%3Bfont-family%3A%20Helvetica%3B%20font-size%3A%2012px%3B%20font-style%3A%20normal%3B%20font-variant-ligatures%3A%20normal%3B%20font-variant-caps%3A%20normal%3B%20font-weight%3A%20400%3B%20letter-spacing%3A%20normal%3B%20orphans%3A%202%3B%20text-align%3A%20center%3B%20text-indent%3A%200px%3B%20text-transform%3A%20none%3B%20widows%3A%202%3B%20word-spacing%3A%200px%3B%20-webkit-text-stroke-width%3A%200px%3B%20text-decoration-style%3A%20initial%3B%20text-decoration-color%3A%20initial%3B%20float%3A%20none%3B%20display%3A%20inline%20!important%3B%26quot%3B%26gt%3Bpower_state_arr(0)%26lt%3B%2Fspan%26gt%3B%22%20style%3D%22text%3Bhtml%3D1%3BstrokeColor%3Dnone%3BfillColor%3Dnone%3Balign%3Dcenter%3BverticalAlign%3Dmiddle%3BwhiteSpace%3Dwrap%3Brounded%3D0%3B%22%20vertex%3D%221%22%20parent%3D%223%22%3E%3CmxGeometry%20x%3D%2250%22%20y%3D%22150%22%20width%3D%2240%22%20height%3D%2220%22%20as%3D%22geometry%22%2F%3E%3C%2FmxCell%3E%3CmxCell%20id%3D%2214%22%20style%3D%22edgeStyle%3DorthogonalEdgeStyle%3Brounded%3D0%3BorthogonalLoop%3D1%3BjettySize%3Dauto%3Bhtml%3D1%3BexitX%3D1%3BexitY%3D0.5%3BexitDx%3D0%3BexitDy%3D0%3BendArrow%3Dnone%3BendFill%3D0%3BstrokeWidth%3D4%3B%22%20edge%3D%221%22%20parent%3D%222%22%20source%3D%226%22%3E%3CmxGeometry%20relative%3D%221%22%20as%3D%22geometry%22%3E%3CmxPoint%20x%3D%22710%22%20y%3D%22289.94444444444434%22%20as%3D%22targetPoint%22%2F%3E%3C%2FmxGeometry%3E%3C%2FmxCell%3E%3C%2Froot%3E%3C%2FmxGraphModel%3E&lt;/span&gt;&lt;span style=&quot;font-family: monospace ; font-size: 0px&quot;&gt;%3CmxGraphModel%3E%3Croot%3E%3CmxCell%20id%3D%220%22%2F%3E%3CmxCell%20id%3D%221%22%20parent%3D%220%22%2F%3E%3CmxCell%20id%3D%222%22%20value%3D%22%22%20style%3D%22group%22%20vertex%3D%221%22%20connectable%3D%220%22%20parent%3D%221%22%3E%3CmxGeometry%20x%3D%22330%22%20y%3D%22780%22%20width%3D%22800%22%20height%3D%22610%22%20as%3D%22geometry%22%2F%3E%3C%2FmxCell%3E%3CmxCell%20id%3D%223%22%20value%3D%22%22%20style%3D%22group%22%20vertex%3D%221%22%20connectable%3D%220%22%20parent%3D%222%22%3E%3CmxGeometry%20width%3D%22800%22%20height%3D%22610%22%20as%3D%22geometry%22%2F%3E%3C%2FmxCell%3E%3CmxCell%20id%3D%224%22%20value%3D%22FF_val%20%2B%26amp%3Bnbsp%3B%26lt%3Bbr%26gt%3B(pwr_state(0)%20%26amp%3Bamp%3B%20power_state_arr(0))%20%2B%26lt%3Bbr%26gt%3B(pwr_state(1)%20%26amp%3Bamp%3B%20power_state_arr(1))%20%2B%26amp%3Bnbsp%3B%26lt%3Bbr%26gt%3B...%26lt%3Bbr%26gt%3B(pwr_state(%26lt%3Bspan%26gt%3BNUM_PWR_STATES%20-1)%20%26amp%3Bamp%3B%20power_state_arr(NUM_PWR_STATES-1))%26lt%3B%2Fspan%26gt%3B%22%20style%3D%22rounded%3D0%3BwhiteSpace%3Dwrap%3Bhtml%3D1%3B%22%20vertex%3D%221%22%20parent%3D%223%22%3E%3CmxGeometry%20width%3D%22800%22%20height%3D%22610%22%20as%3D%22geometry%22%2F%3E%3C%2FmxCell%3E%3CmxCell%20id%3D%225%22%20style%3D%22edgeStyle%3DorthogonalEdgeStyle%3Brounded%3D0%3BorthogonalLoop%3D1%3BjettySize%3Dauto%3Bhtml%3D1%3BexitX%3D0.5%3BexitY%3D0%3BexitDx%3D0%3BexitDy%3D0%3BentryX%3D0.25%3BentryY%3D1%3BentryDx%3D0%3BentryDy%3D0%3BstrokeWidth%3D3%3B%22%20edge%3D%221%22%20parent%3D%223%22%20source%3D%226%22%20target%3D%227%22%3E%3CmxGeometry%20relative%3D%221%22%20as%3D%22geometry%22%3E%3CArray%20as%3D%22points%22%3E%3CmxPoint%20x%3D%22708%22%20y%3D%2230%22%2F%3E%3CmxPoint%20x%3D%22350%22%20y%3D%2230%22%2F%3E%3CmxPoint%20x%3D%22350%22%20y%3D%22110%22%2F%3E%3C%2FArray%3E%3C%2FmxGeometry%3E%3C%2FmxCell%3E%3CmxCell%20id%3D%226%22%20value%3D%22P%26lt%3Bbr%26gt%3BW%26lt%3Bbr%26gt%3BR%26lt%3Bbr%26gt%3B%26lt%3Bbr%26gt%3BA%26lt%3Bbr%26gt%3BP%26lt%3Bbr%26gt%3BR%26lt%3Bbr%26gt%3BO%26lt%3Bbr%26gt%3BX%26lt%3Bbr%26gt%3B%26lt%3Bbr%26gt%3BR%26lt%3Bbr%26gt%3BE%26lt%3Bbr%26gt%3BG%22%20style%3D%22rounded%3D0%3BwhiteSpace%3Dwrap%3Bhtml%3D1%3BstrokeColor%3D%2382b366%3BstrokeWidth%3D2%3BfillColor%3D%23d5e8d4%3B%22%20vertex%3D%221%22%20parent%3D%223%22%3E%3CmxGeometry%20x%3D%22667.5%22%20y%3D%2250%22%20width%3D%2280%22%20height%3D%22460%22%20as%3D%22geometry%22%2F%3E%3C%2FmxCell%3E%3CmxCell%20id%3D%227%22%20value%3D%22SUM%22%20style%3D%22shape%3Dtrapezoid%3Bperimeter%3DtrapezoidPerimeter%3BwhiteSpace%3Dwrap%3Bhtml%3D1%3Bdirection%3Dsouth%3B%22%20vertex%3D%221%22%20parent%3D%223%22%3E%3CmxGeometry%20x%3D%22370%22%20y%3D%2270%22%20width%3D%2260%22%20height%3D%22160%22%20as%3D%22geometry%22%2F%3E%3C%2FmxCell%3E%3CmxCell%20id%3D%228%22%20style%3D%22edgeStyle%3DorthogonalEdgeStyle%3Brounded%3D0%3BorthogonalLoop%3D1%3BjettySize%3Dauto%3Bhtml%3D1%3BexitX%3D1%3BexitY%3D0.5%3BexitDx%3D0%3BexitDy%3D0%3BexitPerimeter%3D0%3BentryX%3D0.5%3BentryY%3D1%3BentryDx%3D0%3BentryDy%3D0%3B%22%20edge%3D%221%22%20parent%3D%223%22%20source%3D%229%22%20target%3D%227%22%3E%3CmxGeometry%20relative%3D%221%22%20as%3D%22geometry%22%2F%3E%3C%2FmxCell%3E%3CmxCell%20id%3D%229%22%20value%3D%22%22%20style%3D%22shape%3Dor%3BwhiteSpace%3Dwrap%3Bhtml%3D1%3BstrokeColor%3D%23000000%3BstrokeWidth%3D2%3B%22%20vertex%3D%221%22%20parent%3D%223%22%3E%3CmxGeometry%20x%3D%22170%22%20y%3D%22120%22%20width%3D%2260%22%20height%3D%2260%22%20as%3D%22geometry%22%2F%3E%3C%2FmxCell%3E%3CmxCell%20id%3D%2210%22%20value%3D%22%22%20style%3D%22endArrow%3Dnone%3Bhtml%3D1%3BentryX%3D0%3BentryY%3D0.25%3BentryDx%3D0%3BentryDy%3D0%3BentryPerimeter%3D0%3B%22%20edge%3D%221%22%20parent%3D%223%22%20target%3D%229%22%3E%3CmxGeometry%20width%3D%2250%22%20height%3D%2250%22%20relative%3D%221%22%20as%3D%22geometry%22%3E%3CmxPoint%20x%3D%22130%22%20y%3D%22135%22%20as%3D%22sourcePoint%22%2F%3E%3CmxPoint%20x%3D%22120%22%20y%3D%22100%22%20as%3D%22targetPoint%22%2F%3E%3C%2FmxGeometry%3E%3C%2FmxCell%3E%3CmxCell%20id%3D%2211%22%20value%3D%22%22%20style%3D%22endArrow%3Dnone%3Bhtml%3D1%3BentryX%3D0%3BentryY%3D0.75%3BentryDx%3D0%3BentryDy%3D0%3BentryPerimeter%3D0%3BexitX%3D0.163%3BexitY%3D0.27%3BexitDx%3D0%3BexitDy%3D0%3BexitPerimeter%3D0%3B%22%20edge%3D%221%22%20parent%3D%223%22%20source%3D%224%22%20target%3D%229%22%3E%3CmxGeometry%20width%3D%2250%22%20height%3D%2250%22%20relative%3D%221%22%20as%3D%22geometry%22%3E%3CmxPoint%20x%3D%22140%22%20y%3D%22143%22%20as%3D%22sourcePoint%22%2F%3E%3CmxPoint%20x%3D%22170%22%20y%3D%22140%22%20as%3D%22targetPoint%22%2F%3E%3C%2FmxGeometry%3E%3C%2FmxCell%3E%3CmxCell%20id%3D%2212%22%20value%3D%22pwr_state(0)%22%20style%3D%22text%3Bhtml%3D1%3BstrokeColor%3Dnone%3BfillColor%3Dnone%3Balign%3Dcenter%3BverticalAlign%3Dmiddle%3BwhiteSpace%3Dwrap%3Brounded%3D0%3B%22%20vertex%3D%221%22%20parent%3D%223%22%3E%3CmxGeometry%20x%3D%2270%22%20y%3D%22120%22%20width%3D%2240%22%20height%3D%2220%22%20as%3D%22geometry%22%2F%3E%3C%2FmxCell%3E%3CmxCell%20id%3D%2213%22%20value%3D%22%26lt%3Bmeta%20http-equiv%3D%26quot%3Bcontent-type%26quot%3B%20content%3D%26quot%3Btext%2Fhtml%3B%20charset%3Dutf-8%26quot%3B%26gt%3B%26lt%3Bspan%20style%3D%26quot%3Bfont-family%3A%20Helvetica%3B%20font-size%3A%2012px%3B%20font-style%3A%20normal%3B%20font-variant-ligatures%3A%20normal%3B%20font-variant-caps%3A%20normal%3B%20font-weight%3A%20400%3B%20letter-spacing%3A%20normal%3B%20orphans%3A%202%3B%20text-align%3A%20center%3B%20text-indent%3A%200px%3B%20text-transform%3A%20none%3B%20widows%3A%202%3B%20word-spacing%3A%200px%3B%20-webkit-text-stroke-width%3A%200px%3B%20text-decoration-style%3A%20initial%3B%20text-decoration-color%3A%20initial%3B%20float%3A%20none%3B%20display%3A%20inline%20!important%3B%26quot%3B%26gt%3Bpower_state_arr(0)%26lt%3B%2Fspan%26gt%3B%22%20style%3D%22text%3Bhtml%3D1%3BstrokeColor%3Dnone%3BfillColor%3Dnone%3Balign%3Dcenter%3BverticalAlign%3Dmiddle%3BwhiteSpace%3Dwrap%3Brounded%3D0%3B%22%20vertex%3D%221%22%20parent%3D%223%22%3E%3CmxGeometry%20x%3D%2250%22%20y%3D%22150%22%20width%3D%2240%22%20height%3D%2220%22%20as%3D%22geometry%22%2F%3E%3C%2FmxCell%3E%3CmxCell%20id%3D%2214%22%20style%3D%22edgeStyle%3DorthogonalEdgeStyle%3Brounded%3D0%3BorthogonalLoop%3D1%3BjettySize%3Dauto%3Bhtml%3D1%3BexitX%3D1%3BexitY%3D0.5%3BexitDx%3D0%3BexitDy%3D0%3BendArrow%3Dnone%3BendFill%3D0%3BstrokeWidth%3D4%3B%22%20edge%3D%221%22%20parent%3D%222%22%20source%3D%226%22%3E%3CmxGeometry%20relative%3D%221%22%20as%3D%22geometry%22%3E%3CmxPoint%20x%3D%22710%22%20y%3D%22289.94444444444434%22%20as%3D%22targetPoint%22%2F%3E%3C%2FmxGeometry%3E%3C%2FmxCell%3E%3C%2Froot%3E%3C%2FmxGraphModel%3E&lt;/span&gt;" style="shape=or;whiteSpace=wrap;html=1;strokeColor=#000000;strokeWidth=2;" parent="y5mTM7t5K1WfnvU4cUye-22" vertex="1">
                    <mxGeometry x="190" y="220" width="60" height="60" as="geometry"/>
                </mxCell>
                <mxCell id="y5mTM7t5K1WfnvU4cUye-48" value="" style="endArrow=none;html=1;entryX=0;entryY=0.25;entryDx=0;entryDy=0;entryPerimeter=0;" parent="y5mTM7t5K1WfnvU4cUye-22" edge="1">
                    <mxGeometry width="50" height="50" relative="1" as="geometry">
                        <mxPoint x="150" y="229.88" as="sourcePoint"/>
                        <mxPoint x="190" y="229.88" as="targetPoint"/>
                    </mxGeometry>
                </mxCell>
                <mxCell id="y5mTM7t5K1WfnvU4cUye-49" value="" style="endArrow=none;html=1;entryX=0;entryY=0.75;entryDx=0;entryDy=0;entryPerimeter=0;exitX=0.163;exitY=0.27;exitDx=0;exitDy=0;exitPerimeter=0;" parent="y5mTM7t5K1WfnvU4cUye-22" edge="1">
                    <mxGeometry width="50" height="50" relative="1" as="geometry">
                        <mxPoint x="150.39999999999986" y="269.9999999999998" as="sourcePoint"/>
                        <mxPoint x="190" y="270.29999999999995" as="targetPoint"/>
                    </mxGeometry>
                </mxCell>
                <mxCell id="y5mTM7t5K1WfnvU4cUye-50" value="pwr_state(1)" style="text;html=1;strokeColor=none;fillColor=none;align=center;verticalAlign=middle;whiteSpace=wrap;rounded=0;" parent="y5mTM7t5K1WfnvU4cUye-22" vertex="1">
                    <mxGeometry x="90" y="220" width="40" height="20" as="geometry"/>
                </mxCell>
                <mxCell id="y5mTM7t5K1WfnvU4cUye-51" value="&lt;span style=&quot;font-family: &amp;#34;helvetica&amp;#34; ; font-size: 12px ; font-style: normal ; font-weight: 400 ; letter-spacing: normal ; text-align: center ; text-indent: 0px ; text-transform: none ; word-spacing: 0px ; float: none ; display: inline&quot;&gt;power_state_arr(1)&lt;/span&gt;" style="text;html=1;strokeColor=none;fillColor=none;align=center;verticalAlign=middle;whiteSpace=wrap;rounded=0;" parent="y5mTM7t5K1WfnvU4cUye-22" vertex="1">
                    <mxGeometry x="70" y="260" width="40" height="20" as="geometry"/>
                </mxCell>
                <mxCell id="y5mTM7t5K1WfnvU4cUye-61" style="edgeStyle=orthogonalEdgeStyle;rounded=0;orthogonalLoop=1;jettySize=auto;html=1;exitX=1;exitY=0.5;exitDx=0;exitDy=0;exitPerimeter=0;entryX=0.634;entryY=1.007;entryDx=0;entryDy=0;entryPerimeter=0;" parent="y5mTM7t5K1WfnvU4cUye-22" source="y5mTM7t5K1WfnvU4cUye-53" target="y5mTM7t5K1WfnvU4cUye-23" edge="1">
                    <mxGeometry relative="1" as="geometry"/>
                </mxCell>
                <mxCell id="y5mTM7t5K1WfnvU4cUye-53" value="&lt;span style=&quot;font-family: monospace ; font-size: 0px&quot;&gt;%3CmxGraphModel%3E%3Croot%3E%3CmxCell%20id%3D%220%22%2F%3E%3CmxCell%20id%3D%221%22%20parent%3D%220%22%2F%3E%3CmxCell%20id%3D%222%22%20value%3D%22%22%20style%3D%22group%22%20vertex%3D%221%22%20connectable%3D%220%22%20parent%3D%221%22%3E%3CmxGeometry%20x%3D%22330%22%20y%3D%22780%22%20width%3D%22800%22%20height%3D%22610%22%20as%3D%22geometry%22%2F%3E%3C%2FmxCell%3E%3CmxCell%20id%3D%223%22%20value%3D%22%22%20style%3D%22group%22%20vertex%3D%221%22%20connectable%3D%220%22%20parent%3D%222%22%3E%3CmxGeometry%20width%3D%22800%22%20height%3D%22610%22%20as%3D%22geometry%22%2F%3E%3C%2FmxCell%3E%3CmxCell%20id%3D%224%22%20value%3D%22FF_val%20%2B%26amp%3Bnbsp%3B%26lt%3Bbr%26gt%3B(pwr_state(0)%20%26amp%3Bamp%3B%20power_state_arr(0))%20%2B%26lt%3Bbr%26gt%3B(pwr_state(1)%20%26amp%3Bamp%3B%20power_state_arr(1))%20%2B%26amp%3Bnbsp%3B%26lt%3Bbr%26gt%3B...%26lt%3Bbr%26gt%3B(pwr_state(%26lt%3Bspan%26gt%3BNUM_PWR_STATES%20-1)%20%26amp%3Bamp%3B%20power_state_arr(NUM_PWR_STATES-1))%26lt%3B%2Fspan%26gt%3B%22%20style%3D%22rounded%3D0%3BwhiteSpace%3Dwrap%3Bhtml%3D1%3B%22%20vertex%3D%221%22%20parent%3D%223%22%3E%3CmxGeometry%20width%3D%22800%22%20height%3D%22610%22%20as%3D%22geometry%22%2F%3E%3C%2FmxCell%3E%3CmxCell%20id%3D%225%22%20style%3D%22edgeStyle%3DorthogonalEdgeStyle%3Brounded%3D0%3BorthogonalLoop%3D1%3BjettySize%3Dauto%3Bhtml%3D1%3BexitX%3D0.5%3BexitY%3D0%3BexitDx%3D0%3BexitDy%3D0%3BentryX%3D0.25%3BentryY%3D1%3BentryDx%3D0%3BentryDy%3D0%3BstrokeWidth%3D3%3B%22%20edge%3D%221%22%20parent%3D%223%22%20source%3D%226%22%20target%3D%227%22%3E%3CmxGeometry%20relative%3D%221%22%20as%3D%22geometry%22%3E%3CArray%20as%3D%22points%22%3E%3CmxPoint%20x%3D%22708%22%20y%3D%2230%22%2F%3E%3CmxPoint%20x%3D%22350%22%20y%3D%2230%22%2F%3E%3CmxPoint%20x%3D%22350%22%20y%3D%22110%22%2F%3E%3C%2FArray%3E%3C%2FmxGeometry%3E%3C%2FmxCell%3E%3CmxCell%20id%3D%226%22%20value%3D%22P%26lt%3Bbr%26gt%3BW%26lt%3Bbr%26gt%3BR%26lt%3Bbr%26gt%3B%26lt%3Bbr%26gt%3BA%26lt%3Bbr%26gt%3BP%26lt%3Bbr%26gt%3BR%26lt%3Bbr%26gt%3BO%26lt%3Bbr%26gt%3BX%26lt%3Bbr%26gt%3B%26lt%3Bbr%26gt%3BR%26lt%3Bbr%26gt%3BE%26lt%3Bbr%26gt%3BG%22%20style%3D%22rounded%3D0%3BwhiteSpace%3Dwrap%3Bhtml%3D1%3BstrokeColor%3D%2382b366%3BstrokeWidth%3D2%3BfillColor%3D%23d5e8d4%3B%22%20vertex%3D%221%22%20parent%3D%223%22%3E%3CmxGeometry%20x%3D%22667.5%22%20y%3D%2250%22%20width%3D%2280%22%20height%3D%22460%22%20as%3D%22geometry%22%2F%3E%3C%2FmxCell%3E%3CmxCell%20id%3D%227%22%20value%3D%22SUM%22%20style%3D%22shape%3Dtrapezoid%3Bperimeter%3DtrapezoidPerimeter%3BwhiteSpace%3Dwrap%3Bhtml%3D1%3Bdirection%3Dsouth%3B%22%20vertex%3D%221%22%20parent%3D%223%22%3E%3CmxGeometry%20x%3D%22370%22%20y%3D%2270%22%20width%3D%2260%22%20height%3D%22160%22%20as%3D%22geometry%22%2F%3E%3C%2FmxCell%3E%3CmxCell%20id%3D%228%22%20style%3D%22edgeStyle%3DorthogonalEdgeStyle%3Brounded%3D0%3BorthogonalLoop%3D1%3BjettySize%3Dauto%3Bhtml%3D1%3BexitX%3D1%3BexitY%3D0.5%3BexitDx%3D0%3BexitDy%3D0%3BexitPerimeter%3D0%3BentryX%3D0.5%3BentryY%3D1%3BentryDx%3D0%3BentryDy%3D0%3B%22%20edge%3D%221%22%20parent%3D%223%22%20source%3D%229%22%20target%3D%227%22%3E%3CmxGeometry%20relative%3D%221%22%20as%3D%22geometry%22%2F%3E%3C%2FmxCell%3E%3CmxCell%20id%3D%229%22%20value%3D%22%22%20style%3D%22shape%3Dor%3BwhiteSpace%3Dwrap%3Bhtml%3D1%3BstrokeColor%3D%23000000%3BstrokeWidth%3D2%3B%22%20vertex%3D%221%22%20parent%3D%223%22%3E%3CmxGeometry%20x%3D%22170%22%20y%3D%22120%22%20width%3D%2260%22%20height%3D%2260%22%20as%3D%22geometry%22%2F%3E%3C%2FmxCell%3E%3CmxCell%20id%3D%2210%22%20value%3D%22%22%20style%3D%22endArrow%3Dnone%3Bhtml%3D1%3BentryX%3D0%3BentryY%3D0.25%3BentryDx%3D0%3BentryDy%3D0%3BentryPerimeter%3D0%3B%22%20edge%3D%221%22%20parent%3D%223%22%20target%3D%229%22%3E%3CmxGeometry%20width%3D%2250%22%20height%3D%2250%22%20relative%3D%221%22%20as%3D%22geometry%22%3E%3CmxPoint%20x%3D%22130%22%20y%3D%22135%22%20as%3D%22sourcePoint%22%2F%3E%3CmxPoint%20x%3D%22120%22%20y%3D%22100%22%20as%3D%22targetPoint%22%2F%3E%3C%2FmxGeometry%3E%3C%2FmxCell%3E%3CmxCell%20id%3D%2211%22%20value%3D%22%22%20style%3D%22endArrow%3Dnone%3Bhtml%3D1%3BentryX%3D0%3BentryY%3D0.75%3BentryDx%3D0%3BentryDy%3D0%3BentryPerimeter%3D0%3BexitX%3D0.163%3BexitY%3D0.27%3BexitDx%3D0%3BexitDy%3D0%3BexitPerimeter%3D0%3B%22%20edge%3D%221%22%20parent%3D%223%22%20source%3D%224%22%20target%3D%229%22%3E%3CmxGeometry%20width%3D%2250%22%20height%3D%2250%22%20relative%3D%221%22%20as%3D%22geometry%22%3E%3CmxPoint%20x%3D%22140%22%20y%3D%22143%22%20as%3D%22sourcePoint%22%2F%3E%3CmxPoint%20x%3D%22170%22%20y%3D%22140%22%20as%3D%22targetPoint%22%2F%3E%3C%2FmxGeometry%3E%3C%2FmxCell%3E%3CmxCell%20id%3D%2212%22%20value%3D%22pwr_state(0)%22%20style%3D%22text%3Bhtml%3D1%3BstrokeColor%3Dnone%3BfillColor%3Dnone%3Balign%3Dcenter%3BverticalAlign%3Dmiddle%3BwhiteSpace%3Dwrap%3Brounded%3D0%3B%22%20vertex%3D%221%22%20parent%3D%223%22%3E%3CmxGeometry%20x%3D%2270%22%20y%3D%22120%22%20width%3D%2240%22%20height%3D%2220%22%20as%3D%22geometry%22%2F%3E%3C%2FmxCell%3E%3CmxCell%20id%3D%2213%22%20value%3D%22%26lt%3Bmeta%20http-equiv%3D%26quot%3Bcontent-type%26quot%3B%20content%3D%26quot%3Btext%2Fhtml%3B%20charset%3Dutf-8%26quot%3B%26gt%3B%26lt%3Bspan%20style%3D%26quot%3Bfont-family%3A%20Helvetica%3B%20font-size%3A%2012px%3B%20font-style%3A%20normal%3B%20font-variant-ligatures%3A%20normal%3B%20font-variant-caps%3A%20normal%3B%20font-weight%3A%20400%3B%20letter-spacing%3A%20normal%3B%20orphans%3A%202%3B%20text-align%3A%20center%3B%20text-indent%3A%200px%3B%20text-transform%3A%20none%3B%20widows%3A%202%3B%20word-spacing%3A%200px%3B%20-webkit-text-stroke-width%3A%200px%3B%20text-decoration-style%3A%20initial%3B%20text-decoration-color%3A%20initial%3B%20float%3A%20none%3B%20display%3A%20inline%20!important%3B%26quot%3B%26gt%3Bpower_state_arr(0)%26lt%3B%2Fspan%26gt%3B%22%20style%3D%22text%3Bhtml%3D1%3BstrokeColor%3Dnone%3BfillColor%3Dnone%3Balign%3Dcenter%3BverticalAlign%3Dmiddle%3BwhiteSpace%3Dwrap%3Brounded%3D0%3B%22%20vertex%3D%221%22%20parent%3D%223%22%3E%3CmxGeometry%20x%3D%2250%22%20y%3D%22150%22%20width%3D%2240%22%20height%3D%2220%22%20as%3D%22geometry%22%2F%3E%3C%2FmxCell%3E%3CmxCell%20id%3D%2214%22%20style%3D%22edgeStyle%3DorthogonalEdgeStyle%3Brounded%3D0%3BorthogonalLoop%3D1%3BjettySize%3Dauto%3Bhtml%3D1%3BexitX%3D1%3BexitY%3D0.5%3BexitDx%3D0%3BexitDy%3D0%3BendArrow%3Dnone%3BendFill%3D0%3BstrokeWidth%3D4%3B%22%20edge%3D%221%22%20parent%3D%222%22%20source%3D%226%22%3E%3CmxGeometry%20relative%3D%221%22%20as%3D%22geometry%22%3E%3CmxPoint%20x%3D%22710%22%20y%3D%22289.94444444444434%22%20as%3D%22targetPoint%22%2F%3E%3C%2FmxGeometry%3E%3C%2FmxCell%3E%3C%2Froot%3E%3C%2FmxGraphModel%3E&lt;/span&gt;&lt;span style=&quot;font-family: monospace ; font-size: 0px&quot;&gt;%3CmxGraphModel%3E%3Croot%3E%3CmxCell%20id%3D%220%22%2F%3E%3CmxCell%20id%3D%221%22%20parent%3D%220%22%2F%3E%3CmxCell%20id%3D%222%22%20value%3D%22%22%20style%3D%22group%22%20vertex%3D%221%22%20connectable%3D%220%22%20parent%3D%221%22%3E%3CmxGeometry%20x%3D%22330%22%20y%3D%22780%22%20width%3D%22800%22%20height%3D%22610%22%20as%3D%22geometry%22%2F%3E%3C%2FmxCell%3E%3CmxCell%20id%3D%223%22%20value%3D%22%22%20style%3D%22group%22%20vertex%3D%221%22%20connectable%3D%220%22%20parent%3D%222%22%3E%3CmxGeometry%20width%3D%22800%22%20height%3D%22610%22%20as%3D%22geometry%22%2F%3E%3C%2FmxCell%3E%3CmxCell%20id%3D%224%22%20value%3D%22FF_val%20%2B%26amp%3Bnbsp%3B%26lt%3Bbr%26gt%3B(pwr_state(0)%20%26amp%3Bamp%3B%20power_state_arr(0))%20%2B%26lt%3Bbr%26gt%3B(pwr_state(1)%20%26amp%3Bamp%3B%20power_state_arr(1))%20%2B%26amp%3Bnbsp%3B%26lt%3Bbr%26gt%3B...%26lt%3Bbr%26gt%3B(pwr_state(%26lt%3Bspan%26gt%3BNUM_PWR_STATES%20-1)%20%26amp%3Bamp%3B%20power_state_arr(NUM_PWR_STATES-1))%26lt%3B%2Fspan%26gt%3B%22%20style%3D%22rounded%3D0%3BwhiteSpace%3Dwrap%3Bhtml%3D1%3B%22%20vertex%3D%221%22%20parent%3D%223%22%3E%3CmxGeometry%20width%3D%22800%22%20height%3D%22610%22%20as%3D%22geometry%22%2F%3E%3C%2FmxCell%3E%3CmxCell%20id%3D%225%22%20style%3D%22edgeStyle%3DorthogonalEdgeStyle%3Brounded%3D0%3BorthogonalLoop%3D1%3BjettySize%3Dauto%3Bhtml%3D1%3BexitX%3D0.5%3BexitY%3D0%3BexitDx%3D0%3BexitDy%3D0%3BentryX%3D0.25%3BentryY%3D1%3BentryDx%3D0%3BentryDy%3D0%3BstrokeWidth%3D3%3B%22%20edge%3D%221%22%20parent%3D%223%22%20source%3D%226%22%20target%3D%227%22%3E%3CmxGeometry%20relative%3D%221%22%20as%3D%22geometry%22%3E%3CArray%20as%3D%22points%22%3E%3CmxPoint%20x%3D%22708%22%20y%3D%2230%22%2F%3E%3CmxPoint%20x%3D%22350%22%20y%3D%2230%22%2F%3E%3CmxPoint%20x%3D%22350%22%20y%3D%22110%22%2F%3E%3C%2FArray%3E%3C%2FmxGeometry%3E%3C%2FmxCell%3E%3CmxCell%20id%3D%226%22%20value%3D%22P%26lt%3Bbr%26gt%3BW%26lt%3Bbr%26gt%3BR%26lt%3Bbr%26gt%3B%26lt%3Bbr%26gt%3BA%26lt%3Bbr%26gt%3BP%26lt%3Bbr%26gt%3BR%26lt%3Bbr%26gt%3BO%26lt%3Bbr%26gt%3BX%26lt%3Bbr%26gt%3B%26lt%3Bbr%26gt%3BR%26lt%3Bbr%26gt%3BE%26lt%3Bbr%26gt%3BG%22%20style%3D%22rounded%3D0%3BwhiteSpace%3Dwrap%3Bhtml%3D1%3BstrokeColor%3D%2382b366%3BstrokeWidth%3D2%3BfillColor%3D%23d5e8d4%3B%22%20vertex%3D%221%22%20parent%3D%223%22%3E%3CmxGeometry%20x%3D%22667.5%22%20y%3D%2250%22%20width%3D%2280%22%20height%3D%22460%22%20as%3D%22geometry%22%2F%3E%3C%2FmxCell%3E%3CmxCell%20id%3D%227%22%20value%3D%22SUM%22%20style%3D%22shape%3Dtrapezoid%3Bperimeter%3DtrapezoidPerimeter%3BwhiteSpace%3Dwrap%3Bhtml%3D1%3Bdirection%3Dsouth%3B%22%20vertex%3D%221%22%20parent%3D%223%22%3E%3CmxGeometry%20x%3D%22370%22%20y%3D%2270%22%20width%3D%2260%22%20height%3D%22160%22%20as%3D%22geometry%22%2F%3E%3C%2FmxCell%3E%3CmxCell%20id%3D%228%22%20style%3D%22edgeStyle%3DorthogonalEdgeStyle%3Brounded%3D0%3BorthogonalLoop%3D1%3BjettySize%3Dauto%3Bhtml%3D1%3BexitX%3D1%3BexitY%3D0.5%3BexitDx%3D0%3BexitDy%3D0%3BexitPerimeter%3D0%3BentryX%3D0.5%3BentryY%3D1%3BentryDx%3D0%3BentryDy%3D0%3B%22%20edge%3D%221%22%20parent%3D%223%22%20source%3D%229%22%20target%3D%227%22%3E%3CmxGeometry%20relative%3D%221%22%20as%3D%22geometry%22%2F%3E%3C%2FmxCell%3E%3CmxCell%20id%3D%229%22%20value%3D%22%22%20style%3D%22shape%3Dor%3BwhiteSpace%3Dwrap%3Bhtml%3D1%3BstrokeColor%3D%23000000%3BstrokeWidth%3D2%3B%22%20vertex%3D%221%22%20parent%3D%223%22%3E%3CmxGeometry%20x%3D%22170%22%20y%3D%22120%22%20width%3D%2260%22%20height%3D%2260%22%20as%3D%22geometry%22%2F%3E%3C%2FmxCell%3E%3CmxCell%20id%3D%2210%22%20value%3D%22%22%20style%3D%22endArrow%3Dnone%3Bhtml%3D1%3BentryX%3D0%3BentryY%3D0.25%3BentryDx%3D0%3BentryDy%3D0%3BentryPerimeter%3D0%3B%22%20edge%3D%221%22%20parent%3D%223%22%20target%3D%229%22%3E%3CmxGeometry%20width%3D%2250%22%20height%3D%2250%22%20relative%3D%221%22%20as%3D%22geometry%22%3E%3CmxPoint%20x%3D%22130%22%20y%3D%22135%22%20as%3D%22sourcePoint%22%2F%3E%3CmxPoint%20x%3D%22120%22%20y%3D%22100%22%20as%3D%22targetPoint%22%2F%3E%3C%2FmxGeometry%3E%3C%2FmxCell%3E%3CmxCell%20id%3D%2211%22%20value%3D%22%22%20style%3D%22endArrow%3Dnone%3Bhtml%3D1%3BentryX%3D0%3BentryY%3D0.75%3BentryDx%3D0%3BentryDy%3D0%3BentryPerimeter%3D0%3BexitX%3D0.163%3BexitY%3D0.27%3BexitDx%3D0%3BexitDy%3D0%3BexitPerimeter%3D0%3B%22%20edge%3D%221%22%20parent%3D%223%22%20source%3D%224%22%20target%3D%229%22%3E%3CmxGeometry%20width%3D%2250%22%20height%3D%2250%22%20relative%3D%221%22%20as%3D%22geometry%22%3E%3CmxPoint%20x%3D%22140%22%20y%3D%22143%22%20as%3D%22sourcePoint%22%2F%3E%3CmxPoint%20x%3D%22170%22%20y%3D%22140%22%20as%3D%22targetPoint%22%2F%3E%3C%2FmxGeometry%3E%3C%2FmxCell%3E%3CmxCell%20id%3D%2212%22%20value%3D%22pwr_state(0)%22%20style%3D%22text%3Bhtml%3D1%3BstrokeColor%3Dnone%3BfillColor%3Dnone%3Balign%3Dcenter%3BverticalAlign%3Dmiddle%3BwhiteSpace%3Dwrap%3Brounded%3D0%3B%22%20vertex%3D%221%22%20parent%3D%223%22%3E%3CmxGeometry%20x%3D%2270%22%20y%3D%22120%22%20width%3D%2240%22%20height%3D%2220%22%20as%3D%22geometry%22%2F%3E%3C%2FmxCell%3E%3CmxCell%20id%3D%2213%22%20value%3D%22%26lt%3Bmeta%20http-equiv%3D%26quot%3Bcontent-type%26quot%3B%20content%3D%26quot%3Btext%2Fhtml%3B%20charset%3Dutf-8%26quot%3B%26gt%3B%26lt%3Bspan%20style%3D%26quot%3Bfont-family%3A%20Helvetica%3B%20font-size%3A%2012px%3B%20font-style%3A%20normal%3B%20font-variant-ligatures%3A%20normal%3B%20font-variant-caps%3A%20normal%3B%20font-weight%3A%20400%3B%20letter-spacing%3A%20normal%3B%20orphans%3A%202%3B%20text-align%3A%20center%3B%20text-indent%3A%200px%3B%20text-transform%3A%20none%3B%20widows%3A%202%3B%20word-spacing%3A%200px%3B%20-webkit-text-stroke-width%3A%200px%3B%20text-decoration-style%3A%20initial%3B%20text-decoration-color%3A%20initial%3B%20float%3A%20none%3B%20display%3A%20inline%20!important%3B%26quot%3B%26gt%3Bpower_state_arr(0)%26lt%3B%2Fspan%26gt%3B%22%20style%3D%22text%3Bhtml%3D1%3BstrokeColor%3Dnone%3BfillColor%3Dnone%3Balign%3Dcenter%3BverticalAlign%3Dmiddle%3BwhiteSpace%3Dwrap%3Brounded%3D0%3B%22%20vertex%3D%221%22%20parent%3D%223%22%3E%3CmxGeometry%20x%3D%2250%22%20y%3D%22150%22%20width%3D%2240%22%20height%3D%2220%22%20as%3D%22geometry%22%2F%3E%3C%2FmxCell%3E%3CmxCell%20id%3D%2214%22%20style%3D%22edgeStyle%3DorthogonalEdgeStyle%3Brounded%3D0%3BorthogonalLoop%3D1%3BjettySize%3Dauto%3Bhtml%3D1%3BexitX%3D1%3BexitY%3D0.5%3BexitDx%3D0%3BexitDy%3D0%3BendArrow%3Dnone%3BendFill%3D0%3BstrokeWidth%3D4%3B%22%20edge%3D%221%22%20parent%3D%222%22%20source%3D%226%22%3E%3CmxGeometry%20relative%3D%221%22%20as%3D%22geometry%22%3E%3CmxPoint%20x%3D%22710%22%20y%3D%22289.94444444444434%22%20as%3D%22targetPoint%22%2F%3E%3C%2FmxGeometry%3E%3C%2FmxCell%3E%3C%2Froot%3E%3C%2FmxGraphModel%3E&lt;/span&gt;" style="shape=or;whiteSpace=wrap;html=1;strokeColor=#000000;strokeWidth=2;" parent="y5mTM7t5K1WfnvU4cUye-22" vertex="1">
                    <mxGeometry x="250" y="360" width="60" height="60" as="geometry"/>
                </mxCell>
                <mxCell id="y5mTM7t5K1WfnvU4cUye-54" value="pwr_state(NUM_PWR_STATES(1))" style="text;html=1;strokeColor=none;fillColor=none;align=center;verticalAlign=middle;whiteSpace=wrap;rounded=0;" parent="y5mTM7t5K1WfnvU4cUye-22" vertex="1">
                    <mxGeometry x="75" y="360" width="70" height="20" as="geometry"/>
                </mxCell>
                <mxCell id="y5mTM7t5K1WfnvU4cUye-55" value="power_state_arr(NUM_PWR_STATES(1))" style="text;html=1;strokeColor=none;fillColor=none;align=center;verticalAlign=middle;whiteSpace=wrap;rounded=0;" parent="y5mTM7t5K1WfnvU4cUye-22" vertex="1">
                    <mxGeometry x="100" y="410" width="40" height="20" as="geometry"/>
                </mxCell>
                <mxCell id="y5mTM7t5K1WfnvU4cUye-64" value="" style="endArrow=none;html=1;entryX=0;entryY=0.25;entryDx=0;entryDy=0;entryPerimeter=0;" parent="y5mTM7t5K1WfnvU4cUye-22" target="y5mTM7t5K1WfnvU4cUye-53" edge="1">
                    <mxGeometry width="50" height="50" relative="1" as="geometry">
                        <mxPoint x="210" y="375" as="sourcePoint"/>
                        <mxPoint x="180" y="280.3000000000002" as="targetPoint"/>
                    </mxGeometry>
                </mxCell>
                <mxCell id="y5mTM7t5K1WfnvU4cUye-65" value="" style="endArrow=none;html=1;entryX=0;entryY=0.25;entryDx=0;entryDy=0;entryPerimeter=0;" parent="y5mTM7t5K1WfnvU4cUye-22" edge="1">
                    <mxGeometry width="50" height="50" relative="1" as="geometry">
                        <mxPoint x="210" y="409.9000000000001" as="sourcePoint"/>
                        <mxPoint x="250" y="409.9000000000001" as="targetPoint"/>
                    </mxGeometry>
                </mxCell>
                <mxCell id="y5mTM7t5K1WfnvU4cUye-71" value=".&lt;br&gt;.&lt;br&gt;." style="text;html=1;strokeColor=none;fillColor=none;align=center;verticalAlign=middle;whiteSpace=wrap;rounded=0;" parent="y5mTM7t5K1WfnvU4cUye-22" vertex="1">
                    <mxGeometry x="90" y="310" width="40" height="20" as="geometry"/>
                </mxCell>
                <mxCell id="15j-5euzx9YOIgts3s7C-2" value="test this with normal + chain in vhdl and analyze performance" style="text;html=1;strokeColor=none;fillColor=none;align=center;verticalAlign=middle;whiteSpace=wrap;rounded=0;" parent="y5mTM7t5K1WfnvU4cUye-22" vertex="1">
                    <mxGeometry x="45" y="500" width="375" height="90" as="geometry"/>
                </mxCell>
                <mxCell id="15j-5euzx9YOIgts3s7C-3" value="" style="group" parent="y5mTM7t5K1WfnvU4cUye-33" vertex="1" connectable="0">
                    <mxGeometry y="650" width="800" height="610" as="geometry"/>
                </mxCell>
                <mxCell id="15j-5euzx9YOIgts3s7C-4" value="" style="rounded=0;whiteSpace=wrap;html=1;" parent="15j-5euzx9YOIgts3s7C-3" vertex="1">
                    <mxGeometry width="800" height="610" as="geometry"/>
                </mxCell>
                <mxCell id="15j-5euzx9YOIgts3s7C-54" style="edgeStyle=orthogonalEdgeStyle;rounded=0;orthogonalLoop=1;jettySize=auto;html=1;exitX=0.5;exitY=0;exitDx=0;exitDy=0;entryX=0.25;entryY=1;entryDx=0;entryDy=0;endArrow=classic;endFill=1;strokeWidth=2;" parent="15j-5euzx9YOIgts3s7C-3" source="15j-5euzx9YOIgts3s7C-6" target="15j-5euzx9YOIgts3s7C-29" edge="1">
                    <mxGeometry relative="1" as="geometry">
                        <Array as="points">
                            <mxPoint x="707" y="30"/>
                            <mxPoint x="260" y="30"/>
                            <mxPoint x="260" y="84"/>
                        </Array>
                    </mxGeometry>
                </mxCell>
                <mxCell id="15j-5euzx9YOIgts3s7C-6" value="P&lt;br&gt;W&lt;br&gt;R&lt;br&gt;&lt;br&gt;A&lt;br&gt;P&lt;br&gt;R&lt;br&gt;O&lt;br&gt;X&lt;br&gt;&lt;br&gt;R&lt;br&gt;E&lt;br&gt;G" style="rounded=0;whiteSpace=wrap;html=1;strokeColor=#005700;strokeWidth=2;fillColor=#008a00;fontColor=#ffffff;" parent="15j-5euzx9YOIgts3s7C-3" vertex="1">
                    <mxGeometry x="667.5" y="50" width="80" height="460" as="geometry"/>
                </mxCell>
                <mxCell id="15j-5euzx9YOIgts3s7C-31" style="edgeStyle=orthogonalEdgeStyle;rounded=0;orthogonalLoop=1;jettySize=auto;html=1;exitX=1;exitY=0.5;exitDx=0;exitDy=0;exitPerimeter=0;entryX=0.75;entryY=1;entryDx=0;entryDy=0;endArrow=none;endFill=0;" parent="15j-5euzx9YOIgts3s7C-3" source="15j-5euzx9YOIgts3s7C-16" target="15j-5euzx9YOIgts3s7C-29" edge="1">
                    <mxGeometry relative="1" as="geometry"/>
                </mxCell>
                <mxCell id="15j-5euzx9YOIgts3s7C-16" value="&lt;span style=&quot;font-family: monospace ; font-size: 0px&quot;&gt;%3CmxGraphModel%3E%3Croot%3E%3CmxCell%20id%3D%220%22%2F%3E%3CmxCell%20id%3D%221%22%20parent%3D%220%22%2F%3E%3CmxCell%20id%3D%222%22%20value%3D%22%22%20style%3D%22group%22%20vertex%3D%221%22%20connectable%3D%220%22%20parent%3D%221%22%3E%3CmxGeometry%20x%3D%22330%22%20y%3D%22780%22%20width%3D%22800%22%20height%3D%22610%22%20as%3D%22geometry%22%2F%3E%3C%2FmxCell%3E%3CmxCell%20id%3D%223%22%20value%3D%22%22%20style%3D%22group%22%20vertex%3D%221%22%20connectable%3D%220%22%20parent%3D%222%22%3E%3CmxGeometry%20width%3D%22800%22%20height%3D%22610%22%20as%3D%22geometry%22%2F%3E%3C%2FmxCell%3E%3CmxCell%20id%3D%224%22%20value%3D%22FF_val%20%2B%26amp%3Bnbsp%3B%26lt%3Bbr%26gt%3B(pwr_state(0)%20%26amp%3Bamp%3B%20power_state_arr(0))%20%2B%26lt%3Bbr%26gt%3B(pwr_state(1)%20%26amp%3Bamp%3B%20power_state_arr(1))%20%2B%26amp%3Bnbsp%3B%26lt%3Bbr%26gt%3B...%26lt%3Bbr%26gt%3B(pwr_state(%26lt%3Bspan%26gt%3BNUM_PWR_STATES%20-1)%20%26amp%3Bamp%3B%20power_state_arr(NUM_PWR_STATES-1))%26lt%3B%2Fspan%26gt%3B%22%20style%3D%22rounded%3D0%3BwhiteSpace%3Dwrap%3Bhtml%3D1%3B%22%20vertex%3D%221%22%20parent%3D%223%22%3E%3CmxGeometry%20width%3D%22800%22%20height%3D%22610%22%20as%3D%22geometry%22%2F%3E%3C%2FmxCell%3E%3CmxCell%20id%3D%225%22%20style%3D%22edgeStyle%3DorthogonalEdgeStyle%3Brounded%3D0%3BorthogonalLoop%3D1%3BjettySize%3Dauto%3Bhtml%3D1%3BexitX%3D0.5%3BexitY%3D0%3BexitDx%3D0%3BexitDy%3D0%3BentryX%3D0.25%3BentryY%3D1%3BentryDx%3D0%3BentryDy%3D0%3BstrokeWidth%3D3%3B%22%20edge%3D%221%22%20parent%3D%223%22%20source%3D%226%22%20target%3D%227%22%3E%3CmxGeometry%20relative%3D%221%22%20as%3D%22geometry%22%3E%3CArray%20as%3D%22points%22%3E%3CmxPoint%20x%3D%22708%22%20y%3D%2230%22%2F%3E%3CmxPoint%20x%3D%22350%22%20y%3D%2230%22%2F%3E%3CmxPoint%20x%3D%22350%22%20y%3D%22110%22%2F%3E%3C%2FArray%3E%3C%2FmxGeometry%3E%3C%2FmxCell%3E%3CmxCell%20id%3D%226%22%20value%3D%22P%26lt%3Bbr%26gt%3BW%26lt%3Bbr%26gt%3BR%26lt%3Bbr%26gt%3B%26lt%3Bbr%26gt%3BA%26lt%3Bbr%26gt%3BP%26lt%3Bbr%26gt%3BR%26lt%3Bbr%26gt%3BO%26lt%3Bbr%26gt%3BX%26lt%3Bbr%26gt%3B%26lt%3Bbr%26gt%3BR%26lt%3Bbr%26gt%3BE%26lt%3Bbr%26gt%3BG%22%20style%3D%22rounded%3D0%3BwhiteSpace%3Dwrap%3Bhtml%3D1%3BstrokeColor%3D%2382b366%3BstrokeWidth%3D2%3BfillColor%3D%23d5e8d4%3B%22%20vertex%3D%221%22%20parent%3D%223%22%3E%3CmxGeometry%20x%3D%22667.5%22%20y%3D%2250%22%20width%3D%2280%22%20height%3D%22460%22%20as%3D%22geometry%22%2F%3E%3C%2FmxCell%3E%3CmxCell%20id%3D%227%22%20value%3D%22SUM%22%20style%3D%22shape%3Dtrapezoid%3Bperimeter%3DtrapezoidPerimeter%3BwhiteSpace%3Dwrap%3Bhtml%3D1%3Bdirection%3Dsouth%3B%22%20vertex%3D%221%22%20parent%3D%223%22%3E%3CmxGeometry%20x%3D%22370%22%20y%3D%2270%22%20width%3D%2260%22%20height%3D%22160%22%20as%3D%22geometry%22%2F%3E%3C%2FmxCell%3E%3CmxCell%20id%3D%228%22%20style%3D%22edgeStyle%3DorthogonalEdgeStyle%3Brounded%3D0%3BorthogonalLoop%3D1%3BjettySize%3Dauto%3Bhtml%3D1%3BexitX%3D1%3BexitY%3D0.5%3BexitDx%3D0%3BexitDy%3D0%3BexitPerimeter%3D0%3BentryX%3D0.5%3BentryY%3D1%3BentryDx%3D0%3BentryDy%3D0%3B%22%20edge%3D%221%22%20parent%3D%223%22%20source%3D%229%22%20target%3D%227%22%3E%3CmxGeometry%20relative%3D%221%22%20as%3D%22geometry%22%2F%3E%3C%2FmxCell%3E%3CmxCell%20id%3D%229%22%20value%3D%22%22%20style%3D%22shape%3Dor%3BwhiteSpace%3Dwrap%3Bhtml%3D1%3BstrokeColor%3D%23000000%3BstrokeWidth%3D2%3B%22%20vertex%3D%221%22%20parent%3D%223%22%3E%3CmxGeometry%20x%3D%22170%22%20y%3D%22120%22%20width%3D%2260%22%20height%3D%2260%22%20as%3D%22geometry%22%2F%3E%3C%2FmxCell%3E%3CmxCell%20id%3D%2210%22%20value%3D%22%22%20style%3D%22endArrow%3Dnone%3Bhtml%3D1%3BentryX%3D0%3BentryY%3D0.25%3BentryDx%3D0%3BentryDy%3D0%3BentryPerimeter%3D0%3B%22%20edge%3D%221%22%20parent%3D%223%22%20target%3D%229%22%3E%3CmxGeometry%20width%3D%2250%22%20height%3D%2250%22%20relative%3D%221%22%20as%3D%22geometry%22%3E%3CmxPoint%20x%3D%22130%22%20y%3D%22135%22%20as%3D%22sourcePoint%22%2F%3E%3CmxPoint%20x%3D%22120%22%20y%3D%22100%22%20as%3D%22targetPoint%22%2F%3E%3C%2FmxGeometry%3E%3C%2FmxCell%3E%3CmxCell%20id%3D%2211%22%20value%3D%22%22%20style%3D%22endArrow%3Dnone%3Bhtml%3D1%3BentryX%3D0%3BentryY%3D0.75%3BentryDx%3D0%3BentryDy%3D0%3BentryPerimeter%3D0%3BexitX%3D0.163%3BexitY%3D0.27%3BexitDx%3D0%3BexitDy%3D0%3BexitPerimeter%3D0%3B%22%20edge%3D%221%22%20parent%3D%223%22%20source%3D%224%22%20target%3D%229%22%3E%3CmxGeometry%20width%3D%2250%22%20height%3D%2250%22%20relative%3D%221%22%20as%3D%22geometry%22%3E%3CmxPoint%20x%3D%22140%22%20y%3D%22143%22%20as%3D%22sourcePoint%22%2F%3E%3CmxPoint%20x%3D%22170%22%20y%3D%22140%22%20as%3D%22targetPoint%22%2F%3E%3C%2FmxGeometry%3E%3C%2FmxCell%3E%3CmxCell%20id%3D%2212%22%20value%3D%22pwr_state(0)%22%20style%3D%22text%3Bhtml%3D1%3BstrokeColor%3Dnone%3BfillColor%3Dnone%3Balign%3Dcenter%3BverticalAlign%3Dmiddle%3BwhiteSpace%3Dwrap%3Brounded%3D0%3B%22%20vertex%3D%221%22%20parent%3D%223%22%3E%3CmxGeometry%20x%3D%2270%22%20y%3D%22120%22%20width%3D%2240%22%20height%3D%2220%22%20as%3D%22geometry%22%2F%3E%3C%2FmxCell%3E%3CmxCell%20id%3D%2213%22%20value%3D%22%26lt%3Bmeta%20http-equiv%3D%26quot%3Bcontent-type%26quot%3B%20content%3D%26quot%3Btext%2Fhtml%3B%20charset%3Dutf-8%26quot%3B%26gt%3B%26lt%3Bspan%20style%3D%26quot%3Bfont-family%3A%20Helvetica%3B%20font-size%3A%2012px%3B%20font-style%3A%20normal%3B%20font-variant-ligatures%3A%20normal%3B%20font-variant-caps%3A%20normal%3B%20font-weight%3A%20400%3B%20letter-spacing%3A%20normal%3B%20orphans%3A%202%3B%20text-align%3A%20center%3B%20text-indent%3A%200px%3B%20text-transform%3A%20none%3B%20widows%3A%202%3B%20word-spacing%3A%200px%3B%20-webkit-text-stroke-width%3A%200px%3B%20text-decoration-style%3A%20initial%3B%20text-decoration-color%3A%20initial%3B%20float%3A%20none%3B%20display%3A%20inline%20!important%3B%26quot%3B%26gt%3Bpower_state_arr(0)%26lt%3B%2Fspan%26gt%3B%22%20style%3D%22text%3Bhtml%3D1%3BstrokeColor%3Dnone%3BfillColor%3Dnone%3Balign%3Dcenter%3BverticalAlign%3Dmiddle%3BwhiteSpace%3Dwrap%3Brounded%3D0%3B%22%20vertex%3D%221%22%20parent%3D%223%22%3E%3CmxGeometry%20x%3D%2250%22%20y%3D%22150%22%20width%3D%2240%22%20height%3D%2220%22%20as%3D%22geometry%22%2F%3E%3C%2FmxCell%3E%3CmxCell%20id%3D%2214%22%20style%3D%22edgeStyle%3DorthogonalEdgeStyle%3Brounded%3D0%3BorthogonalLoop%3D1%3BjettySize%3Dauto%3Bhtml%3D1%3BexitX%3D1%3BexitY%3D0.5%3BexitDx%3D0%3BexitDy%3D0%3BendArrow%3Dnone%3BendFill%3D0%3BstrokeWidth%3D4%3B%22%20edge%3D%221%22%20parent%3D%222%22%20source%3D%226%22%3E%3CmxGeometry%20relative%3D%221%22%20as%3D%22geometry%22%3E%3CmxPoint%20x%3D%22710%22%20y%3D%22289.94444444444434%22%20as%3D%22targetPoint%22%2F%3E%3C%2FmxGeometry%3E%3C%2FmxCell%3E%3C%2Froot%3E%3C%2FmxGraphModel%3E&lt;/span&gt;&lt;span style=&quot;font-family: monospace ; font-size: 0px&quot;&gt;%3CmxGraphModel%3E%3Croot%3E%3CmxCell%20id%3D%220%22%2F%3E%3CmxCell%20id%3D%221%22%20parent%3D%220%22%2F%3E%3CmxCell%20id%3D%222%22%20value%3D%22%22%20style%3D%22group%22%20vertex%3D%221%22%20connectable%3D%220%22%20parent%3D%221%22%3E%3CmxGeometry%20x%3D%22330%22%20y%3D%22780%22%20width%3D%22800%22%20height%3D%22610%22%20as%3D%22geometry%22%2F%3E%3C%2FmxCell%3E%3CmxCell%20id%3D%223%22%20value%3D%22%22%20style%3D%22group%22%20vertex%3D%221%22%20connectable%3D%220%22%20parent%3D%222%22%3E%3CmxGeometry%20width%3D%22800%22%20height%3D%22610%22%20as%3D%22geometry%22%2F%3E%3C%2FmxCell%3E%3CmxCell%20id%3D%224%22%20value%3D%22FF_val%20%2B%26amp%3Bnbsp%3B%26lt%3Bbr%26gt%3B(pwr_state(0)%20%26amp%3Bamp%3B%20power_state_arr(0))%20%2B%26lt%3Bbr%26gt%3B(pwr_state(1)%20%26amp%3Bamp%3B%20power_state_arr(1))%20%2B%26amp%3Bnbsp%3B%26lt%3Bbr%26gt%3B...%26lt%3Bbr%26gt%3B(pwr_state(%26lt%3Bspan%26gt%3BNUM_PWR_STATES%20-1)%20%26amp%3Bamp%3B%20power_state_arr(NUM_PWR_STATES-1))%26lt%3B%2Fspan%26gt%3B%22%20style%3D%22rounded%3D0%3BwhiteSpace%3Dwrap%3Bhtml%3D1%3B%22%20vertex%3D%221%22%20parent%3D%223%22%3E%3CmxGeometry%20width%3D%22800%22%20height%3D%22610%22%20as%3D%22geometry%22%2F%3E%3C%2FmxCell%3E%3CmxCell%20id%3D%225%22%20style%3D%22edgeStyle%3DorthogonalEdgeStyle%3Brounded%3D0%3BorthogonalLoop%3D1%3BjettySize%3Dauto%3Bhtml%3D1%3BexitX%3D0.5%3BexitY%3D0%3BexitDx%3D0%3BexitDy%3D0%3BentryX%3D0.25%3BentryY%3D1%3BentryDx%3D0%3BentryDy%3D0%3BstrokeWidth%3D3%3B%22%20edge%3D%221%22%20parent%3D%223%22%20source%3D%226%22%20target%3D%227%22%3E%3CmxGeometry%20relative%3D%221%22%20as%3D%22geometry%22%3E%3CArray%20as%3D%22points%22%3E%3CmxPoint%20x%3D%22708%22%20y%3D%2230%22%2F%3E%3CmxPoint%20x%3D%22350%22%20y%3D%2230%22%2F%3E%3CmxPoint%20x%3D%22350%22%20y%3D%22110%22%2F%3E%3C%2FArray%3E%3C%2FmxGeometry%3E%3C%2FmxCell%3E%3CmxCell%20id%3D%226%22%20value%3D%22P%26lt%3Bbr%26gt%3BW%26lt%3Bbr%26gt%3BR%26lt%3Bbr%26gt%3B%26lt%3Bbr%26gt%3BA%26lt%3Bbr%26gt%3BP%26lt%3Bbr%26gt%3BR%26lt%3Bbr%26gt%3BO%26lt%3Bbr%26gt%3BX%26lt%3Bbr%26gt%3B%26lt%3Bbr%26gt%3BR%26lt%3Bbr%26gt%3BE%26lt%3Bbr%26gt%3BG%22%20style%3D%22rounded%3D0%3BwhiteSpace%3Dwrap%3Bhtml%3D1%3BstrokeColor%3D%2382b366%3BstrokeWidth%3D2%3BfillColor%3D%23d5e8d4%3B%22%20vertex%3D%221%22%20parent%3D%223%22%3E%3CmxGeometry%20x%3D%22667.5%22%20y%3D%2250%22%20width%3D%2280%22%20height%3D%22460%22%20as%3D%22geometry%22%2F%3E%3C%2FmxCell%3E%3CmxCell%20id%3D%227%22%20value%3D%22SUM%22%20style%3D%22shape%3Dtrapezoid%3Bperimeter%3DtrapezoidPerimeter%3BwhiteSpace%3Dwrap%3Bhtml%3D1%3Bdirection%3Dsouth%3B%22%20vertex%3D%221%22%20parent%3D%223%22%3E%3CmxGeometry%20x%3D%22370%22%20y%3D%2270%22%20width%3D%2260%22%20height%3D%22160%22%20as%3D%22geometry%22%2F%3E%3C%2FmxCell%3E%3CmxCell%20id%3D%228%22%20style%3D%22edgeStyle%3DorthogonalEdgeStyle%3Brounded%3D0%3BorthogonalLoop%3D1%3BjettySize%3Dauto%3Bhtml%3D1%3BexitX%3D1%3BexitY%3D0.5%3BexitDx%3D0%3BexitDy%3D0%3BexitPerimeter%3D0%3BentryX%3D0.5%3BentryY%3D1%3BentryDx%3D0%3BentryDy%3D0%3B%22%20edge%3D%221%22%20parent%3D%223%22%20source%3D%229%22%20target%3D%227%22%3E%3CmxGeometry%20relative%3D%221%22%20as%3D%22geometry%22%2F%3E%3C%2FmxCell%3E%3CmxCell%20id%3D%229%22%20value%3D%22%22%20style%3D%22shape%3Dor%3BwhiteSpace%3Dwrap%3Bhtml%3D1%3BstrokeColor%3D%23000000%3BstrokeWidth%3D2%3B%22%20vertex%3D%221%22%20parent%3D%223%22%3E%3CmxGeometry%20x%3D%22170%22%20y%3D%22120%22%20width%3D%2260%22%20height%3D%2260%22%20as%3D%22geometry%22%2F%3E%3C%2FmxCell%3E%3CmxCell%20id%3D%2210%22%20value%3D%22%22%20style%3D%22endArrow%3Dnone%3Bhtml%3D1%3BentryX%3D0%3BentryY%3D0.25%3BentryDx%3D0%3BentryDy%3D0%3BentryPerimeter%3D0%3B%22%20edge%3D%221%22%20parent%3D%223%22%20target%3D%229%22%3E%3CmxGeometry%20width%3D%2250%22%20height%3D%2250%22%20relative%3D%221%22%20as%3D%22geometry%22%3E%3CmxPoint%20x%3D%22130%22%20y%3D%22135%22%20as%3D%22sourcePoint%22%2F%3E%3CmxPoint%20x%3D%22120%22%20y%3D%22100%22%20as%3D%22targetPoint%22%2F%3E%3C%2FmxGeometry%3E%3C%2FmxCell%3E%3CmxCell%20id%3D%2211%22%20value%3D%22%22%20style%3D%22endArrow%3Dnone%3Bhtml%3D1%3BentryX%3D0%3BentryY%3D0.75%3BentryDx%3D0%3BentryDy%3D0%3BentryPerimeter%3D0%3BexitX%3D0.163%3BexitY%3D0.27%3BexitDx%3D0%3BexitDy%3D0%3BexitPerimeter%3D0%3B%22%20edge%3D%221%22%20parent%3D%223%22%20source%3D%224%22%20target%3D%229%22%3E%3CmxGeometry%20width%3D%2250%22%20height%3D%2250%22%20relative%3D%221%22%20as%3D%22geometry%22%3E%3CmxPoint%20x%3D%22140%22%20y%3D%22143%22%20as%3D%22sourcePoint%22%2F%3E%3CmxPoint%20x%3D%22170%22%20y%3D%22140%22%20as%3D%22targetPoint%22%2F%3E%3C%2FmxGeometry%3E%3C%2FmxCell%3E%3CmxCell%20id%3D%2212%22%20value%3D%22pwr_state(0)%22%20style%3D%22text%3Bhtml%3D1%3BstrokeColor%3Dnone%3BfillColor%3Dnone%3Balign%3Dcenter%3BverticalAlign%3Dmiddle%3BwhiteSpace%3Dwrap%3Brounded%3D0%3B%22%20vertex%3D%221%22%20parent%3D%223%22%3E%3CmxGeometry%20x%3D%2270%22%20y%3D%22120%22%20width%3D%2240%22%20height%3D%2220%22%20as%3D%22geometry%22%2F%3E%3C%2FmxCell%3E%3CmxCell%20id%3D%2213%22%20value%3D%22%26lt%3Bmeta%20http-equiv%3D%26quot%3Bcontent-type%26quot%3B%20content%3D%26quot%3Btext%2Fhtml%3B%20charset%3Dutf-8%26quot%3B%26gt%3B%26lt%3Bspan%20style%3D%26quot%3Bfont-family%3A%20Helvetica%3B%20font-size%3A%2012px%3B%20font-style%3A%20normal%3B%20font-variant-ligatures%3A%20normal%3B%20font-variant-caps%3A%20normal%3B%20font-weight%3A%20400%3B%20letter-spacing%3A%20normal%3B%20orphans%3A%202%3B%20text-align%3A%20center%3B%20text-indent%3A%200px%3B%20text-transform%3A%20none%3B%20widows%3A%202%3B%20word-spacing%3A%200px%3B%20-webkit-text-stroke-width%3A%200px%3B%20text-decoration-style%3A%20initial%3B%20text-decoration-color%3A%20initial%3B%20float%3A%20none%3B%20display%3A%20inline%20!important%3B%26quot%3B%26gt%3Bpower_state_arr(0)%26lt%3B%2Fspan%26gt%3B%22%20style%3D%22text%3Bhtml%3D1%3BstrokeColor%3Dnone%3BfillColor%3Dnone%3Balign%3Dcenter%3BverticalAlign%3Dmiddle%3BwhiteSpace%3Dwrap%3Brounded%3D0%3B%22%20vertex%3D%221%22%20parent%3D%223%22%3E%3CmxGeometry%20x%3D%2250%22%20y%3D%22150%22%20width%3D%2240%22%20height%3D%2220%22%20as%3D%22geometry%22%2F%3E%3C%2FmxCell%3E%3CmxCell%20id%3D%2214%22%20style%3D%22edgeStyle%3DorthogonalEdgeStyle%3Brounded%3D0%3BorthogonalLoop%3D1%3BjettySize%3Dauto%3Bhtml%3D1%3BexitX%3D1%3BexitY%3D0.5%3BexitDx%3D0%3BexitDy%3D0%3BendArrow%3Dnone%3BendFill%3D0%3BstrokeWidth%3D4%3B%22%20edge%3D%221%22%20parent%3D%222%22%20source%3D%226%22%3E%3CmxGeometry%20relative%3D%221%22%20as%3D%22geometry%22%3E%3CmxPoint%20x%3D%22710%22%20y%3D%22289.94444444444434%22%20as%3D%22targetPoint%22%2F%3E%3C%2FmxGeometry%3E%3C%2FmxCell%3E%3C%2Froot%3E%3C%2FmxGraphModel%3E&lt;/span&gt;" style="shape=or;whiteSpace=wrap;html=1;strokeColor=#000000;strokeWidth=2;" parent="15j-5euzx9YOIgts3s7C-3" vertex="1">
                    <mxGeometry x="185" y="145" width="60" height="60" as="geometry"/>
                </mxCell>
                <mxCell id="15j-5euzx9YOIgts3s7C-17" value="" style="endArrow=none;html=1;entryX=0;entryY=0.25;entryDx=0;entryDy=0;entryPerimeter=0;" parent="15j-5euzx9YOIgts3s7C-3" edge="1">
                    <mxGeometry width="50" height="50" relative="1" as="geometry">
                        <mxPoint x="145" y="154.88" as="sourcePoint"/>
                        <mxPoint x="185" y="154.88" as="targetPoint"/>
                    </mxGeometry>
                </mxCell>
                <mxCell id="15j-5euzx9YOIgts3s7C-18" value="" style="endArrow=none;html=1;entryX=0;entryY=0.75;entryDx=0;entryDy=0;entryPerimeter=0;exitX=0.163;exitY=0.27;exitDx=0;exitDy=0;exitPerimeter=0;" parent="15j-5euzx9YOIgts3s7C-3" edge="1">
                    <mxGeometry width="50" height="50" relative="1" as="geometry">
                        <mxPoint x="145.39999999999986" y="194.99999999999977" as="sourcePoint"/>
                        <mxPoint x="185" y="195.29999999999995" as="targetPoint"/>
                    </mxGeometry>
                </mxCell>
                <mxCell id="15j-5euzx9YOIgts3s7C-19" value="pwr_state(0)" style="text;html=1;strokeColor=none;fillColor=none;align=center;verticalAlign=middle;whiteSpace=wrap;rounded=0;" parent="15j-5euzx9YOIgts3s7C-3" vertex="1">
                    <mxGeometry x="85" y="145" width="40" height="20" as="geometry"/>
                </mxCell>
                <mxCell id="15j-5euzx9YOIgts3s7C-20" value="&lt;span style=&quot;font-family: &amp;#34;helvetica&amp;#34; ; font-size: 12px ; font-style: normal ; font-weight: 400 ; letter-spacing: normal ; text-align: center ; text-indent: 0px ; text-transform: none ; word-spacing: 0px ; float: none ; display: inline&quot;&gt;power_state_arr(0)&lt;/span&gt;" style="text;html=1;strokeColor=none;fillColor=none;align=center;verticalAlign=middle;whiteSpace=wrap;rounded=0;" parent="15j-5euzx9YOIgts3s7C-3" vertex="1">
                    <mxGeometry x="65" y="185" width="40" height="20" as="geometry"/>
                </mxCell>
                <mxCell id="15j-5euzx9YOIgts3s7C-59" style="edgeStyle=orthogonalEdgeStyle;rounded=0;orthogonalLoop=1;jettySize=auto;html=1;exitX=1;exitY=0.5;exitDx=0;exitDy=0;exitPerimeter=0;entryX=0.75;entryY=1;entryDx=0;entryDy=0;endArrow=none;endFill=0;strokeWidth=1;" parent="15j-5euzx9YOIgts3s7C-3" source="15j-5euzx9YOIgts3s7C-22" target="15j-5euzx9YOIgts3s7C-57" edge="1">
                    <mxGeometry relative="1" as="geometry"/>
                </mxCell>
                <mxCell id="15j-5euzx9YOIgts3s7C-22" value="&lt;span style=&quot;font-family: monospace ; font-size: 0px&quot;&gt;%3CmxGraphModel%3E%3Croot%3E%3CmxCell%20id%3D%220%22%2F%3E%3CmxCell%20id%3D%221%22%20parent%3D%220%22%2F%3E%3CmxCell%20id%3D%222%22%20value%3D%22%22%20style%3D%22group%22%20vertex%3D%221%22%20connectable%3D%220%22%20parent%3D%221%22%3E%3CmxGeometry%20x%3D%22330%22%20y%3D%22780%22%20width%3D%22800%22%20height%3D%22610%22%20as%3D%22geometry%22%2F%3E%3C%2FmxCell%3E%3CmxCell%20id%3D%223%22%20value%3D%22%22%20style%3D%22group%22%20vertex%3D%221%22%20connectable%3D%220%22%20parent%3D%222%22%3E%3CmxGeometry%20width%3D%22800%22%20height%3D%22610%22%20as%3D%22geometry%22%2F%3E%3C%2FmxCell%3E%3CmxCell%20id%3D%224%22%20value%3D%22FF_val%20%2B%26amp%3Bnbsp%3B%26lt%3Bbr%26gt%3B(pwr_state(0)%20%26amp%3Bamp%3B%20power_state_arr(0))%20%2B%26lt%3Bbr%26gt%3B(pwr_state(1)%20%26amp%3Bamp%3B%20power_state_arr(1))%20%2B%26amp%3Bnbsp%3B%26lt%3Bbr%26gt%3B...%26lt%3Bbr%26gt%3B(pwr_state(%26lt%3Bspan%26gt%3BNUM_PWR_STATES%20-1)%20%26amp%3Bamp%3B%20power_state_arr(NUM_PWR_STATES-1))%26lt%3B%2Fspan%26gt%3B%22%20style%3D%22rounded%3D0%3BwhiteSpace%3Dwrap%3Bhtml%3D1%3B%22%20vertex%3D%221%22%20parent%3D%223%22%3E%3CmxGeometry%20width%3D%22800%22%20height%3D%22610%22%20as%3D%22geometry%22%2F%3E%3C%2FmxCell%3E%3CmxCell%20id%3D%225%22%20style%3D%22edgeStyle%3DorthogonalEdgeStyle%3Brounded%3D0%3BorthogonalLoop%3D1%3BjettySize%3Dauto%3Bhtml%3D1%3BexitX%3D0.5%3BexitY%3D0%3BexitDx%3D0%3BexitDy%3D0%3BentryX%3D0.25%3BentryY%3D1%3BentryDx%3D0%3BentryDy%3D0%3BstrokeWidth%3D3%3B%22%20edge%3D%221%22%20parent%3D%223%22%20source%3D%226%22%20target%3D%227%22%3E%3CmxGeometry%20relative%3D%221%22%20as%3D%22geometry%22%3E%3CArray%20as%3D%22points%22%3E%3CmxPoint%20x%3D%22708%22%20y%3D%2230%22%2F%3E%3CmxPoint%20x%3D%22350%22%20y%3D%2230%22%2F%3E%3CmxPoint%20x%3D%22350%22%20y%3D%22110%22%2F%3E%3C%2FArray%3E%3C%2FmxGeometry%3E%3C%2FmxCell%3E%3CmxCell%20id%3D%226%22%20value%3D%22P%26lt%3Bbr%26gt%3BW%26lt%3Bbr%26gt%3BR%26lt%3Bbr%26gt%3B%26lt%3Bbr%26gt%3BA%26lt%3Bbr%26gt%3BP%26lt%3Bbr%26gt%3BR%26lt%3Bbr%26gt%3BO%26lt%3Bbr%26gt%3BX%26lt%3Bbr%26gt%3B%26lt%3Bbr%26gt%3BR%26lt%3Bbr%26gt%3BE%26lt%3Bbr%26gt%3BG%22%20style%3D%22rounded%3D0%3BwhiteSpace%3Dwrap%3Bhtml%3D1%3BstrokeColor%3D%2382b366%3BstrokeWidth%3D2%3BfillColor%3D%23d5e8d4%3B%22%20vertex%3D%221%22%20parent%3D%223%22%3E%3CmxGeometry%20x%3D%22667.5%22%20y%3D%2250%22%20width%3D%2280%22%20height%3D%22460%22%20as%3D%22geometry%22%2F%3E%3C%2FmxCell%3E%3CmxCell%20id%3D%227%22%20value%3D%22SUM%22%20style%3D%22shape%3Dtrapezoid%3Bperimeter%3DtrapezoidPerimeter%3BwhiteSpace%3Dwrap%3Bhtml%3D1%3Bdirection%3Dsouth%3B%22%20vertex%3D%221%22%20parent%3D%223%22%3E%3CmxGeometry%20x%3D%22370%22%20y%3D%2270%22%20width%3D%2260%22%20height%3D%22160%22%20as%3D%22geometry%22%2F%3E%3C%2FmxCell%3E%3CmxCell%20id%3D%228%22%20style%3D%22edgeStyle%3DorthogonalEdgeStyle%3Brounded%3D0%3BorthogonalLoop%3D1%3BjettySize%3Dauto%3Bhtml%3D1%3BexitX%3D1%3BexitY%3D0.5%3BexitDx%3D0%3BexitDy%3D0%3BexitPerimeter%3D0%3BentryX%3D0.5%3BentryY%3D1%3BentryDx%3D0%3BentryDy%3D0%3B%22%20edge%3D%221%22%20parent%3D%223%22%20source%3D%229%22%20target%3D%227%22%3E%3CmxGeometry%20relative%3D%221%22%20as%3D%22geometry%22%2F%3E%3C%2FmxCell%3E%3CmxCell%20id%3D%229%22%20value%3D%22%22%20style%3D%22shape%3Dor%3BwhiteSpace%3Dwrap%3Bhtml%3D1%3BstrokeColor%3D%23000000%3BstrokeWidth%3D2%3B%22%20vertex%3D%221%22%20parent%3D%223%22%3E%3CmxGeometry%20x%3D%22170%22%20y%3D%22120%22%20width%3D%2260%22%20height%3D%2260%22%20as%3D%22geometry%22%2F%3E%3C%2FmxCell%3E%3CmxCell%20id%3D%2210%22%20value%3D%22%22%20style%3D%22endArrow%3Dnone%3Bhtml%3D1%3BentryX%3D0%3BentryY%3D0.25%3BentryDx%3D0%3BentryDy%3D0%3BentryPerimeter%3D0%3B%22%20edge%3D%221%22%20parent%3D%223%22%20target%3D%229%22%3E%3CmxGeometry%20width%3D%2250%22%20height%3D%2250%22%20relative%3D%221%22%20as%3D%22geometry%22%3E%3CmxPoint%20x%3D%22130%22%20y%3D%22135%22%20as%3D%22sourcePoint%22%2F%3E%3CmxPoint%20x%3D%22120%22%20y%3D%22100%22%20as%3D%22targetPoint%22%2F%3E%3C%2FmxGeometry%3E%3C%2FmxCell%3E%3CmxCell%20id%3D%2211%22%20value%3D%22%22%20style%3D%22endArrow%3Dnone%3Bhtml%3D1%3BentryX%3D0%3BentryY%3D0.75%3BentryDx%3D0%3BentryDy%3D0%3BentryPerimeter%3D0%3BexitX%3D0.163%3BexitY%3D0.27%3BexitDx%3D0%3BexitDy%3D0%3BexitPerimeter%3D0%3B%22%20edge%3D%221%22%20parent%3D%223%22%20source%3D%224%22%20target%3D%229%22%3E%3CmxGeometry%20width%3D%2250%22%20height%3D%2250%22%20relative%3D%221%22%20as%3D%22geometry%22%3E%3CmxPoint%20x%3D%22140%22%20y%3D%22143%22%20as%3D%22sourcePoint%22%2F%3E%3CmxPoint%20x%3D%22170%22%20y%3D%22140%22%20as%3D%22targetPoint%22%2F%3E%3C%2FmxGeometry%3E%3C%2FmxCell%3E%3CmxCell%20id%3D%2212%22%20value%3D%22pwr_state(0)%22%20style%3D%22text%3Bhtml%3D1%3BstrokeColor%3Dnone%3BfillColor%3Dnone%3Balign%3Dcenter%3BverticalAlign%3Dmiddle%3BwhiteSpace%3Dwrap%3Brounded%3D0%3B%22%20vertex%3D%221%22%20parent%3D%223%22%3E%3CmxGeometry%20x%3D%2270%22%20y%3D%22120%22%20width%3D%2240%22%20height%3D%2220%22%20as%3D%22geometry%22%2F%3E%3C%2FmxCell%3E%3CmxCell%20id%3D%2213%22%20value%3D%22%26lt%3Bmeta%20http-equiv%3D%26quot%3Bcontent-type%26quot%3B%20content%3D%26quot%3Btext%2Fhtml%3B%20charset%3Dutf-8%26quot%3B%26gt%3B%26lt%3Bspan%20style%3D%26quot%3Bfont-family%3A%20Helvetica%3B%20font-size%3A%2012px%3B%20font-style%3A%20normal%3B%20font-variant-ligatures%3A%20normal%3B%20font-variant-caps%3A%20normal%3B%20font-weight%3A%20400%3B%20letter-spacing%3A%20normal%3B%20orphans%3A%202%3B%20text-align%3A%20center%3B%20text-indent%3A%200px%3B%20text-transform%3A%20none%3B%20widows%3A%202%3B%20word-spacing%3A%200px%3B%20-webkit-text-stroke-width%3A%200px%3B%20text-decoration-style%3A%20initial%3B%20text-decoration-color%3A%20initial%3B%20float%3A%20none%3B%20display%3A%20inline%20!important%3B%26quot%3B%26gt%3Bpower_state_arr(0)%26lt%3B%2Fspan%26gt%3B%22%20style%3D%22text%3Bhtml%3D1%3BstrokeColor%3Dnone%3BfillColor%3Dnone%3Balign%3Dcenter%3BverticalAlign%3Dmiddle%3BwhiteSpace%3Dwrap%3Brounded%3D0%3B%22%20vertex%3D%221%22%20parent%3D%223%22%3E%3CmxGeometry%20x%3D%2250%22%20y%3D%22150%22%20width%3D%2240%22%20height%3D%2220%22%20as%3D%22geometry%22%2F%3E%3C%2FmxCell%3E%3CmxCell%20id%3D%2214%22%20style%3D%22edgeStyle%3DorthogonalEdgeStyle%3Brounded%3D0%3BorthogonalLoop%3D1%3BjettySize%3Dauto%3Bhtml%3D1%3BexitX%3D1%3BexitY%3D0.5%3BexitDx%3D0%3BexitDy%3D0%3BendArrow%3Dnone%3BendFill%3D0%3BstrokeWidth%3D4%3B%22%20edge%3D%221%22%20parent%3D%222%22%20source%3D%226%22%3E%3CmxGeometry%20relative%3D%221%22%20as%3D%22geometry%22%3E%3CmxPoint%20x%3D%22710%22%20y%3D%22289.94444444444434%22%20as%3D%22targetPoint%22%2F%3E%3C%2FmxGeometry%3E%3C%2FmxCell%3E%3C%2Froot%3E%3C%2FmxGraphModel%3E&lt;/span&gt;&lt;span style=&quot;font-family: monospace ; font-size: 0px&quot;&gt;%3CmxGraphModel%3E%3Croot%3E%3CmxCell%20id%3D%220%22%2F%3E%3CmxCell%20id%3D%221%22%20parent%3D%220%22%2F%3E%3CmxCell%20id%3D%222%22%20value%3D%22%22%20style%3D%22group%22%20vertex%3D%221%22%20connectable%3D%220%22%20parent%3D%221%22%3E%3CmxGeometry%20x%3D%22330%22%20y%3D%22780%22%20width%3D%22800%22%20height%3D%22610%22%20as%3D%22geometry%22%2F%3E%3C%2FmxCell%3E%3CmxCell%20id%3D%223%22%20value%3D%22%22%20style%3D%22group%22%20vertex%3D%221%22%20connectable%3D%220%22%20parent%3D%222%22%3E%3CmxGeometry%20width%3D%22800%22%20height%3D%22610%22%20as%3D%22geometry%22%2F%3E%3C%2FmxCell%3E%3CmxCell%20id%3D%224%22%20value%3D%22FF_val%20%2B%26amp%3Bnbsp%3B%26lt%3Bbr%26gt%3B(pwr_state(0)%20%26amp%3Bamp%3B%20power_state_arr(0))%20%2B%26lt%3Bbr%26gt%3B(pwr_state(1)%20%26amp%3Bamp%3B%20power_state_arr(1))%20%2B%26amp%3Bnbsp%3B%26lt%3Bbr%26gt%3B...%26lt%3Bbr%26gt%3B(pwr_state(%26lt%3Bspan%26gt%3BNUM_PWR_STATES%20-1)%20%26amp%3Bamp%3B%20power_state_arr(NUM_PWR_STATES-1))%26lt%3B%2Fspan%26gt%3B%22%20style%3D%22rounded%3D0%3BwhiteSpace%3Dwrap%3Bhtml%3D1%3B%22%20vertex%3D%221%22%20parent%3D%223%22%3E%3CmxGeometry%20width%3D%22800%22%20height%3D%22610%22%20as%3D%22geometry%22%2F%3E%3C%2FmxCell%3E%3CmxCell%20id%3D%225%22%20style%3D%22edgeStyle%3DorthogonalEdgeStyle%3Brounded%3D0%3BorthogonalLoop%3D1%3BjettySize%3Dauto%3Bhtml%3D1%3BexitX%3D0.5%3BexitY%3D0%3BexitDx%3D0%3BexitDy%3D0%3BentryX%3D0.25%3BentryY%3D1%3BentryDx%3D0%3BentryDy%3D0%3BstrokeWidth%3D3%3B%22%20edge%3D%221%22%20parent%3D%223%22%20source%3D%226%22%20target%3D%227%22%3E%3CmxGeometry%20relative%3D%221%22%20as%3D%22geometry%22%3E%3CArray%20as%3D%22points%22%3E%3CmxPoint%20x%3D%22708%22%20y%3D%2230%22%2F%3E%3CmxPoint%20x%3D%22350%22%20y%3D%2230%22%2F%3E%3CmxPoint%20x%3D%22350%22%20y%3D%22110%22%2F%3E%3C%2FArray%3E%3C%2FmxGeometry%3E%3C%2FmxCell%3E%3CmxCell%20id%3D%226%22%20value%3D%22P%26lt%3Bbr%26gt%3BW%26lt%3Bbr%26gt%3BR%26lt%3Bbr%26gt%3B%26lt%3Bbr%26gt%3BA%26lt%3Bbr%26gt%3BP%26lt%3Bbr%26gt%3BR%26lt%3Bbr%26gt%3BO%26lt%3Bbr%26gt%3BX%26lt%3Bbr%26gt%3B%26lt%3Bbr%26gt%3BR%26lt%3Bbr%26gt%3BE%26lt%3Bbr%26gt%3BG%22%20style%3D%22rounded%3D0%3BwhiteSpace%3Dwrap%3Bhtml%3D1%3BstrokeColor%3D%2382b366%3BstrokeWidth%3D2%3BfillColor%3D%23d5e8d4%3B%22%20vertex%3D%221%22%20parent%3D%223%22%3E%3CmxGeometry%20x%3D%22667.5%22%20y%3D%2250%22%20width%3D%2280%22%20height%3D%22460%22%20as%3D%22geometry%22%2F%3E%3C%2FmxCell%3E%3CmxCell%20id%3D%227%22%20value%3D%22SUM%22%20style%3D%22shape%3Dtrapezoid%3Bperimeter%3DtrapezoidPerimeter%3BwhiteSpace%3Dwrap%3Bhtml%3D1%3Bdirection%3Dsouth%3B%22%20vertex%3D%221%22%20parent%3D%223%22%3E%3CmxGeometry%20x%3D%22370%22%20y%3D%2270%22%20width%3D%2260%22%20height%3D%22160%22%20as%3D%22geometry%22%2F%3E%3C%2FmxCell%3E%3CmxCell%20id%3D%228%22%20style%3D%22edgeStyle%3DorthogonalEdgeStyle%3Brounded%3D0%3BorthogonalLoop%3D1%3BjettySize%3Dauto%3Bhtml%3D1%3BexitX%3D1%3BexitY%3D0.5%3BexitDx%3D0%3BexitDy%3D0%3BexitPerimeter%3D0%3BentryX%3D0.5%3BentryY%3D1%3BentryDx%3D0%3BentryDy%3D0%3B%22%20edge%3D%221%22%20parent%3D%223%22%20source%3D%229%22%20target%3D%227%22%3E%3CmxGeometry%20relative%3D%221%22%20as%3D%22geometry%22%2F%3E%3C%2FmxCell%3E%3CmxCell%20id%3D%229%22%20value%3D%22%22%20style%3D%22shape%3Dor%3BwhiteSpace%3Dwrap%3Bhtml%3D1%3BstrokeColor%3D%23000000%3BstrokeWidth%3D2%3B%22%20vertex%3D%221%22%20parent%3D%223%22%3E%3CmxGeometry%20x%3D%22170%22%20y%3D%22120%22%20width%3D%2260%22%20height%3D%2260%22%20as%3D%22geometry%22%2F%3E%3C%2FmxCell%3E%3CmxCell%20id%3D%2210%22%20value%3D%22%22%20style%3D%22endArrow%3Dnone%3Bhtml%3D1%3BentryX%3D0%3BentryY%3D0.25%3BentryDx%3D0%3BentryDy%3D0%3BentryPerimeter%3D0%3B%22%20edge%3D%221%22%20parent%3D%223%22%20target%3D%229%22%3E%3CmxGeometry%20width%3D%2250%22%20height%3D%2250%22%20relative%3D%221%22%20as%3D%22geometry%22%3E%3CmxPoint%20x%3D%22130%22%20y%3D%22135%22%20as%3D%22sourcePoint%22%2F%3E%3CmxPoint%20x%3D%22120%22%20y%3D%22100%22%20as%3D%22targetPoint%22%2F%3E%3C%2FmxGeometry%3E%3C%2FmxCell%3E%3CmxCell%20id%3D%2211%22%20value%3D%22%22%20style%3D%22endArrow%3Dnone%3Bhtml%3D1%3BentryX%3D0%3BentryY%3D0.75%3BentryDx%3D0%3BentryDy%3D0%3BentryPerimeter%3D0%3BexitX%3D0.163%3BexitY%3D0.27%3BexitDx%3D0%3BexitDy%3D0%3BexitPerimeter%3D0%3B%22%20edge%3D%221%22%20parent%3D%223%22%20source%3D%224%22%20target%3D%229%22%3E%3CmxGeometry%20width%3D%2250%22%20height%3D%2250%22%20relative%3D%221%22%20as%3D%22geometry%22%3E%3CmxPoint%20x%3D%22140%22%20y%3D%22143%22%20as%3D%22sourcePoint%22%2F%3E%3CmxPoint%20x%3D%22170%22%20y%3D%22140%22%20as%3D%22targetPoint%22%2F%3E%3C%2FmxGeometry%3E%3C%2FmxCell%3E%3CmxCell%20id%3D%2212%22%20value%3D%22pwr_state(0)%22%20style%3D%22text%3Bhtml%3D1%3BstrokeColor%3Dnone%3BfillColor%3Dnone%3Balign%3Dcenter%3BverticalAlign%3Dmiddle%3BwhiteSpace%3Dwrap%3Brounded%3D0%3B%22%20vertex%3D%221%22%20parent%3D%223%22%3E%3CmxGeometry%20x%3D%2270%22%20y%3D%22120%22%20width%3D%2240%22%20height%3D%2220%22%20as%3D%22geometry%22%2F%3E%3C%2FmxCell%3E%3CmxCell%20id%3D%2213%22%20value%3D%22%26lt%3Bmeta%20http-equiv%3D%26quot%3Bcontent-type%26quot%3B%20content%3D%26quot%3Btext%2Fhtml%3B%20charset%3Dutf-8%26quot%3B%26gt%3B%26lt%3Bspan%20style%3D%26quot%3Bfont-family%3A%20Helvetica%3B%20font-size%3A%2012px%3B%20font-style%3A%20normal%3B%20font-variant-ligatures%3A%20normal%3B%20font-variant-caps%3A%20normal%3B%20font-weight%3A%20400%3B%20letter-spacing%3A%20normal%3B%20orphans%3A%202%3B%20text-align%3A%20center%3B%20text-indent%3A%200px%3B%20text-transform%3A%20none%3B%20widows%3A%202%3B%20word-spacing%3A%200px%3B%20-webkit-text-stroke-width%3A%200px%3B%20text-decoration-style%3A%20initial%3B%20text-decoration-color%3A%20initial%3B%20float%3A%20none%3B%20display%3A%20inline%20!important%3B%26quot%3B%26gt%3Bpower_state_arr(0)%26lt%3B%2Fspan%26gt%3B%22%20style%3D%22text%3Bhtml%3D1%3BstrokeColor%3Dnone%3BfillColor%3Dnone%3Balign%3Dcenter%3BverticalAlign%3Dmiddle%3BwhiteSpace%3Dwrap%3Brounded%3D0%3B%22%20vertex%3D%221%22%20parent%3D%223%22%3E%3CmxGeometry%20x%3D%2250%22%20y%3D%22150%22%20width%3D%2240%22%20height%3D%2220%22%20as%3D%22geometry%22%2F%3E%3C%2FmxCell%3E%3CmxCell%20id%3D%2214%22%20style%3D%22edgeStyle%3DorthogonalEdgeStyle%3Brounded%3D0%3BorthogonalLoop%3D1%3BjettySize%3Dauto%3Bhtml%3D1%3BexitX%3D1%3BexitY%3D0.5%3BexitDx%3D0%3BexitDy%3D0%3BendArrow%3Dnone%3BendFill%3D0%3BstrokeWidth%3D4%3B%22%20edge%3D%221%22%20parent%3D%222%22%20source%3D%226%22%3E%3CmxGeometry%20relative%3D%221%22%20as%3D%22geometry%22%3E%3CmxPoint%20x%3D%22710%22%20y%3D%22289.94444444444434%22%20as%3D%22targetPoint%22%2F%3E%3C%2FmxGeometry%3E%3C%2FmxCell%3E%3C%2Froot%3E%3C%2FmxGraphModel%3E&lt;/span&gt;" style="shape=or;whiteSpace=wrap;html=1;strokeColor=#000000;strokeWidth=2;" parent="15j-5euzx9YOIgts3s7C-3" vertex="1">
                    <mxGeometry x="255" y="440" width="60" height="60" as="geometry"/>
                </mxCell>
                <mxCell id="15j-5euzx9YOIgts3s7C-23" value="pwr_state(NUM_PWR_STATES(1))" style="text;html=1;strokeColor=none;fillColor=none;align=center;verticalAlign=middle;whiteSpace=wrap;rounded=0;" parent="15j-5euzx9YOIgts3s7C-3" vertex="1">
                    <mxGeometry x="80" y="440" width="70" height="20" as="geometry"/>
                </mxCell>
                <mxCell id="15j-5euzx9YOIgts3s7C-24" value="power_state_arr(NUM_PWR_STATES(1))" style="text;html=1;strokeColor=none;fillColor=none;align=center;verticalAlign=middle;whiteSpace=wrap;rounded=0;" parent="15j-5euzx9YOIgts3s7C-3" vertex="1">
                    <mxGeometry x="105" y="490" width="40" height="20" as="geometry"/>
                </mxCell>
                <mxCell id="15j-5euzx9YOIgts3s7C-25" value="" style="endArrow=none;html=1;entryX=0;entryY=0.25;entryDx=0;entryDy=0;entryPerimeter=0;" parent="15j-5euzx9YOIgts3s7C-3" target="15j-5euzx9YOIgts3s7C-22" edge="1">
                    <mxGeometry width="50" height="50" relative="1" as="geometry">
                        <mxPoint x="215" y="455" as="sourcePoint"/>
                        <mxPoint x="185" y="360.3000000000002" as="targetPoint"/>
                    </mxGeometry>
                </mxCell>
                <mxCell id="15j-5euzx9YOIgts3s7C-26" value="" style="endArrow=none;html=1;entryX=0;entryY=0.25;entryDx=0;entryDy=0;entryPerimeter=0;" parent="15j-5euzx9YOIgts3s7C-3" edge="1">
                    <mxGeometry width="50" height="50" relative="1" as="geometry">
                        <mxPoint x="215" y="489.9000000000001" as="sourcePoint"/>
                        <mxPoint x="255" y="489.9000000000001" as="targetPoint"/>
                    </mxGeometry>
                </mxCell>
                <mxCell id="15j-5euzx9YOIgts3s7C-27" value=".&lt;br&gt;.&lt;br&gt;." style="text;html=1;strokeColor=none;fillColor=none;align=center;verticalAlign=middle;whiteSpace=wrap;rounded=0;" parent="15j-5euzx9YOIgts3s7C-3" vertex="1">
                    <mxGeometry x="90" y="340" width="40" height="40" as="geometry"/>
                </mxCell>
                <mxCell id="15j-5euzx9YOIgts3s7C-28" value="test this model if the first type is to slow" style="text;html=1;strokeColor=none;fillColor=none;align=center;verticalAlign=middle;whiteSpace=wrap;rounded=0;" parent="15j-5euzx9YOIgts3s7C-3" vertex="1">
                    <mxGeometry x="45" y="500" width="375" height="90" as="geometry"/>
                </mxCell>
                <mxCell id="15j-5euzx9YOIgts3s7C-34" style="edgeStyle=orthogonalEdgeStyle;rounded=0;orthogonalLoop=1;jettySize=auto;html=1;exitX=0.5;exitY=0;exitDx=0;exitDy=0;entryX=0.25;entryY=1;entryDx=0;entryDy=0;endArrow=none;endFill=0;" parent="15j-5euzx9YOIgts3s7C-3" source="15j-5euzx9YOIgts3s7C-29" target="15j-5euzx9YOIgts3s7C-33" edge="1">
                    <mxGeometry relative="1" as="geometry">
                        <Array as="points">
                            <mxPoint x="370" y="128"/>
                            <mxPoint x="370" y="154"/>
                        </Array>
                    </mxGeometry>
                </mxCell>
                <mxCell id="15j-5euzx9YOIgts3s7C-29" value="SUM" style="shape=trapezoid;perimeter=trapezoidPerimeter;whiteSpace=wrap;html=1;direction=south;" parent="15j-5euzx9YOIgts3s7C-3" vertex="1">
                    <mxGeometry x="290" y="40" width="60" height="175" as="geometry"/>
                </mxCell>
                <mxCell id="15j-5euzx9YOIgts3s7C-51" style="edgeStyle=orthogonalEdgeStyle;rounded=0;orthogonalLoop=1;jettySize=auto;html=1;exitX=0.5;exitY=0;exitDx=0;exitDy=0;entryX=0.25;entryY=1;entryDx=0;entryDy=0;endArrow=none;endFill=0;" parent="15j-5euzx9YOIgts3s7C-3" source="15j-5euzx9YOIgts3s7C-33" target="15j-5euzx9YOIgts3s7C-50" edge="1">
                    <mxGeometry relative="1" as="geometry"/>
                </mxCell>
                <mxCell id="15j-5euzx9YOIgts3s7C-33" value="SUM" style="shape=trapezoid;perimeter=trapezoidPerimeter;whiteSpace=wrap;html=1;direction=south;" parent="15j-5euzx9YOIgts3s7C-3" vertex="1">
                    <mxGeometry x="380" y="110" width="60" height="175" as="geometry"/>
                </mxCell>
                <mxCell id="15j-5euzx9YOIgts3s7C-47" style="edgeStyle=orthogonalEdgeStyle;rounded=0;orthogonalLoop=1;jettySize=auto;html=1;exitX=0;exitY=0.25;exitDx=0;exitDy=0;exitPerimeter=0;endArrow=none;endFill=0;" parent="15j-5euzx9YOIgts3s7C-3" source="15j-5euzx9YOIgts3s7C-42" target="15j-5euzx9YOIgts3s7C-45" edge="1">
                    <mxGeometry relative="1" as="geometry"/>
                </mxCell>
                <mxCell id="15j-5euzx9YOIgts3s7C-48" style="edgeStyle=orthogonalEdgeStyle;rounded=0;orthogonalLoop=1;jettySize=auto;html=1;exitX=0;exitY=0.75;exitDx=0;exitDy=0;exitPerimeter=0;endArrow=none;endFill=0;entryX=1;entryY=0.5;entryDx=0;entryDy=0;" parent="15j-5euzx9YOIgts3s7C-3" source="15j-5euzx9YOIgts3s7C-42" target="15j-5euzx9YOIgts3s7C-46" edge="1">
                    <mxGeometry relative="1" as="geometry">
                        <mxPoint x="140" y="310" as="targetPoint"/>
                    </mxGeometry>
                </mxCell>
                <mxCell id="15j-5euzx9YOIgts3s7C-49" style="edgeStyle=orthogonalEdgeStyle;rounded=0;orthogonalLoop=1;jettySize=auto;html=1;exitX=1;exitY=0.5;exitDx=0;exitDy=0;exitPerimeter=0;entryX=0.75;entryY=1;entryDx=0;entryDy=0;endArrow=none;endFill=0;" parent="15j-5euzx9YOIgts3s7C-3" source="15j-5euzx9YOIgts3s7C-42" target="15j-5euzx9YOIgts3s7C-33" edge="1">
                    <mxGeometry relative="1" as="geometry"/>
                </mxCell>
                <mxCell id="15j-5euzx9YOIgts3s7C-42" value="&lt;span style=&quot;font-family: monospace ; font-size: 0px&quot;&gt;%3CmxGraphModel%3E%3Croot%3E%3CmxCell%20id%3D%220%22%2F%3E%3CmxCell%20id%3D%221%22%20parent%3D%220%22%2F%3E%3CmxCell%20id%3D%222%22%20value%3D%22%22%20style%3D%22group%22%20vertex%3D%221%22%20connectable%3D%220%22%20parent%3D%221%22%3E%3CmxGeometry%20x%3D%22330%22%20y%3D%22780%22%20width%3D%22800%22%20height%3D%22610%22%20as%3D%22geometry%22%2F%3E%3C%2FmxCell%3E%3CmxCell%20id%3D%223%22%20value%3D%22%22%20style%3D%22group%22%20vertex%3D%221%22%20connectable%3D%220%22%20parent%3D%222%22%3E%3CmxGeometry%20width%3D%22800%22%20height%3D%22610%22%20as%3D%22geometry%22%2F%3E%3C%2FmxCell%3E%3CmxCell%20id%3D%224%22%20value%3D%22FF_val%20%2B%26amp%3Bnbsp%3B%26lt%3Bbr%26gt%3B(pwr_state(0)%20%26amp%3Bamp%3B%20power_state_arr(0))%20%2B%26lt%3Bbr%26gt%3B(pwr_state(1)%20%26amp%3Bamp%3B%20power_state_arr(1))%20%2B%26amp%3Bnbsp%3B%26lt%3Bbr%26gt%3B...%26lt%3Bbr%26gt%3B(pwr_state(%26lt%3Bspan%26gt%3BNUM_PWR_STATES%20-1)%20%26amp%3Bamp%3B%20power_state_arr(NUM_PWR_STATES-1))%26lt%3B%2Fspan%26gt%3B%22%20style%3D%22rounded%3D0%3BwhiteSpace%3Dwrap%3Bhtml%3D1%3B%22%20vertex%3D%221%22%20parent%3D%223%22%3E%3CmxGeometry%20width%3D%22800%22%20height%3D%22610%22%20as%3D%22geometry%22%2F%3E%3C%2FmxCell%3E%3CmxCell%20id%3D%225%22%20style%3D%22edgeStyle%3DorthogonalEdgeStyle%3Brounded%3D0%3BorthogonalLoop%3D1%3BjettySize%3Dauto%3Bhtml%3D1%3BexitX%3D0.5%3BexitY%3D0%3BexitDx%3D0%3BexitDy%3D0%3BentryX%3D0.25%3BentryY%3D1%3BentryDx%3D0%3BentryDy%3D0%3BstrokeWidth%3D3%3B%22%20edge%3D%221%22%20parent%3D%223%22%20source%3D%226%22%20target%3D%227%22%3E%3CmxGeometry%20relative%3D%221%22%20as%3D%22geometry%22%3E%3CArray%20as%3D%22points%22%3E%3CmxPoint%20x%3D%22708%22%20y%3D%2230%22%2F%3E%3CmxPoint%20x%3D%22350%22%20y%3D%2230%22%2F%3E%3CmxPoint%20x%3D%22350%22%20y%3D%22110%22%2F%3E%3C%2FArray%3E%3C%2FmxGeometry%3E%3C%2FmxCell%3E%3CmxCell%20id%3D%226%22%20value%3D%22P%26lt%3Bbr%26gt%3BW%26lt%3Bbr%26gt%3BR%26lt%3Bbr%26gt%3B%26lt%3Bbr%26gt%3BA%26lt%3Bbr%26gt%3BP%26lt%3Bbr%26gt%3BR%26lt%3Bbr%26gt%3BO%26lt%3Bbr%26gt%3BX%26lt%3Bbr%26gt%3B%26lt%3Bbr%26gt%3BR%26lt%3Bbr%26gt%3BE%26lt%3Bbr%26gt%3BG%22%20style%3D%22rounded%3D0%3BwhiteSpace%3Dwrap%3Bhtml%3D1%3BstrokeColor%3D%2382b366%3BstrokeWidth%3D2%3BfillColor%3D%23d5e8d4%3B%22%20vertex%3D%221%22%20parent%3D%223%22%3E%3CmxGeometry%20x%3D%22667.5%22%20y%3D%2250%22%20width%3D%2280%22%20height%3D%22460%22%20as%3D%22geometry%22%2F%3E%3C%2FmxCell%3E%3CmxCell%20id%3D%227%22%20value%3D%22SUM%22%20style%3D%22shape%3Dtrapezoid%3Bperimeter%3DtrapezoidPerimeter%3BwhiteSpace%3Dwrap%3Bhtml%3D1%3Bdirection%3Dsouth%3B%22%20vertex%3D%221%22%20parent%3D%223%22%3E%3CmxGeometry%20x%3D%22370%22%20y%3D%2270%22%20width%3D%2260%22%20height%3D%22160%22%20as%3D%22geometry%22%2F%3E%3C%2FmxCell%3E%3CmxCell%20id%3D%228%22%20style%3D%22edgeStyle%3DorthogonalEdgeStyle%3Brounded%3D0%3BorthogonalLoop%3D1%3BjettySize%3Dauto%3Bhtml%3D1%3BexitX%3D1%3BexitY%3D0.5%3BexitDx%3D0%3BexitDy%3D0%3BexitPerimeter%3D0%3BentryX%3D0.5%3BentryY%3D1%3BentryDx%3D0%3BentryDy%3D0%3B%22%20edge%3D%221%22%20parent%3D%223%22%20source%3D%229%22%20target%3D%227%22%3E%3CmxGeometry%20relative%3D%221%22%20as%3D%22geometry%22%2F%3E%3C%2FmxCell%3E%3CmxCell%20id%3D%229%22%20value%3D%22%22%20style%3D%22shape%3Dor%3BwhiteSpace%3Dwrap%3Bhtml%3D1%3BstrokeColor%3D%23000000%3BstrokeWidth%3D2%3B%22%20vertex%3D%221%22%20parent%3D%223%22%3E%3CmxGeometry%20x%3D%22170%22%20y%3D%22120%22%20width%3D%2260%22%20height%3D%2260%22%20as%3D%22geometry%22%2F%3E%3C%2FmxCell%3E%3CmxCell%20id%3D%2210%22%20value%3D%22%22%20style%3D%22endArrow%3Dnone%3Bhtml%3D1%3BentryX%3D0%3BentryY%3D0.25%3BentryDx%3D0%3BentryDy%3D0%3BentryPerimeter%3D0%3B%22%20edge%3D%221%22%20parent%3D%223%22%20target%3D%229%22%3E%3CmxGeometry%20width%3D%2250%22%20height%3D%2250%22%20relative%3D%221%22%20as%3D%22geometry%22%3E%3CmxPoint%20x%3D%22130%22%20y%3D%22135%22%20as%3D%22sourcePoint%22%2F%3E%3CmxPoint%20x%3D%22120%22%20y%3D%22100%22%20as%3D%22targetPoint%22%2F%3E%3C%2FmxGeometry%3E%3C%2FmxCell%3E%3CmxCell%20id%3D%2211%22%20value%3D%22%22%20style%3D%22endArrow%3Dnone%3Bhtml%3D1%3BentryX%3D0%3BentryY%3D0.75%3BentryDx%3D0%3BentryDy%3D0%3BentryPerimeter%3D0%3BexitX%3D0.163%3BexitY%3D0.27%3BexitDx%3D0%3BexitDy%3D0%3BexitPerimeter%3D0%3B%22%20edge%3D%221%22%20parent%3D%223%22%20source%3D%224%22%20target%3D%229%22%3E%3CmxGeometry%20width%3D%2250%22%20height%3D%2250%22%20relative%3D%221%22%20as%3D%22geometry%22%3E%3CmxPoint%20x%3D%22140%22%20y%3D%22143%22%20as%3D%22sourcePoint%22%2F%3E%3CmxPoint%20x%3D%22170%22%20y%3D%22140%22%20as%3D%22targetPoint%22%2F%3E%3C%2FmxGeometry%3E%3C%2FmxCell%3E%3CmxCell%20id%3D%2212%22%20value%3D%22pwr_state(0)%22%20style%3D%22text%3Bhtml%3D1%3BstrokeColor%3Dnone%3BfillColor%3Dnone%3Balign%3Dcenter%3BverticalAlign%3Dmiddle%3BwhiteSpace%3Dwrap%3Brounded%3D0%3B%22%20vertex%3D%221%22%20parent%3D%223%22%3E%3CmxGeometry%20x%3D%2270%22%20y%3D%22120%22%20width%3D%2240%22%20height%3D%2220%22%20as%3D%22geometry%22%2F%3E%3C%2FmxCell%3E%3CmxCell%20id%3D%2213%22%20value%3D%22%26lt%3Bmeta%20http-equiv%3D%26quot%3Bcontent-type%26quot%3B%20content%3D%26quot%3Btext%2Fhtml%3B%20charset%3Dutf-8%26quot%3B%26gt%3B%26lt%3Bspan%20style%3D%26quot%3Bfont-family%3A%20Helvetica%3B%20font-size%3A%2012px%3B%20font-style%3A%20normal%3B%20font-variant-ligatures%3A%20normal%3B%20font-variant-caps%3A%20normal%3B%20font-weight%3A%20400%3B%20letter-spacing%3A%20normal%3B%20orphans%3A%202%3B%20text-align%3A%20center%3B%20text-indent%3A%200px%3B%20text-transform%3A%20none%3B%20widows%3A%202%3B%20word-spacing%3A%200px%3B%20-webkit-text-stroke-width%3A%200px%3B%20text-decoration-style%3A%20initial%3B%20text-decoration-color%3A%20initial%3B%20float%3A%20none%3B%20display%3A%20inline%20!important%3B%26quot%3B%26gt%3Bpower_state_arr(0)%26lt%3B%2Fspan%26gt%3B%22%20style%3D%22text%3Bhtml%3D1%3BstrokeColor%3Dnone%3BfillColor%3Dnone%3Balign%3Dcenter%3BverticalAlign%3Dmiddle%3BwhiteSpace%3Dwrap%3Brounded%3D0%3B%22%20vertex%3D%221%22%20parent%3D%223%22%3E%3CmxGeometry%20x%3D%2250%22%20y%3D%22150%22%20width%3D%2240%22%20height%3D%2220%22%20as%3D%22geometry%22%2F%3E%3C%2FmxCell%3E%3CmxCell%20id%3D%2214%22%20style%3D%22edgeStyle%3DorthogonalEdgeStyle%3Brounded%3D0%3BorthogonalLoop%3D1%3BjettySize%3Dauto%3Bhtml%3D1%3BexitX%3D1%3BexitY%3D0.5%3BexitDx%3D0%3BexitDy%3D0%3BendArrow%3Dnone%3BendFill%3D0%3BstrokeWidth%3D4%3B%22%20edge%3D%221%22%20parent%3D%222%22%20source%3D%226%22%3E%3CmxGeometry%20relative%3D%221%22%20as%3D%22geometry%22%3E%3CmxPoint%20x%3D%22710%22%20y%3D%22289.94444444444434%22%20as%3D%22targetPoint%22%2F%3E%3C%2FmxGeometry%3E%3C%2FmxCell%3E%3C%2Froot%3E%3C%2FmxGraphModel%3E&lt;/span&gt;&lt;span style=&quot;font-family: monospace ; font-size: 0px&quot;&gt;%3CmxGraphModel%3E%3Croot%3E%3CmxCell%20id%3D%220%22%2F%3E%3CmxCell%20id%3D%221%22%20parent%3D%220%22%2F%3E%3CmxCell%20id%3D%222%22%20value%3D%22%22%20style%3D%22group%22%20vertex%3D%221%22%20connectable%3D%220%22%20parent%3D%221%22%3E%3CmxGeometry%20x%3D%22330%22%20y%3D%22780%22%20width%3D%22800%22%20height%3D%22610%22%20as%3D%22geometry%22%2F%3E%3C%2FmxCell%3E%3CmxCell%20id%3D%223%22%20value%3D%22%22%20style%3D%22group%22%20vertex%3D%221%22%20connectable%3D%220%22%20parent%3D%222%22%3E%3CmxGeometry%20width%3D%22800%22%20height%3D%22610%22%20as%3D%22geometry%22%2F%3E%3C%2FmxCell%3E%3CmxCell%20id%3D%224%22%20value%3D%22FF_val%20%2B%26amp%3Bnbsp%3B%26lt%3Bbr%26gt%3B(pwr_state(0)%20%26amp%3Bamp%3B%20power_state_arr(0))%20%2B%26lt%3Bbr%26gt%3B(pwr_state(1)%20%26amp%3Bamp%3B%20power_state_arr(1))%20%2B%26amp%3Bnbsp%3B%26lt%3Bbr%26gt%3B...%26lt%3Bbr%26gt%3B(pwr_state(%26lt%3Bspan%26gt%3BNUM_PWR_STATES%20-1)%20%26amp%3Bamp%3B%20power_state_arr(NUM_PWR_STATES-1))%26lt%3B%2Fspan%26gt%3B%22%20style%3D%22rounded%3D0%3BwhiteSpace%3Dwrap%3Bhtml%3D1%3B%22%20vertex%3D%221%22%20parent%3D%223%22%3E%3CmxGeometry%20width%3D%22800%22%20height%3D%22610%22%20as%3D%22geometry%22%2F%3E%3C%2FmxCell%3E%3CmxCell%20id%3D%225%22%20style%3D%22edgeStyle%3DorthogonalEdgeStyle%3Brounded%3D0%3BorthogonalLoop%3D1%3BjettySize%3Dauto%3Bhtml%3D1%3BexitX%3D0.5%3BexitY%3D0%3BexitDx%3D0%3BexitDy%3D0%3BentryX%3D0.25%3BentryY%3D1%3BentryDx%3D0%3BentryDy%3D0%3BstrokeWidth%3D3%3B%22%20edge%3D%221%22%20parent%3D%223%22%20source%3D%226%22%20target%3D%227%22%3E%3CmxGeometry%20relative%3D%221%22%20as%3D%22geometry%22%3E%3CArray%20as%3D%22points%22%3E%3CmxPoint%20x%3D%22708%22%20y%3D%2230%22%2F%3E%3CmxPoint%20x%3D%22350%22%20y%3D%2230%22%2F%3E%3CmxPoint%20x%3D%22350%22%20y%3D%22110%22%2F%3E%3C%2FArray%3E%3C%2FmxGeometry%3E%3C%2FmxCell%3E%3CmxCell%20id%3D%226%22%20value%3D%22P%26lt%3Bbr%26gt%3BW%26lt%3Bbr%26gt%3BR%26lt%3Bbr%26gt%3B%26lt%3Bbr%26gt%3BA%26lt%3Bbr%26gt%3BP%26lt%3Bbr%26gt%3BR%26lt%3Bbr%26gt%3BO%26lt%3Bbr%26gt%3BX%26lt%3Bbr%26gt%3B%26lt%3Bbr%26gt%3BR%26lt%3Bbr%26gt%3BE%26lt%3Bbr%26gt%3BG%22%20style%3D%22rounded%3D0%3BwhiteSpace%3Dwrap%3Bhtml%3D1%3BstrokeColor%3D%2382b366%3BstrokeWidth%3D2%3BfillColor%3D%23d5e8d4%3B%22%20vertex%3D%221%22%20parent%3D%223%22%3E%3CmxGeometry%20x%3D%22667.5%22%20y%3D%2250%22%20width%3D%2280%22%20height%3D%22460%22%20as%3D%22geometry%22%2F%3E%3C%2FmxCell%3E%3CmxCell%20id%3D%227%22%20value%3D%22SUM%22%20style%3D%22shape%3Dtrapezoid%3Bperimeter%3DtrapezoidPerimeter%3BwhiteSpace%3Dwrap%3Bhtml%3D1%3Bdirection%3Dsouth%3B%22%20vertex%3D%221%22%20parent%3D%223%22%3E%3CmxGeometry%20x%3D%22370%22%20y%3D%2270%22%20width%3D%2260%22%20height%3D%22160%22%20as%3D%22geometry%22%2F%3E%3C%2FmxCell%3E%3CmxCell%20id%3D%228%22%20style%3D%22edgeStyle%3DorthogonalEdgeStyle%3Brounded%3D0%3BorthogonalLoop%3D1%3BjettySize%3Dauto%3Bhtml%3D1%3BexitX%3D1%3BexitY%3D0.5%3BexitDx%3D0%3BexitDy%3D0%3BexitPerimeter%3D0%3BentryX%3D0.5%3BentryY%3D1%3BentryDx%3D0%3BentryDy%3D0%3B%22%20edge%3D%221%22%20parent%3D%223%22%20source%3D%229%22%20target%3D%227%22%3E%3CmxGeometry%20relative%3D%221%22%20as%3D%22geometry%22%2F%3E%3C%2FmxCell%3E%3CmxCell%20id%3D%229%22%20value%3D%22%22%20style%3D%22shape%3Dor%3BwhiteSpace%3Dwrap%3Bhtml%3D1%3BstrokeColor%3D%23000000%3BstrokeWidth%3D2%3B%22%20vertex%3D%221%22%20parent%3D%223%22%3E%3CmxGeometry%20x%3D%22170%22%20y%3D%22120%22%20width%3D%2260%22%20height%3D%2260%22%20as%3D%22geometry%22%2F%3E%3C%2FmxCell%3E%3CmxCell%20id%3D%2210%22%20value%3D%22%22%20style%3D%22endArrow%3Dnone%3Bhtml%3D1%3BentryX%3D0%3BentryY%3D0.25%3BentryDx%3D0%3BentryDy%3D0%3BentryPerimeter%3D0%3B%22%20edge%3D%221%22%20parent%3D%223%22%20target%3D%229%22%3E%3CmxGeometry%20width%3D%2250%22%20height%3D%2250%22%20relative%3D%221%22%20as%3D%22geometry%22%3E%3CmxPoint%20x%3D%22130%22%20y%3D%22135%22%20as%3D%22sourcePoint%22%2F%3E%3CmxPoint%20x%3D%22120%22%20y%3D%22100%22%20as%3D%22targetPoint%22%2F%3E%3C%2FmxGeometry%3E%3C%2FmxCell%3E%3CmxCell%20id%3D%2211%22%20value%3D%22%22%20style%3D%22endArrow%3Dnone%3Bhtml%3D1%3BentryX%3D0%3BentryY%3D0.75%3BentryDx%3D0%3BentryDy%3D0%3BentryPerimeter%3D0%3BexitX%3D0.163%3BexitY%3D0.27%3BexitDx%3D0%3BexitDy%3D0%3BexitPerimeter%3D0%3B%22%20edge%3D%221%22%20parent%3D%223%22%20source%3D%224%22%20target%3D%229%22%3E%3CmxGeometry%20width%3D%2250%22%20height%3D%2250%22%20relative%3D%221%22%20as%3D%22geometry%22%3E%3CmxPoint%20x%3D%22140%22%20y%3D%22143%22%20as%3D%22sourcePoint%22%2F%3E%3CmxPoint%20x%3D%22170%22%20y%3D%22140%22%20as%3D%22targetPoint%22%2F%3E%3C%2FmxGeometry%3E%3C%2FmxCell%3E%3CmxCell%20id%3D%2212%22%20value%3D%22pwr_state(0)%22%20style%3D%22text%3Bhtml%3D1%3BstrokeColor%3Dnone%3BfillColor%3Dnone%3Balign%3Dcenter%3BverticalAlign%3Dmiddle%3BwhiteSpace%3Dwrap%3Brounded%3D0%3B%22%20vertex%3D%221%22%20parent%3D%223%22%3E%3CmxGeometry%20x%3D%2270%22%20y%3D%22120%22%20width%3D%2240%22%20height%3D%2220%22%20as%3D%22geometry%22%2F%3E%3C%2FmxCell%3E%3CmxCell%20id%3D%2213%22%20value%3D%22%26lt%3Bmeta%20http-equiv%3D%26quot%3Bcontent-type%26quot%3B%20content%3D%26quot%3Btext%2Fhtml%3B%20charset%3Dutf-8%26quot%3B%26gt%3B%26lt%3Bspan%20style%3D%26quot%3Bfont-family%3A%20Helvetica%3B%20font-size%3A%2012px%3B%20font-style%3A%20normal%3B%20font-variant-ligatures%3A%20normal%3B%20font-variant-caps%3A%20normal%3B%20font-weight%3A%20400%3B%20letter-spacing%3A%20normal%3B%20orphans%3A%202%3B%20text-align%3A%20center%3B%20text-indent%3A%200px%3B%20text-transform%3A%20none%3B%20widows%3A%202%3B%20word-spacing%3A%200px%3B%20-webkit-text-stroke-width%3A%200px%3B%20text-decoration-style%3A%20initial%3B%20text-decoration-color%3A%20initial%3B%20float%3A%20none%3B%20display%3A%20inline%20!important%3B%26quot%3B%26gt%3Bpower_state_arr(0)%26lt%3B%2Fspan%26gt%3B%22%20style%3D%22text%3Bhtml%3D1%3BstrokeColor%3Dnone%3BfillColor%3Dnone%3Balign%3Dcenter%3BverticalAlign%3Dmiddle%3BwhiteSpace%3Dwrap%3Brounded%3D0%3B%22%20vertex%3D%221%22%20parent%3D%223%22%3E%3CmxGeometry%20x%3D%2250%22%20y%3D%22150%22%20width%3D%2240%22%20height%3D%2220%22%20as%3D%22geometry%22%2F%3E%3C%2FmxCell%3E%3CmxCell%20id%3D%2214%22%20style%3D%22edgeStyle%3DorthogonalEdgeStyle%3Brounded%3D0%3BorthogonalLoop%3D1%3BjettySize%3Dauto%3Bhtml%3D1%3BexitX%3D1%3BexitY%3D0.5%3BexitDx%3D0%3BexitDy%3D0%3BendArrow%3Dnone%3BendFill%3D0%3BstrokeWidth%3D4%3B%22%20edge%3D%221%22%20parent%3D%222%22%20source%3D%226%22%3E%3CmxGeometry%20relative%3D%221%22%20as%3D%22geometry%22%3E%3CmxPoint%20x%3D%22710%22%20y%3D%22289.94444444444434%22%20as%3D%22targetPoint%22%2F%3E%3C%2FmxGeometry%3E%3C%2FmxCell%3E%3C%2Froot%3E%3C%2FmxGraphModel%3E&lt;/span&gt;" style="shape=or;whiteSpace=wrap;html=1;strokeColor=#000000;strokeWidth=2;" parent="15j-5euzx9YOIgts3s7C-3" vertex="1">
                    <mxGeometry x="180" y="260" width="60" height="60" as="geometry"/>
                </mxCell>
                <mxCell id="15j-5euzx9YOIgts3s7C-45" value="pwr_state(1)" style="text;html=1;strokeColor=none;fillColor=none;align=center;verticalAlign=middle;whiteSpace=wrap;rounded=0;" parent="15j-5euzx9YOIgts3s7C-3" vertex="1">
                    <mxGeometry x="50" y="260" width="70" height="20" as="geometry"/>
                </mxCell>
                <mxCell id="15j-5euzx9YOIgts3s7C-46" value="&lt;span style=&quot;font-family: &amp;#34;helvetica&amp;#34; ; font-size: 12px ; font-style: normal ; font-weight: 400 ; letter-spacing: normal ; text-align: center ; text-indent: 0px ; text-transform: none ; word-spacing: 0px ; float: none ; display: inline&quot;&gt;power_state_arr(1)&lt;/span&gt;" style="text;html=1;strokeColor=none;fillColor=none;align=center;verticalAlign=middle;whiteSpace=wrap;rounded=0;" parent="15j-5euzx9YOIgts3s7C-3" vertex="1">
                    <mxGeometry x="20" y="300" width="100" height="20" as="geometry"/>
                </mxCell>
                <mxCell id="15j-5euzx9YOIgts3s7C-55" style="edgeStyle=orthogonalEdgeStyle;rounded=0;orthogonalLoop=1;jettySize=auto;html=1;exitX=0.75;exitY=1;exitDx=0;exitDy=0;entryX=1;entryY=0.5;entryDx=0;entryDy=0;endArrow=none;endFill=0;strokeWidth=1;" parent="15j-5euzx9YOIgts3s7C-3" source="15j-5euzx9YOIgts3s7C-50" target="15j-5euzx9YOIgts3s7C-27" edge="1">
                    <mxGeometry relative="1" as="geometry"/>
                </mxCell>
                <mxCell id="15j-5euzx9YOIgts3s7C-63" style="edgeStyle=orthogonalEdgeStyle;rounded=0;orthogonalLoop=1;jettySize=auto;html=1;exitX=0.5;exitY=0;exitDx=0;exitDy=0;entryX=0.5;entryY=0;entryDx=0;entryDy=0;endArrow=none;endFill=0;strokeWidth=1;" parent="15j-5euzx9YOIgts3s7C-3" source="15j-5euzx9YOIgts3s7C-50" target="15j-5euzx9YOIgts3s7C-61" edge="1">
                    <mxGeometry relative="1" as="geometry"/>
                </mxCell>
                <mxCell id="15j-5euzx9YOIgts3s7C-50" value="SUM" style="shape=trapezoid;perimeter=trapezoidPerimeter;whiteSpace=wrap;html=1;direction=south;" parent="15j-5euzx9YOIgts3s7C-3" vertex="1">
                    <mxGeometry x="470" y="202.5" width="60" height="175" as="geometry"/>
                </mxCell>
                <mxCell id="15j-5euzx9YOIgts3s7C-60" style="edgeStyle=orthogonalEdgeStyle;rounded=0;orthogonalLoop=1;jettySize=auto;html=1;exitX=0.5;exitY=0;exitDx=0;exitDy=0;entryX=0;entryY=0.5;entryDx=0;entryDy=0;endArrow=classic;endFill=1;strokeWidth=3;" parent="15j-5euzx9YOIgts3s7C-3" source="15j-5euzx9YOIgts3s7C-57" target="15j-5euzx9YOIgts3s7C-6" edge="1">
                    <mxGeometry relative="1" as="geometry"/>
                </mxCell>
                <mxCell id="15j-5euzx9YOIgts3s7C-57" value="SUM" style="shape=trapezoid;perimeter=trapezoidPerimeter;whiteSpace=wrap;html=1;direction=south;" parent="15j-5euzx9YOIgts3s7C-3" vertex="1">
                    <mxGeometry x="550" y="300" width="60" height="175" as="geometry"/>
                </mxCell>
                <mxCell id="15j-5euzx9YOIgts3s7C-64" style="edgeStyle=orthogonalEdgeStyle;rounded=0;orthogonalLoop=1;jettySize=auto;html=1;exitX=0.5;exitY=1;exitDx=0;exitDy=0;entryX=0.5;entryY=1;entryDx=0;entryDy=0;endArrow=none;endFill=0;strokeWidth=1;" parent="15j-5euzx9YOIgts3s7C-3" source="15j-5euzx9YOIgts3s7C-61" target="15j-5euzx9YOIgts3s7C-57" edge="1">
                    <mxGeometry relative="1" as="geometry">
                        <Array as="points">
                            <mxPoint x="540" y="388"/>
                        </Array>
                    </mxGeometry>
                </mxCell>
                <mxCell id="15j-5euzx9YOIgts3s7C-61" value=".&lt;br&gt;.&lt;br&gt;." style="text;html=1;strokeColor=none;fillColor=none;align=center;verticalAlign=middle;whiteSpace=wrap;rounded=0;" parent="15j-5euzx9YOIgts3s7C-3" vertex="1">
                    <mxGeometry x="520" y="300" width="40" height="40" as="geometry"/>
                </mxCell>
                <mxCell id="y5mTM7t5K1WfnvU4cUye-75" value="&lt;table border=&quot;1&quot; width=&quot;100%&quot; style=&quot;width: 100% ; height: 100% ; border-collapse: collapse&quot;&gt;&lt;tbody&gt;&lt;tr&gt;&lt;td&gt;&lt;br&gt;&lt;/td&gt;&lt;td&gt;Intermittency emulation&lt;/td&gt;&lt;td&gt;&lt;br&gt;&lt;/td&gt;&lt;/tr&gt;&lt;tr&gt;&lt;td&gt;Input&lt;/td&gt;&lt;td&gt;generic&lt;/td&gt;&lt;td&gt;Output&lt;/td&gt;&lt;/tr&gt;&lt;tr&gt;&lt;td&gt;SELECT: STD_LOGIC_VECTOR (int(log2(NUM_THRESHOLD&amp;nbsp;-1)) DOWNTO 0);&lt;/td&gt;&lt;td&gt;NUM_THRESHOLD : INTEGER&lt;/td&gt;&lt;td&gt;OUTPUT_THRESHOLD IS ARRAY:&amp;nbsp;((NUM_THRESHOLD-1) DOWNTO 0) OF STD_LOGIC&lt;br&gt;&lt;/td&gt;&lt;/tr&gt;&lt;tr&gt;&lt;td&gt;&lt;br&gt;&lt;/td&gt;&lt;td&gt;THRESHOLD_ARR is array ((NUM_THRESHOLD-1) DOWNTO 0) OF INTEGER&lt;/td&gt;&lt;td&gt;RESET&lt;/td&gt;&lt;/tr&gt;&lt;/tbody&gt;&lt;/table&gt;" style="text;html=1;strokeColor=#000000;fillColor=none;overflow=fill;align=center;strokeWidth=2;" parent="1" vertex="1">
                    <mxGeometry x="1360" y="1680" width="1360" height="420" as="geometry"/>
                </mxCell>
                <mxCell id="RvvI6G7CeJXVYyHXBvl7-1" value="RESET" style="edgeStyle=orthogonalEdgeStyle;rounded=0;orthogonalLoop=1;jettySize=auto;html=1;exitX=0.5;exitY=0;exitDx=0;exitDy=0;" parent="1" source="y5mTM7t5K1WfnvU4cUye-76" edge="1">
                    <mxGeometry relative="1" as="geometry">
                        <mxPoint x="1216" y="2005.3333333333335" as="targetPoint"/>
                    </mxGeometry>
                </mxCell>
                <mxCell id="15j-5euzx9YOIgts3s7C-90" style="edgeStyle=orthogonalEdgeStyle;rounded=0;orthogonalLoop=1;jettySize=auto;html=1;exitX=1;exitY=0.5;exitDx=0;exitDy=0;endArrow=none;endFill=0;strokeWidth=1;" parent="1" source="y5mTM7t5K1WfnvU4cUye-76" edge="1">
                    <mxGeometry relative="1" as="geometry">
                        <mxPoint x="886" y="2240" as="targetPoint"/>
                        <Array as="points">
                            <mxPoint x="886" y="2240"/>
                        </Array>
                    </mxGeometry>
                </mxCell>
                <mxCell id="y5mTM7t5K1WfnvU4cUye-76" value="MUX" style="shape=trapezoid;perimeter=trapezoidPerimeter;whiteSpace=wrap;html=1;direction=south;" parent="1" vertex="1">
                    <mxGeometry x="856" y="1800" width="60" height="410" as="geometry"/>
                </mxCell>
                <mxCell id="y5mTM7t5K1WfnvU4cUye-82" style="edgeStyle=orthogonalEdgeStyle;rounded=0;orthogonalLoop=1;jettySize=auto;html=1;exitX=1;exitY=0.5;exitDx=0;exitDy=0;entryX=0.25;entryY=1;entryDx=0;entryDy=0;" parent="1" source="y5mTM7t5K1WfnvU4cUye-80" target="y5mTM7t5K1WfnvU4cUye-76" edge="1">
                    <mxGeometry relative="1" as="geometry"/>
                </mxCell>
                <mxCell id="15j-5euzx9YOIgts3s7C-92" style="edgeStyle=orthogonalEdgeStyle;rounded=0;orthogonalLoop=1;jettySize=auto;html=1;exitX=1;exitY=0.5;exitDx=0;exitDy=0;endArrow=none;endFill=0;strokeWidth=1;" parent="1" source="y5mTM7t5K1WfnvU4cUye-80" edge="1">
                    <mxGeometry relative="1" as="geometry">
                        <mxPoint x="761" y="2320" as="targetPoint"/>
                    </mxGeometry>
                </mxCell>
                <mxCell id="y5mTM7t5K1WfnvU4cUye-80" value="" style="triangle;whiteSpace=wrap;html=1;" parent="1" vertex="1">
                    <mxGeometry x="646" y="1860" width="60" height="80" as="geometry"/>
                </mxCell>
                <mxCell id="y5mTM7t5K1WfnvU4cUye-83" value="" style="endArrow=none;html=1;entryX=0;entryY=0.75;entryDx=0;entryDy=0;" parent="1" target="y5mTM7t5K1WfnvU4cUye-80" edge="1">
                    <mxGeometry width="50" height="50" relative="1" as="geometry">
                        <mxPoint x="556" y="1920" as="sourcePoint"/>
                        <mxPoint x="546" y="1940" as="targetPoint"/>
                    </mxGeometry>
                </mxCell>
                <mxCell id="y5mTM7t5K1WfnvU4cUye-84" value="&lt;span&gt;THRESHOLD_ARR(0)&lt;/span&gt;" style="text;html=1;strokeColor=none;fillColor=none;align=center;verticalAlign=middle;whiteSpace=wrap;rounded=0;" parent="1" vertex="1">
                    <mxGeometry x="466" y="1910" width="40" height="20" as="geometry"/>
                </mxCell>
                <mxCell id="y5mTM7t5K1WfnvU4cUye-98" style="edgeStyle=orthogonalEdgeStyle;rounded=0;orthogonalLoop=1;jettySize=auto;html=1;exitX=1;exitY=0.5;exitDx=0;exitDy=0;entryX=0.5;entryY=1;entryDx=0;entryDy=0;" parent="1" source="y5mTM7t5K1WfnvU4cUye-85" target="y5mTM7t5K1WfnvU4cUye-76" edge="1">
                    <mxGeometry relative="1" as="geometry"/>
                </mxCell>
                <mxCell id="y5mTM7t5K1WfnvU4cUye-85" value="" style="triangle;whiteSpace=wrap;html=1;" parent="1" vertex="1">
                    <mxGeometry x="646" y="2000" width="60" height="80" as="geometry"/>
                </mxCell>
                <mxCell id="y5mTM7t5K1WfnvU4cUye-86" value="&lt;span&gt;THRESHOLD_ARR(1)&lt;/span&gt;" style="text;html=1;strokeColor=none;fillColor=none;align=center;verticalAlign=middle;whiteSpace=wrap;rounded=0;" parent="1" vertex="1">
                    <mxGeometry x="456" y="2050" width="40" height="20" as="geometry"/>
                </mxCell>
                <mxCell id="y5mTM7t5K1WfnvU4cUye-87" value="" style="endArrow=none;html=1;entryX=0;entryY=0.75;entryDx=0;entryDy=0;" parent="1" edge="1">
                    <mxGeometry width="50" height="50" relative="1" as="geometry">
                        <mxPoint x="556" y="2060" as="sourcePoint"/>
                        <mxPoint x="646" y="2060" as="targetPoint"/>
                    </mxGeometry>
                </mxCell>
                <mxCell id="y5mTM7t5K1WfnvU4cUye-97" style="edgeStyle=orthogonalEdgeStyle;rounded=0;orthogonalLoop=1;jettySize=auto;html=1;exitX=1;exitY=0.5;exitDx=0;exitDy=0;entryX=0.75;entryY=1;entryDx=0;entryDy=0;" parent="1" source="y5mTM7t5K1WfnvU4cUye-93" target="y5mTM7t5K1WfnvU4cUye-76" edge="1">
                    <mxGeometry relative="1" as="geometry"/>
                </mxCell>
                <mxCell id="15j-5euzx9YOIgts3s7C-94" style="edgeStyle=orthogonalEdgeStyle;rounded=0;orthogonalLoop=1;jettySize=auto;html=1;exitX=1;exitY=0.5;exitDx=0;exitDy=0;endArrow=none;endFill=0;strokeWidth=1;" parent="1" source="y5mTM7t5K1WfnvU4cUye-93" edge="1">
                    <mxGeometry relative="1" as="geometry">
                        <mxPoint x="706" y="2260" as="targetPoint"/>
                        <Array as="points">
                            <mxPoint x="706" y="2240"/>
                            <mxPoint x="706" y="2240"/>
                        </Array>
                    </mxGeometry>
                </mxCell>
                <mxCell id="y5mTM7t5K1WfnvU4cUye-93" value="" style="triangle;whiteSpace=wrap;html=1;" parent="1" vertex="1">
                    <mxGeometry x="646" y="2140" width="60" height="80" as="geometry"/>
                </mxCell>
                <mxCell id="y5mTM7t5K1WfnvU4cUye-94" value="" style="endArrow=none;html=1;entryX=0;entryY=0.75;entryDx=0;entryDy=0;" parent="1" edge="1">
                    <mxGeometry width="50" height="50" relative="1" as="geometry">
                        <mxPoint x="556" y="2200" as="sourcePoint"/>
                        <mxPoint x="646" y="2200" as="targetPoint"/>
                    </mxGeometry>
                </mxCell>
                <mxCell id="y5mTM7t5K1WfnvU4cUye-95" value="&lt;span&gt;THRESHOLD_ARR(&lt;/span&gt;&lt;span&gt;NUM_THRESHOLD-1&lt;/span&gt;&lt;span&gt;)&lt;/span&gt;" style="text;html=1;strokeColor=none;fillColor=none;align=center;verticalAlign=middle;whiteSpace=wrap;rounded=0;" parent="1" vertex="1">
                    <mxGeometry x="300" y="2190" width="256" height="20" as="geometry"/>
                </mxCell>
                <mxCell id="y5mTM7t5K1WfnvU4cUye-99" value=".&lt;br&gt;.&lt;br&gt;." style="text;html=1;strokeColor=none;fillColor=none;align=center;verticalAlign=middle;whiteSpace=wrap;rounded=0;" parent="1" vertex="1">
                    <mxGeometry x="636" y="2095" width="40" height="20" as="geometry"/>
                </mxCell>
                <mxCell id="15j-5euzx9YOIgts3s7C-83" style="edgeStyle=orthogonalEdgeStyle;rounded=0;orthogonalLoop=1;jettySize=auto;html=1;exitX=0.5;exitY=1;exitDx=0;exitDy=0;exitPerimeter=0;entryX=0;entryY=0.25;entryDx=0;entryDy=0;endArrow=none;endFill=0;strokeWidth=1;" parent="1" source="15j-5euzx9YOIgts3s7C-65" target="y5mTM7t5K1WfnvU4cUye-80" edge="1">
                    <mxGeometry relative="1" as="geometry">
                        <Array as="points">
                            <mxPoint x="1045" y="1758"/>
                            <mxPoint x="340" y="1758"/>
                            <mxPoint x="340" y="1880"/>
                        </Array>
                    </mxGeometry>
                </mxCell>
                <mxCell id="15j-5euzx9YOIgts3s7C-85" style="edgeStyle=orthogonalEdgeStyle;rounded=0;orthogonalLoop=1;jettySize=auto;html=1;exitX=0.5;exitY=1;exitDx=0;exitDy=0;exitPerimeter=0;entryX=0;entryY=0.25;entryDx=0;entryDy=0;endArrow=none;endFill=0;strokeWidth=1;" parent="1" source="15j-5euzx9YOIgts3s7C-65" target="y5mTM7t5K1WfnvU4cUye-93" edge="1">
                    <mxGeometry relative="1" as="geometry">
                        <Array as="points">
                            <mxPoint x="1045" y="1760"/>
                            <mxPoint x="340" y="1760"/>
                            <mxPoint x="340" y="2160"/>
                        </Array>
                    </mxGeometry>
                </mxCell>
                <mxCell id="15j-5euzx9YOIgts3s7C-65" value="VOLTAGE TRACE&lt;br&gt;&lt;br&gt;ROM" style="whiteSpace=wrap;html=1;shape=mxgraph.basic.document;fillColor=#f0a30a;strokeColor=#BD7000;fontColor=#ffffff;" parent="1" vertex="1">
                    <mxGeometry x="960" y="1420" width="170" height="235" as="geometry"/>
                </mxCell>
                <mxCell id="15j-5euzx9YOIgts3s7C-67" value="addr" style="text;html=1;strokeColor=none;fillColor=none;align=center;verticalAlign=middle;whiteSpace=wrap;rounded=0;" parent="1" vertex="1">
                    <mxGeometry x="880" y="1510" width="40" height="20" as="geometry"/>
                </mxCell>
                <mxCell id="15j-5euzx9YOIgts3s7C-69" value="dataout" style="text;html=1;strokeColor=none;fillColor=none;align=center;verticalAlign=middle;whiteSpace=wrap;rounded=0;" parent="1" vertex="1">
                    <mxGeometry x="1025" y="1710" width="40" height="20" as="geometry"/>
                </mxCell>
                <mxCell id="15j-5euzx9YOIgts3s7C-70" style="edgeStyle=orthogonalEdgeStyle;rounded=0;orthogonalLoop=1;jettySize=auto;html=1;exitX=0;exitY=0.5;exitDx=0;exitDy=0;exitPerimeter=0;endArrow=none;endFill=0;strokeWidth=3;entryX=0.678;entryY=0.054;entryDx=0;entryDy=0;entryPerimeter=0;fillColor=#f8cecc;strokeColor=#b85450;" parent="1" edge="1">
                    <mxGeometry relative="1" as="geometry">
                        <mxPoint x="960" y="1450" as="sourcePoint"/>
                        <mxPoint x="880.1999999999998" y="1450.1599999999999" as="targetPoint"/>
                        <Array as="points">
                            <mxPoint x="940" y="1450.5"/>
                            <mxPoint x="880" y="1450.5"/>
                        </Array>
                    </mxGeometry>
                </mxCell>
                <mxCell id="15j-5euzx9YOIgts3s7C-71" value="clk ?" style="text;html=1;strokeColor=none;fillColor=none;align=center;verticalAlign=middle;whiteSpace=wrap;rounded=0;" parent="1" vertex="1">
                    <mxGeometry x="880" y="1430" width="40" height="20" as="geometry"/>
                </mxCell>
                <mxCell id="15j-5euzx9YOIgts3s7C-74" style="edgeStyle=orthogonalEdgeStyle;rounded=0;orthogonalLoop=1;jettySize=auto;html=1;exitX=0.5;exitY=0;exitDx=0;exitDy=0;endArrow=none;endFill=0;strokeWidth=3;fillColor=#f8cecc;strokeColor=#b85450;" parent="1" source="15j-5euzx9YOIgts3s7C-73" edge="1">
                    <mxGeometry relative="1" as="geometry">
                        <mxPoint x="350" y="1450" as="targetPoint"/>
                    </mxGeometry>
                </mxCell>
                <mxCell id="15j-5euzx9YOIgts3s7C-76" style="edgeStyle=orthogonalEdgeStyle;rounded=0;orthogonalLoop=1;jettySize=auto;html=1;exitX=1;exitY=0.5;exitDx=0;exitDy=0;entryX=0;entryY=0.5;entryDx=0;entryDy=0;entryPerimeter=0;endArrow=none;endFill=0;strokeWidth=1;" parent="1" source="15j-5euzx9YOIgts3s7C-73" target="15j-5euzx9YOIgts3s7C-65" edge="1">
                    <mxGeometry relative="1" as="geometry">
                        <Array as="points">
                            <mxPoint x="650" y="1565"/>
                            <mxPoint x="650" y="1537"/>
                        </Array>
                    </mxGeometry>
                </mxCell>
                <mxCell id="15j-5euzx9YOIgts3s7C-73" value="COUNTER&lt;br&gt;0 TO ROM_SIZE-1" style="rounded=0;whiteSpace=wrap;html=1;" parent="1" vertex="1">
                    <mxGeometry x="290" y="1507.5" width="120" height="115" as="geometry"/>
                </mxCell>
                <mxCell id="15j-5euzx9YOIgts3s7C-81" value="" style="group" parent="1" vertex="1" connectable="0">
                    <mxGeometry x="380" y="1520" width="26" height="25" as="geometry"/>
                </mxCell>
                <mxCell id="15j-5euzx9YOIgts3s7C-79" value="" style="group" parent="15j-5euzx9YOIgts3s7C-81" vertex="1" connectable="0">
                    <mxGeometry width="26" height="25" as="geometry"/>
                </mxCell>
                <mxCell id="15j-5euzx9YOIgts3s7C-77" value="" style="shape=cross;whiteSpace=wrap;html=1;" parent="15j-5euzx9YOIgts3s7C-79" vertex="1">
                    <mxGeometry y="3.3333333333333335" width="26" height="21.666666666666668" as="geometry"/>
                </mxCell>
                <mxCell id="15j-5euzx9YOIgts3s7C-78" value="" style="rounded=0;whiteSpace=wrap;html=1;" parent="15j-5euzx9YOIgts3s7C-79" vertex="1">
                    <mxGeometry x="20.799999999999997" width="5.199999999999999" height="8.333333333333334" as="geometry"/>
                </mxCell>
                <mxCell id="15j-5euzx9YOIgts3s7C-93" style="edgeStyle=orthogonalEdgeStyle;rounded=0;orthogonalLoop=1;jettySize=auto;html=1;exitX=1;exitY=0.5;exitDx=0;exitDy=0;endArrow=none;endFill=0;strokeWidth=1;" parent="1" source="15j-5euzx9YOIgts3s7C-82" edge="1">
                    <mxGeometry relative="1" as="geometry">
                        <mxPoint x="730" y="2300" as="targetPoint"/>
                        <Array as="points">
                            <mxPoint x="730" y="2040"/>
                        </Array>
                    </mxGeometry>
                </mxCell>
                <mxCell id="15j-5euzx9YOIgts3s7C-82" value="" style="triangle;whiteSpace=wrap;html=1;" parent="1" vertex="1">
                    <mxGeometry x="646" y="2000" width="60" height="80" as="geometry"/>
                </mxCell>
                <mxCell id="15j-5euzx9YOIgts3s7C-84" style="edgeStyle=orthogonalEdgeStyle;rounded=0;orthogonalLoop=1;jettySize=auto;html=1;exitX=0.5;exitY=1;exitDx=0;exitDy=0;exitPerimeter=0;entryX=0;entryY=0.25;entryDx=0;entryDy=0;endArrow=none;endFill=0;strokeWidth=1;" parent="1" source="15j-5euzx9YOIgts3s7C-65" target="15j-5euzx9YOIgts3s7C-82" edge="1">
                    <mxGeometry relative="1" as="geometry">
                        <Array as="points">
                            <mxPoint x="1045" y="1760"/>
                            <mxPoint x="340" y="1760"/>
                            <mxPoint x="340" y="2020"/>
                        </Array>
                    </mxGeometry>
                </mxCell>
                <mxCell id="15j-5euzx9YOIgts3s7C-91" value="SELECT" style="text;html=1;strokeColor=none;fillColor=none;align=center;verticalAlign=middle;whiteSpace=wrap;rounded=0;" parent="1" vertex="1">
                    <mxGeometry x="866" y="2240" width="40" height="20" as="geometry"/>
                </mxCell>
                <mxCell id="15j-5euzx9YOIgts3s7C-95" value="OUTPUT_TRESHOLD(NUM_THRESHOLD -1)" style="text;html=1;strokeColor=none;fillColor=none;align=center;verticalAlign=middle;whiteSpace=wrap;rounded=0;" parent="1" vertex="1">
                    <mxGeometry x="430" y="2240" width="266" height="20" as="geometry"/>
                </mxCell>
                <mxCell id="15j-5euzx9YOIgts3s7C-96" value="OUTPUT_TRESHOLD(1)" style="text;html=1;strokeColor=none;fillColor=none;align=center;verticalAlign=middle;whiteSpace=wrap;rounded=0;" parent="1" vertex="1">
                    <mxGeometry x="586.5" y="2280" width="136" height="20" as="geometry"/>
                </mxCell>
                <mxCell id="15j-5euzx9YOIgts3s7C-97" value="OUTPUT_TRESHOLD(0)" style="text;html=1;strokeColor=none;fillColor=none;align=center;verticalAlign=middle;whiteSpace=wrap;rounded=0;" parent="1" vertex="1">
                    <mxGeometry x="620" y="2300" width="136" height="20" as="geometry"/>
                </mxCell>
            </root>
        </mxGraphModel>
    </diagram>
</mxfile>